STARTFONT 2.1
FONT _CUSTOMER
SIZE 30 72 72
FONTBOUNDINGBOX 30 30 0 -3
STARTPROPERTIES 2
FONT_ASCENT 27
FONT_DESCENT 3
ENDPROPERTIES
CHARS 6917
STARTCHAR  00A4
ENCODING  164
SWIDTH  1000 0
DWIDTH  17 0
BBX  15 16 1 6
BITMAP
0000
4004
EFEE
7FFC
3C78
3018
701C
600C
600C
600C
701C
3838
3EF8
7FFC
E7CE
4004
ENDCHAR
STARTCHAR  00A7
ENCODING  167
SWIDTH  1000 0
DWIDTH  15 0
BBX  11 26 2 0
BITMAP
0F80
3FC0
3DC0
7000
7000
7000
7800
3C00
3F00
7F80
F3C0
E1E0
E0E0
E0E0
F0E0
7DC0
3FC0
0F80
0780
01C0
01C0
01C0
43C0
7F80
7F00
0000
ENDCHAR
STARTCHAR  00A8
ENCODING  168
SWIDTH  1000 0
DWIDTH  13 0
BBX  9 3 2 22
BITMAP
E380
E380
E380
ENDCHAR
STARTCHAR  00B0
ENCODING  176
SWIDTH  1000 0
DWIDTH  13 0
BBX  9 9 2 16
BITMAP
3E00
7F00
F780
C180
C180
E380
7F00
3E00
0000
ENDCHAR
STARTCHAR  00B1
ENCODING  177
SWIDTH  1000 0
DWIDTH  23 0
BBX  15 19 4 2
BITMAP
0300
0300
0300
0300
0300
0300
FFFE
FFFE
0300
0300
0300
0300
0300
0300
0300
0000
0000
FFFE
FFFE
ENDCHAR
STARTCHAR  00B7
ENCODING  183
SWIDTH  1000 0
DWIDTH  8 0
BBX  4 4 2 10
BITMAP
60
F0
F0
60
ENDCHAR
STARTCHAR  00D7
ENCODING  215
SWIDTH  1000 0
DWIDTH  22 0
BBX  15 15 4 4
BITMAP
4008
E01C
7038
3870
1CE0
0FE0
07C0
0780
0FC0
1EE0
3C70
7838
F01C
6008
0000
ENDCHAR
STARTCHAR  00F7
ENCODING  247
SWIDTH  1000 0
DWIDTH  23 0
BBX  15 16 4 4
BITMAP
0380
0380
0380
0300
0000
0000
0000
FFFE
FFFE
0000
0000
0000
0380
0380
0380
0100
ENDCHAR
STARTCHAR  02C7
ENCODING  711
SWIDTH  1000 0
DWIDTH  12 0
BBX  10 6 1 22
BITMAP
C0C0
6180
3300
3B00
1E00
0E00
ENDCHAR
STARTCHAR  02C9
ENCODING  713
SWIDTH  1000 0
DWIDTH  10 0
BBX  8 3 1 22
BITMAP
00
FF
FF
ENDCHAR
STARTCHAR  03A3
ENCODING  931
SWIDTH  1000 0
DWIDTH  17 0
BBX  15 23 1 2
BITMAP
7FFE
7FFE
3800
3C00
1E00
0E00
0700
0780
03C0
01C0
01E0
00E0
01C0
03C0
0780
0700
0F00
1E00
3C00
3800
7800
FFFE
FFFE
ENDCHAR
STARTCHAR  03A4
ENCODING  932
SWIDTH  1000 0
DWIDTH  18 0
BBX  16 23 1 2
BITMAP
FFFF
FFFF
0380
0380
0380
0380
0380
0380
0380
0380
0380
0380
0380
0380
0380
0380
0380
0380
0380
0380
0380
0380
0380
ENDCHAR
STARTCHAR  03A5
ENCODING  933
SWIDTH  1000 0
DWIDTH  19 0
BBX  19 23 0 2
BITMAP
7001C0
7801C0
380380
3C0380
1C0700
1E0700
0E0E00
0F0E00
071C00
079C00
03B800
03B800
01F000
01E000
00E000
00E000
00E000
00E000
00E000
00E000
00E000
00E000
00E000
ENDCHAR
STARTCHAR  03A6
ENCODING  934
SWIDTH  1000 0
DWIDTH  24 0
BBX  22 23 1 2
BITMAP
007000
007000
0FFF80
1FFFE0
3C71F0
787078
707038
E0703C
E0701C
E0701C
E0701C
E0701C
E0701C
E07038
707038
787078
3C71F0
1FFFE0
0FFF80
007000
007000
007000
007000
ENDCHAR
STARTCHAR  03A7
ENCODING  935
SWIDTH  1000 0
DWIDTH  19 0
BBX  19 23 0 2
BITMAP
7801E0
3801C0
1C0380
1E0780
0E0700
0F0E00
070E00
039C00
03BC00
01F800
01F000
00F000
01F000
01F800
03BC00
071C00
070E00
0E0E00
1E0700
1C0780
380380
7803C0
7001E0
ENDCHAR
STARTCHAR  03A8
ENCODING  936
SWIDTH  1000 0
DWIDTH  25 0
BBX  22 23 2 2
BITMAP
E07038
E07038
E07038
E07038
E07038
E07038
E07038
E07038
E07038
E07038
E07038
707078
707070
3C71E0
1FFFC0
0FFF80
007000
007000
007000
007000
007000
007000
007000
ENDCHAR
STARTCHAR  03A9
ENCODING  937
SWIDTH  1000 0
DWIDTH  25 0
BBX  21 23 2 2
BITMAP
01FC00
07FF00
1FDFC0
3E03E0
3800E0
700070
700070
E00038
E00038
E00038
E00038
E00038
E00038
E00038
700070
700070
700070
3800E0
1C01C0
0E0380
070700
FF07F8
FF07F8
ENDCHAR
STARTCHAR  03B1
ENCODING  945
SWIDTH  1000 0
DWIDTH  20 0
BBX  18 17 1 2
BITMAP
07C1C0
1FE380
3EF380
783B00
701F00
F01F00
E00E00
E00E00
E00E00
E00E00
E00E00
E01E00
703F00
703700
3FF3C0
3FE3C0
0F81C0
ENDCHAR
STARTCHAR  03B2
ENCODING  946
SWIDTH  1000 0
DWIDTH  18 0
BBX  14 32 3 -6
BITMAP
0FC0
3FE0
7DF0
7078
E038
E038
E038
E030
E070
E0E0
E3C0
E3C0
E1F0
E078
E038
E01C
E01C
E01C
E01C
E01C
E038
FFF8
FFF0
EFC0
E000
E000
E000
E000
E000
E000
E000
E000
ENDCHAR
STARTCHAR  03B3
ENCODING  947
SWIDTH  1000 0
DWIDTH  17 0
BBX  17 25 -1 -6
BITMAP
700380
780380
380380
3C0380
1C0380
1E0300
0E0700
0E0700
070700
070E00
070E00
039C00
039C00
03B800
03F000
01F000
01E000
01C000
01C000
01C000
01C000
01C000
01C000
01C000
01C000
ENDCHAR
STARTCHAR  03B4
ENCODING  948
SWIDTH  1000 0
DWIDTH  18 0
BBX  16 24 1 2
BITMAP
03F8
0FFC
1FFC
1C04
1C00
1C00
0F00
0780
03E0
07F0
0F78
3C3C
781E
700E
E007
E007
E007
E007
E007
700E
781E
3FFC
1FF8
07E0
ENDCHAR
STARTCHAR  03B5
ENCODING  949
SWIDTH  1000 0
DWIDTH  14 0
BBX  12 17 1 2
BITMAP
0FC0
3FE0
7DE0
7000
7000
7000
3800
1FC0
1FC0
7E00
F000
E000
E000
E000
7CF0
7FF0
1FE0
ENDCHAR
STARTCHAR  03B6
ENCODING  950
SWIDTH  1000 0
DWIDTH  15 0
BBX  13 30 1 -4
BITMAP
3FF0
3FF0
0070
00E0
01C0
0380
0700
0E00
1E00
1C00
3800
3800
7000
7000
E000
E000
E000
E000
E000
E000
F000
7800
7F80
3FE0
0FF0
00F8
0038
0038
0038
0070
ENDCHAR
STARTCHAR  03B7
ENCODING  951
SWIDTH  1000 0
DWIDTH  19 0
BBX  15 25 2 -6
BITMAP
71F0
77F8
7F7C
781C
781E
700E
700E
700E
700E
700E
700E
700E
700E
700E
700E
700E
700E
000E
000E
000E
000E
000E
000E
000E
000E
ENDCHAR
STARTCHAR  03B8
ENCODING  952
SWIDTH  1000 0
DWIDTH  19 0
BBX  16 24 1 2
BITMAP
07E0
0FF8
1FFC
381C
700E
700E
6006
E007
E007
E007
FFFF
FFFF
E007
E007
E007
E007
E007
700E
700E
700E
381C
3F78
1FF0
07E0
ENDCHAR
STARTCHAR  03B9
ENCODING  953
SWIDTH  1000 0
DWIDTH  10 0
BBX  6 17 3 2
BITMAP
E0
E0
E0
E0
E0
E0
E0
E0
E0
E0
E0
E0
E0
E0
FC
7C
3C
ENDCHAR
STARTCHAR  03BA
ENCODING  954
SWIDTH  1000 0
DWIDTH  17 0
BBX  14 18 3 2
BITMAP
0000
E038
E078
E0F8
E1C0
E380
E700
EE00
FE00
FF00
FF80
F380
E1C0
E1E0
E0E0
E070
E078
E03C
ENDCHAR
STARTCHAR  03BB
ENCODING  955
SWIDTH  1000 0
DWIDTH  16 0
BBX  17 24 0 2
BITMAP
3C0000
3F0000
3F0000
038000
038000
01C000
01C000
01C000
01E000
01E000
03E000
03F000
077000
073000
0E3800
0E3800
0C1800
1C1C00
1C1C00
380C00
380E00
700E00
700F00
F00700
ENDCHAR
STARTCHAR  03BC
ENCODING  956
SWIDTH  1000 0
DWIDTH  20 0
BBX  15 23 3 -4
BITMAP
E01C
E01C
E01C
E01C
E01C
E01C
E01C
E01C
E01C
E01C
E01C
E01C
E03C
F03C
FDFC
FFDC
EF9C
E000
E000
E000
E000
E000
E000
ENDCHAR
STARTCHAR  03BD
ENCODING  957
SWIDTH  1000 0
DWIDTH  18 0
BBX  16 17 0 2
BITMAP
7007
7007
3807
3807
3807
1C07
1C07
1C0E
0E0E
0E0E
071C
071C
0738
03F0
03F0
03E0
01C0
ENDCHAR
STARTCHAR  03BE
ENCODING  958
SWIDTH  1000 0
DWIDTH  15 0
BBX  13 30 1 -4
BITMAP
7FE0
7FE0
01E0
0E00
1C00
3800
7000
7000
7000
3800
3F00
07E0
1FE0
3C00
7000
F000
E000
E000
E000
E000
F000
7C00
7F80
1FF0
07F0
0078
0038
0038
0038
0070
ENDCHAR
STARTCHAR  03BF
ENCODING  959
SWIDTH  1000 0
DWIDTH  18 0
BBX  16 17 1 2
BITMAP
07E0
1FF8
3FFC
781E
700E
E007
E007
E007
E007
E007
E007
E007
700E
781E
3FFC
1FF8
07E0
ENDCHAR
STARTCHAR  03C0
ENCODING  960
SWIDTH  1000 0
DWIDTH  21 0
BBX  19 17 1 2
BITMAP
7FFFE0
FFFFE0
FE0700
8E0700
0E0700
0E0700
0E0700
0E0700
0E0700
0E0700
0E0700
0E0700
0E0700
0E0700
0E07A0
0E03E0
0E01E0
ENDCHAR
STARTCHAR  03C1
ENCODING  961
SWIDTH  1000 0
DWIDTH  18 0
BBX  15 23 2 -4
BITMAP
0FC0
1FF0
3EF8
703C
701C
E01E
E00E
E00E
E00E
E00E
E00E
E00E
E01C
F03C
FEF8
FFF0
E7E0
E000
E000
E000
E000
E000
E000
ENDCHAR
STARTCHAR  03C3
ENCODING  963
SWIDTH  1000 0
DWIDTH  19 0
BBX  17 17 1 2
BITMAP
07FF80
1FFF80
3F3800
781C00
701C00
E00C00
E00E00
E00E00
E00E00
E00E00
E00E00
E00E00
701C00
783C00
3EF800
1FF000
07C000
ENDCHAR
STARTCHAR  03C4
ENCODING  964
SWIDTH  1000 0
DWIDTH  17 0
BBX  15 17 1 2
BITMAP
7FFE
FFFE
F380
8380
0380
0380
0380
0380
0380
0380
0380
0380
0380
0380
03D8
01F8
00F8
ENDCHAR
STARTCHAR  03C5
ENCODING  965
SWIDTH  1000 0
DWIDTH  19 0
BBX  17 17 0 2
BITMAP
F00E00
F80F00
BC0700
1C0700
1C0380
1C0380
1C0380
1C0380
1C0380
1C0380
1C0380
1C0380
1E0700
0E0700
0FFE00
07FC00
01F800
ENDCHAR
STARTCHAR  03C6
ENCODING  966
SWIDTH  1000 0
DWIDTH  22 0
BBX  20 25 1 -6
BITMAP
1C3E00
387F80
70FFC0
70E1E0
70E0E0
E0E0F0
E0E070
E0E070
E0E070
E0E070
E0E070
E0E0F0
70E0E0
78E1E0
3FEFC0
1FFF80
07FE00
00E000
00E000
00E000
00E000
00E000
00E000
00E000
00E000
ENDCHAR
STARTCHAR  03C7
ENCODING  967
SWIDTH  1000 0
DWIDTH  18 0
BBX  18 25 0 -6
BITMAP
780700
7C0F00
5C0E00
0E1C00
0E1C00
073800
073800
037000
03F000
01E000
01E000
01C000
01E000
03E000
03F000
077000
073800
0E3800
0E1800
1C1C00
3C1C00
380E00
780FC0
7007C0
F003C0
ENDCHAR
STARTCHAR  03C8
ENCODING  968
SWIDTH  1000 0
DWIDTH  24 0
BBX  20 29 2 -6
BITMAP
00E000
00E000
00E000
00E000
E0E070
E0E070
E0E070
E0E070
E0E070
E0E070
E0E070
E0E070
E0E070
E0E070
E0E070
70E0E0
70E1E0
78E1C0
3EEFC0
1FFF00
07FE00
00E000
00E000
00E000
00E000
00E000
00E000
00E000
00E000
ENDCHAR
STARTCHAR  03C9
ENCODING  969
SWIDTH  1000 0
DWIDTH  27 0
BBX  23 17 2 2
BITMAP
380038
780038
70001C
70001C
70381C
E0380E
E0380E
E0380E
E0380E
E0380E
E0380E
E0380E
F0781C
707C1C
7FEFF8
3FC7F8
0F83E0
ENDCHAR
STARTCHAR  2014
ENCODING  8212
SWIDTH  1000 0
DWIDTH  32 0
BBX  32 3 0 10
BITMAP
00000000
FFFFFFFF
FFFFFFFF
ENDCHAR
STARTCHAR  2016
ENCODING  8214
SWIDTH  1000 0
DWIDTH  17 0
BBX  11 33 3 -6
BITMAP
C060
C060
C060
C060
C060
C060
C060
C060
C060
C060
C060
C060
C060
C060
C060
C060
C060
C060
C060
C060
C060
C060
C060
C060
C060
C060
C060
C060
C060
C060
C060
C060
C060
ENDCHAR
STARTCHAR  2018
ENCODING  8216
SWIDTH  1000 0
DWIDTH  30 0
BBX  6 7 23 18
BITMAP
18
18
38
30
30
70
70
ENDCHAR
STARTCHAR  2019
ENCODING  8217
SWIDTH  1000 0
DWIDTH  30 0
BBX  6 7 1 18
BITMAP
38
38
30
30
70
60
60
ENDCHAR
STARTCHAR  201C
ENCODING  8220
SWIDTH  1000 0
DWIDTH  30 0
BBX  11 7 18 18
BITMAP
18C0
18C0
39C0
3180
3180
7380
7380
ENDCHAR
STARTCHAR  201D
ENCODING  8221
SWIDTH  1000 0
DWIDTH  30 0
BBX  11 7 1 18
BITMAP
39C0
39C0
3180
3180
7380
6300
6300
ENDCHAR
STARTCHAR  2026
ENCODING  8230
SWIDTH  1000 0
DWIDTH  24 0
BBX  20 4 2 2
BITMAP
606060
F0F0F0
F0F0F0
606060
ENDCHAR
STARTCHAR  2030
ENCODING  8240
SWIDTH  1000 0
DWIDTH  39 0
BBX  37 23 1 2
BITMAP
1F00300000
3F80700000
7FC0600000
E1C0C00000
C0C1C00000
C0C1800000
C0C3000000
C0C7000000
E1C6000000
7F8C000000
3F1C000000
00187807C0
0039FE0FE0
0071861C70
0063873838
00E3033018
00C3033018
0183033018
0383033018
0303033838
0601861830
0E01FE0FE0
0C007807C0
ENDCHAR
STARTCHAR  2032
ENCODING  8242
SWIDTH  1000 0
DWIDTH  8 0
BBX  4 7 2 18
BITMAP
70
60
60
60
60
C0
C0
ENDCHAR
STARTCHAR  2033
ENCODING  8243
SWIDTH  1000 0
DWIDTH  13 0
BBX  9 7 2 18
BITMAP
7380
7300
6300
6300
6700
6600
C600
ENDCHAR
STARTCHAR  203B
ENCODING  8251
SWIDTH  1000 0
DWIDTH  26 0
BBX  26 26 0 1
BITMAP
00000000
20000100
70000380
380C0700
1C1E0E00
0E1E1C00
070C3800
03807000
01C0E000
00E1C000
00738000
0C3F0C00
1E1E1E00
1E1E1E00
0C3F0C00
00738000
00E1C000
01C0E000
03807000
070C3800
0E1E1C00
1C1E0E00
380C0700
70000380
20000100
00000000
ENDCHAR
STARTCHAR  2103
ENCODING  8451
SWIDTH  1000 0
DWIDTH  30 0
BBX  28 24 1 1
BITMAP
3C003FC0
7F00FFE0
E303FFE0
C187C000
C18F0000
C18E0000
E31C0000
7F1C0000
1C3C0000
00380000
00380000
00380000
00380000
00380000
00380000
00380000
001C0000
001C0000
001E0000
000F0000
0007C060
0003FFE0
0000FFE0
00000C00
ENDCHAR
STARTCHAR  2116
ENCODING  8470
SWIDTH  1000 0
DWIDTH  37 0
BBX  32 23 3 2
BITMAP
F001C1F8
F001C3FC
F801C78E
FC01C607
FC01CE07
EE01CE07
EE01CE07
E701CE07
E381CE07
E381CE06
E1C1C70E
E1E1C3FC
E0E1C1F8
E071C000
E071C000
E039C000
E03DC7FF
E01DC7FF
E00FC000
E00FC000
E007C000
E007C000
E003C000
ENDCHAR
STARTCHAR  2208
ENCODING  8712
SWIDTH  1000 0
DWIDTH  30 0
BBX  22 19 4 2
BITMAP
01FFFC
0FFFFC
1E0000
380000
700000
600000
E00000
C00000
C00000
FFFFFC
FFFFFC
C00000
C00000
600000
600000
300000
1C0000
0FFFFC
03FFFC
ENDCHAR
STARTCHAR  220F
ENCODING  8719
SWIDTH  1000 0
DWIDTH  25 0
BBX  19 31 3 -6
BITMAP
FFFFE0
FFFFE0
FFFFE0
E000E0
E000E0
E000E0
E000E0
E000E0
E000E0
E000E0
E000E0
E000E0
E000E0
E000E0
E000E0
E000E0
E000E0
E000E0
E000E0
E000E0
E000E0
E000E0
E000E0
E000E0
E000E0
E000E0
E000E0
E000E0
E000E0
E000E0
000000
ENDCHAR
STARTCHAR  2211
ENCODING  8721
SWIDTH  1000 0
DWIDTH  20 0
BBX  20 31 0 -6
BITMAP
3FFFE0
3FFFE0
3FFFE0
1C0000
0E0000
0F0000
078000
038000
01C000
01E000
00F000
007000
003800
003C00
001E00
000E00
001C00
003C00
007800
00F000
00E000
01C000
03C000
078000
070000
0E0000
1E0000
3C0000
7FFFE0
7FFFE0
7FFFE0
ENDCHAR
STARTCHAR  221A
ENCODING  8730
SWIDTH  1000 0
DWIDTH  21 0
BBX  17 25 1 2
BITMAP
000000
000180
000300
000300
000300
000300
000600
000600
000600
000600
000C00
780C00
7C0C00
0C1C00
0E1800
061800
061800
033800
033000
03B000
01B000
01E000
00E000
00E000
006000
ENDCHAR
STARTCHAR  221D
ENCODING  8733
SWIDTH  1000 0
DWIDTH  26 0
BBX  21 13 2 5
BITMAP
0F8070
1FC1F0
38E380
703700
601E00
601C00
600C00
601C00
603E00
703700
38E380
1FC1F0
0F80F0
ENDCHAR
STARTCHAR  221E
ENCODING  8734
SWIDTH  1000 0
DWIDTH  26 0
BBX  24 14 1 4
BITMAP
0F00F0
3FC3FC
70E78E
606606
E03C07
C03C03
C01803
C03C03
E03C07
606606
71E70E
3FC3FC
1F00F0
000000
ENDCHAR
STARTCHAR  2220
ENCODING  8736
SWIDTH  1000 0
DWIDTH  21 0
BBX  18 18 1 2
BITMAP
000000
000180
000380
000700
000E00
001C00
003800
007000
00E000
01C000
038000
070000
0E0000
1C0000
380000
700000
7FFFC0
FFFFC0
ENDCHAR
STARTCHAR  2225
ENCODING  8741
SWIDTH  1000 0
DWIDTH  22 0
BBX  9 19 6 2
BITMAP
6180
6180
6180
6180
6180
6180
6180
6180
6180
6180
6180
6180
6180
6180
6180
6180
6180
6180
6180
ENDCHAR
STARTCHAR  2229
ENCODING  8745
SWIDTH  1000 0
DWIDTH  22 0
BBX  17 23 2 1
BITMAP
03F000
0FF800
1FFE00
3C1E00
780F00
700700
F00380
E00380
E00380
E00380
E00380
E00380
E00380
E00380
E00380
E00380
E00380
E00380
E00380
E00380
E00380
E00380
000000
ENDCHAR
STARTCHAR  222A
ENCODING  8746
SWIDTH  1000 0
DWIDTH  30 0
BBX  19 22 5 1
BITMAP
600060
600060
600060
600060
600060
600060
600060
600060
600060
600060
600060
600060
600060
600060
600060
3000C0
3000C0
180180
1E0780
0FFF00
03F800
000000
ENDCHAR
STARTCHAR  222B
ENCODING  8747
SWIDTH  1000 0
DWIDTH  18 0
BBX  13 33 2 -6
BITMAP
0000
00F0
03F0
0380
0700
0700
0700
0700
0700
0700
0700
0700
0700
0700
0700
0700
0700
0700
0700
0700
0700
0700
0700
0700
0700
0700
0700
0700
0700
0E00
7E00
7800
0000
ENDCHAR
STARTCHAR  222E
ENCODING  8750
SWIDTH  1000 0
DWIDTH  17 0
BBX  15 33 1 -6
BITMAP
0000
0078
01F8
01C0
0380
0380
0380
0380
0380
07C0
1FF0
3BB8
739C
638C
C386
C386
C386
C386
C386
638C
738C
3BB8
1FF0
0FE0
0380
0380
0380
0380
0380
0700
3F00
3E00
0000
ENDCHAR
STARTCHAR  223D
ENCODING  8765
SWIDTH  1000 0
DWIDTH  22 0
BBX  16 6 3 8
BITMAP
C078
61FC
63CE
7F06
1E06
0000
ENDCHAR
STARTCHAR  2248
ENCODING  8776
SWIDTH  1000 0
DWIDTH  22 0
BBX  17 13 2 5
BITMAP
000000
1F0300
3F8300
71E700
60FE00
603C00
000000
1E0300
3F8300
73C700
60FE00
603C00
000000
ENDCHAR
STARTCHAR  224C
ENCODING  8780
SWIDTH  1000 0
DWIDTH  16 0
BBX  16 18 0 2
BITMAP
0000
3E0E
6306
6183
4081
60C3
6066
383E
0000
0000
0000
7FFF
0000
0000
0000
0000
0000
7FFF
ENDCHAR
STARTCHAR  2260
ENCODING  8800
SWIDTH  1000 0
DWIDTH  22 0
BBX  15 19 4 2
BITMAP
0018
0038
0030
0070
0060
FFFE
FFFE
01C0
0180
0380
0300
0700
FFFE
FFFE
0C00
1C00
1800
3000
3000
ENDCHAR
STARTCHAR  2261
ENCODING  8801
SWIDTH  1000 0
DWIDTH  18 0
BBX  14 16 2 5
BITMAP
FFF8
FFF8
FFF8
0000
0000
0000
0000
FFF8
FFF8
FFF8
0000
0000
0000
FFF8
FFF8
FFF8
ENDCHAR
STARTCHAR  2264
ENCODING  8804
SWIDTH  1000 0
DWIDTH  22 0
BBX  15 20 4 2
BITMAP
0000
0004
001C
007C
01F0
07C0
0F00
3C00
7000
7C00
1F00
07C0
01F0
007C
001C
0004
0000
0000
FFFE
FFFE
ENDCHAR
STARTCHAR  2265
ENCODING  8805
SWIDTH  1000 0
DWIDTH  22 0
BBX  15 20 4 2
BITMAP
0000
4000
7000
7C00
1F00
07C0
01E0
0078
001C
007C
01F0
07C0
1F00
7C00
7000
4000
0000
0000
FFFE
FFFE
ENDCHAR
STARTCHAR  226E
ENCODING  8814
SWIDTH  1000 0
DWIDTH  16 0
BBX  16 17 0 1
BITMAP
00C0
00C3
008E
00B8
00E0
0380
0F80
7900
7100
3D00
0F00
03C0
0270
021C
0607
0601
0600
ENDCHAR
STARTCHAR  226F
ENCODING  8815
SWIDTH  1000 0
DWIDTH  16 0
BBX  16 17 0 1
BITMAP
00C0
40C0
7080
1E80
0780
01E0
01B8
010E
0107
011C
0370
03C0
0700
3E00
7200
4600
0600
ENDCHAR
STARTCHAR  2299
ENCODING  8857
SWIDTH  1000 0
DWIDTH  30 0
BBX  20 20 5 1
BITMAP
01F800
07FE00
1E0780
1801C0
3000C0
600060
600060
C00030
C07030
C07030
C07030
C00030
C00030
600060
600060
3000C0
1801C0
0E0700
07FE00
01F800
ENDCHAR
STARTCHAR  22A5
ENCODING  8869
SWIDTH  1000 0
DWIDTH  30 0
BBX  22 19 4 2
BITMAP
003000
003000
003000
003000
003000
003000
003000
003000
003000
003000
003000
003000
003000
003000
003000
003000
003000
FFFFF8
FFFFF8
ENDCHAR
STARTCHAR  2312
ENCODING  8978
SWIDTH  1000 0
DWIDTH  30 0
BBX  22 12 4 1
BITMAP
000000
00FC00
03FF00
0F03C0
1C00E0
180060
300030
300030
600018
600018
600018
000000
ENDCHAR
STARTCHAR  2640
ENCODING  9792
SWIDTH  1000 0
DWIDTH  23 0
BBX  16 29 3 -3
BITMAP
03C0
0C30
300C
2004
4002
8002
8001
8001
8001
8001
8002
4002
6004
200C
1810
07E0
0100
0100
0100
0100
0100
0100
7FFE
0100
0100
0100
0100
0100
0100
ENDCHAR
STARTCHAR  2642
ENCODING  9794
SWIDTH  1000 0
DWIDTH  23 0
BBX  19 28 2 -2
BITMAP
000000
000380
000D80
003280
00C280
010480
000440
000440
000840
000840
001020
001000
002000
07E000
183000
200800
400400
400400
800200
800200
800200
800200
800200
800400
400400
200800
101000
0FE000
ENDCHAR
STARTCHAR  3000
ENCODING  12288
SWIDTH  1000 0
DWIDTH  30 0
BBX  0 0 0 2
BITMAP
ENDCHAR
STARTCHAR  3001
ENCODING  12289
SWIDTH  1000 0
DWIDTH  30 0
BBX  9 8 1 -2
BITMAP
0000
2000
7000
3800
1E00
0F00
0700
0200
ENDCHAR
STARTCHAR  3002
ENCODING  12290
SWIDTH  1000 0
DWIDTH  30 0
BBX  9 9 1 -2
BITMAP
0000
1C00
3E00
7700
6300
6300
7F00
3E00
0000
ENDCHAR
STARTCHAR  3003
ENCODING  12291
SWIDTH  1000 0
DWIDTH  30 0
BBX  12 13 9 6
BITMAP
0000
0E60
0CE0
1CE0
1CC0
18C0
39C0
3180
3180
7380
6300
6300
2300
ENDCHAR
STARTCHAR  3005
ENCODING  12293
SWIDTH  1000 0
DWIDTH  30 0
BBX  20 19 3 3
BITMAP
000000
003000
007000
00E000
00E000
01FFF0
01FFF0
0380E0
0701C0
0E03C0
1C0380
3CC700
79FE00
307C00
003E00
000F00
000780
000100
000000
ENDCHAR
STARTCHAR  3008
ENCODING  12296
SWIDTH  1000 0
DWIDTH  30 0
BBX  9 29 18 -2
BITMAP
0380
0300
0700
0600
0E00
0E00
0C00
1C00
1800
3800
3000
7000
7000
6000
E000
E000
6000
7000
3000
3800
1800
1C00
1C00
0C00
0E00
0600
0700
0300
0380
ENDCHAR
STARTCHAR  3009
ENCODING  12297
SWIDTH  1000 0
DWIDTH  30 0
BBX  10 29 3 -2
BITMAP
E000
6000
7000
3000
3800
3800
1C00
1C00
0C00
0E00
0600
0700
0700
0380
0380
0380
0300
0700
0600
0E00
0E00
1C00
1C00
1800
3800
3000
7000
7000
E000
ENDCHAR
STARTCHAR  300A
ENCODING  12298
SWIDTH  1000 0
DWIDTH  30 0
BBX  14 29 14 -2
BITMAP
019C
0198
0338
0330
0730
0670
0E60
0CE0
1CC0
19C0
3980
3380
3300
7300
6700
6700
7300
3380
3980
19C0
1CC0
0CC0
0E60
0660
0670
0730
0338
0398
019C
ENDCHAR
STARTCHAR  300B
ENCODING  12299
SWIDTH  1000 0
DWIDTH  30 0
BBX  14 29 2 -2
BITMAP
E600
6700
7300
3300
3980
1980
19C0
1CC0
0CE0
0E60
0670
0730
0338
0318
0198
0398
0338
0730
0670
0660
0CE0
0CC0
1CC0
19C0
3980
3380
7300
6700
E600
ENDCHAR
STARTCHAR  300C
ENCODING  12300
SWIDTH  1000 0
DWIDTH  30 0
BBX  9 29 19 -2
BITMAP
FF00
FF00
C000
C000
C000
C000
C000
C000
C000
C000
C000
C000
C000
C000
C000
C000
C000
C000
C000
C000
C000
C000
C000
C000
C000
C000
C000
C000
C000
ENDCHAR
STARTCHAR  300D
ENCODING  12301
SWIDTH  1000 0
DWIDTH  30 0
BBX  9 29 2 -2
BITMAP
0180
0180
0180
0180
0180
0180
0180
0180
0180
0180
0180
0180
0180
0180
0180
0180
0180
0180
0180
0180
0180
0180
0180
0180
0180
0180
0180
7F80
7F80
ENDCHAR
STARTCHAR  300E
ENCODING  12302
SWIDTH  1000 0
DWIDTH  30 0
BBX  10 29 18 -2
BITMAP
FFC0
FFC0
C0C0
C0C0
CFC0
CFC0
CC00
CC00
CC00
CC00
CC00
CC00
CC00
CC00
CC00
CC00
CC00
CC00
CC00
CC00
CC00
CC00
CC00
CC00
CC00
CC00
CC00
FC00
FC00
ENDCHAR
STARTCHAR  300F
ENCODING  12303
SWIDTH  1000 0
DWIDTH  30 0
BBX  10 29 2 -2
BITMAP
07C0
07C0
06C0
06C0
06C0
06C0
06C0
06C0
06C0
06C0
06C0
06C0
06C0
06C0
06C0
06C0
06C0
06C0
06C0
06C0
06C0
06C0
06C0
FEC0
FEC0
C0C0
C0C0
FFC0
FFC0
ENDCHAR
STARTCHAR  3010
ENCODING  12304
SWIDTH  1000 0
DWIDTH  30 0
BBX  12 29 16 -2
BITMAP
7FE0
7FC0
7F80
7F00
7E00
7E00
7C00
7C00
7800
7800
7800
7800
7000
7000
7000
7000
7000
7800
7800
7800
7800
7C00
7C00
7E00
7E00
7F00
7F80
7F80
7FC0
ENDCHAR
STARTCHAR  3011
ENCODING  12305
SWIDTH  1000 0
DWIDTH  30 0
BBX  12 29 2 -2
BITMAP
7FE0
3FE0
1FE0
0FE0
07E0
07E0
03E0
03E0
01E0
01E0
01E0
01E0
00E0
00E0
00E0
00E0
00E0
01E0
01E0
01E0
01E0
03E0
03E0
07E0
07E0
0FE0
1FE0
1FE0
3FE0
ENDCHAR
STARTCHAR  3013
ENCODING  12307
SWIDTH  1000 0
DWIDTH  30 0
BBX  26 22 2 2
BITMAP
7FFFFF80
7FFFFF80
7FFFFF80
7FFFFF80
7FFFFF80
7FFFFF80
7FFFFF80
7FFFFF80
00000000
00000000
00000000
00000000
00000000
00000000
7FFFFF80
7FFFFF80
7FFFFF80
7FFFFF80
7FFFFF80
7FFFFF80
7FFFFF80
7FFFFF80
ENDCHAR
STARTCHAR  3014
ENCODING  12308
SWIDTH  1000 0
DWIDTH  30 0
BBX  8 29 19 -2
BITMAP
02
0E
3E
F8
E0
C0
C0
C0
C0
C0
C0
C0
C0
C0
C0
C0
C0
C0
C0
C0
C0
C0
C0
C0
E0
F8
3E
0E
02
ENDCHAR
STARTCHAR  3015
ENCODING  12309
SWIDTH  1000 0
DWIDTH  30 0
BBX  8 29 3 -2
BITMAP
40
70
7C
1F
07
03
03
03
03
03
03
03
03
03
03
03
03
03
03
03
03
03
03
03
07
1F
7C
70
40
ENDCHAR
STARTCHAR  3016
ENCODING  12310
SWIDTH  1000 0
DWIDTH  30 0
BBX  13 29 16 -2
BITMAP
7FF0
7FE0
60C0
61C0
6180
6380
6380
6300
6300
6700
6700
6600
6600
6600
6600
6600
6600
6600
6600
6700
6700
6300
6300
6380
6380
6180
61C0
7FE0
7FE0
ENDCHAR
STARTCHAR  3017
ENCODING  12311
SWIDTH  1000 0
DWIDTH  30 0
BBX  12 29 2 -2
BITMAP
FFE0
7FE0
3060
3860
1860
1C60
0C60
0C60
0C60
0E60
0660
0660
0660
0660
0660
0660
0660
0660
0660
0660
0E60
0C60
0C60
1C60
1C60
1860
3860
3FE0
7FE0
ENDCHAR
STARTCHAR  304F
ENCODING  12367
SWIDTH  1000 0
DWIDTH  30 0
BBX  15 27 7 -1
BITMAP
0010
003C
0038
0070
00E0
01C0
0380
0780
0F00
1E00
3C00
7800
7000
E000
7000
7800
1C00
0E00
0700
0380
01C0
00E0
0070
0038
001C
000C
0008
ENDCHAR
STARTCHAR  3063
ENCODING  12387
SWIDTH  1000 0
DWIDTH  30 0
BBX  21 16 4 1
BITMAP
000000
01FF80
0FFFE0
7F80E0
780070
200030
000030
000030
000030
000070
000070
0001E0
000FC0
01FF80
01FC00
000000
ENDCHAR
STARTCHAR  3064
ENCODING  12388
SWIDTH  1000 0
DWIDTH  30 0
BBX  26 19 1 2
BITMAP
000FE000
01FFFC00
0FF03E00
3F000700
78000300
60000380
00000180
00000180
00000180
00000180
00000180
00000380
00000300
00000F00
00001E00
0001F800
007FF000
007F0000
00000000
ENDCHAR
STARTCHAR  3078
ENCODING  12408
SWIDTH  1000 0
DWIDTH  30 0
BBX  28 15 1 5
BITMAP
00000000
003C0000
007E0000
01EF0000
03C78000
0781C000
0F00E000
3C007800
78003C00
30001E00
00000780
000003C0
000001E0
00000040
00000000
ENDCHAR
STARTCHAR  30A1
ENCODING  12449
SWIDTH  1000 0
DWIDTH  30 0
BBX  20 20 5 -1
BITMAP
000000
FFFFE0
FFFFE0
0000E0
0001C0
006380
006700
00EF00
00EE00
00E400
00E000
00E000
00C000
01C000
01C000
078000
0F0000
1E0000
0C0000
000000
ENDCHAR
STARTCHAR  30A2
ENCODING  12450
SWIDTH  1000 0
DWIDTH  30 0
BBX  25 24 2 0
BITMAP
00000000
7FFFFF80
7FFFFF80
00000380
00000700
00000E00
000C1C00
000C3800
000C7000
000DE000
001DC000
001C0000
001C0000
00180000
00180000
00380000
00380000
00700000
00E00000
01E00000
03C00000
0F000000
0E000000
00000000
ENDCHAR
STARTCHAR  30CE
ENCODING  12494
SWIDTH  1000 0
DWIDTH  30 0
BBX  18 24 5 1
BITMAP
000000
000180
000180
000380
000380
000300
000700
000700
000600
000E00
000E00
001C00
001C00
003800
007000
007000
00E000
01C000
038000
0F0000
1E0000
7C0000
300000
000000
ENDCHAR
STARTCHAR  30D5
ENCODING  12501
SWIDTH  1000 0
DWIDTH  30 0
BBX  22 22 3 0
BITMAP
000000
FFFFF8
FFFFF8
000018
000038
000038
000030
000030
000070
000060
0000E0
0000C0
0001C0
000380
000700
000E00
003C00
00F800
03E000
1FC000
1E0000
000000
ENDCHAR
STARTCHAR  30D8
ENCODING  12504
SWIDTH  1000 0
DWIDTH  30 0
BBX  27 15 2 5
BITMAP
00700000
00F80000
01FC0000
03CE0000
07870000
0F038000
1E01C000
3C00F000
78007800
60003C00
00001E00
00000780
000003C0
00000180
00000080
ENDCHAR
STARTCHAR  30EE
ENCODING  12526
SWIDTH  1000 0
DWIDTH  30 0
BBX  17 18 7 0
BITMAP
7FFF00
7FFF00
600300
600700
600700
600700
600600
600600
000E00
000E00
001C00
001C00
003800
007000
01E000
0FC000
070000
000000
ENDCHAR
STARTCHAR  30EF
ENCODING  12527
SWIDTH  1000 0
DWIDTH  30 0
BBX  21 24 5 -1
BITMAP
000000
7FFFF0
7FFFF0
600030
600070
600070
600070
600070
600060
600060
600060
6000E0
0000E0
0001C0
0001C0
000380
000780
000F00
001E00
003C00
00F800
03F000
01C000
000000
ENDCHAR
STARTCHAR  3111
ENCODING  12561
SWIDTH  1000 0
DWIDTH  30 0
BBX  13 26 8 0
BITMAP
0000
0020
0070
00E0
01C0
01C0
0380
0700
0E00
1E00
3C00
3800
7000
F000
7000
3800
1C00
0E00
0700
0380
01C0
01C0
00E0
0070
0030
0020
ENDCHAR
STARTCHAR  3125
ENCODING  12581
SWIDTH  1000 0
DWIDTH  30 0
BBX  21 22 5 2
BITMAP
000000
006000
00E000
00E000
00C000
01C000
018000
038000
038000
030000
070000
060000
0E0000
0C0000
1C0000
380000
380000
700000
E00000
FFFFF0
FFFFF0
000000
ENDCHAR
STARTCHAR  3126
ENCODING  12582
SWIDTH  1000 0
DWIDTH  30 0
BBX  25 24 3 1
BITMAP
00000000
00C18000
00C18000
00C18000
00C18000
00C18000
00C18000
00C18000
00C18000
00C18000
00C18000
01C18000
01C18000
01C18000
01818000
03818000
03818000
07018000
0E018000
1E018000
3C01FF00
7000FF00
20000000
00000000
ENDCHAR
STARTCHAR  3127
ENCODING  12583
SWIDTH  1000 0
DWIDTH  30 0
BBX  25 3 3 11
BITMAP
FFFFFF80
FFFFFF80
00000000
ENDCHAR
STARTCHAR  3128
ENCODING  12584
SWIDTH  1000 0
DWIDTH  30 0
BBX  23 23 3 1
BITMAP
000040
000060
0000E0
1000E0
1C00C0
1E01C0
0F8180
03C380
01E300
007700
003E00
001E00
001F00
003F80
0073C0
00E1E0
01C0F0
078078
0F003C
3E001C
78000C
300000
000000
ENDCHAR
STARTCHAR  3129
ENCODING  12585
SWIDTH  1000 0
DWIDTH  30 0
BBX  20 20 5 3
BITMAP
600060
600060
600060
600060
600060
600060
600060
600060
600060
600060
600060
600060
600060
600060
600060
600060
7FFFE0
7FFFE0
000060
000060
ENDCHAR
STARTCHAR  4E00
ENCODING  19968
SWIDTH  1000 0
DWIDTH  30 0
BBX  29 2 1 13
BITMAP
FFFFFFF8
FFFFFFF8
ENDCHAR
STARTCHAR  4E01
ENCODING  19969
SWIDTH  1000 0
DWIDTH  30 0
BBX  28 25 1 -1
BITMAP
FFFFFFF0
FFFFFFF0
00030000
00030000
00030000
00030000
00030000
00030000
00030000
00030000
00030000
00030000
00030000
00030000
00030000
00030000
00030000
00030000
00030000
00030000
00030000
00030000
00030000
03FF0000
03FE0000
ENDCHAR
STARTCHAR  4E03
ENCODING  19971
SWIDTH  1000 0
DWIDTH  30 0
BBX  28 28 1 -1
BITMAP
00180000
00180000
00180000
00180000
00180000
00180000
00180000
00180000
00180000
00180000
001FFFF0
FFFFFFF0
FFF80000
00180000
00180000
00180000
00180000
00180000
00180000
00180060
00180060
00180060
00180060
00180060
00180060
00180060
001FFFE0
000FFFC0
ENDCHAR
STARTCHAR  4E07
ENCODING  19975
SWIDTH  1000 0
DWIDTH  30 0
BBX  28 26 1 -2
BITMAP
FFFFFFF0
FFFFFFF0
00C00000
00C00000
00C00000
00C00000
00C00000
00C00000
00FFFF80
00FFFF80
00C00300
00C00300
00C00300
00C00300
01C00300
01C00300
03800300
03800300
07000300
07000300
0E000300
1C000700
3C0C0E00
F80FFE00
E007FC00
40000000
ENDCHAR
STARTCHAR  4E08
ENCODING  19976
SWIDTH  1000 0
DWIDTH  30 0
BBX  28 29 1 -2
BITMAP
00006000
00006000
00006000
00006000
00006000
00006000
FFFFFFF0
FFFFFFF0
00006000
06006000
06006000
07006000
03006000
0380E000
01C0C000
01C1C000
00E1C000
00738000
003B8000
003F0000
001F0000
001F0000
003BC000
00F1F000
03E07E00
1F801FE0
7E0007F0
F00000E0
40000000
ENDCHAR
STARTCHAR  4E09
ENCODING  19977
SWIDTH  1000 0
DWIDTH  30 0
BBX  28 23 1 1
BITMAP
7FFFFFC0
7FFFFFC0
00000000
00000000
00000000
00000000
00000000
00000000
00000000
00000000
1FFFFF80
1FFFFF80
00000000
00000000
00000000
00000000
00000000
00000000
00000000
00000000
00000000
FFFFFFF0
FFFFFFF0
ENDCHAR
STARTCHAR  4E0A
ENCODING  19978
SWIDTH  1000 0
DWIDTH  30 0
BBX  29 26 1 0
BITMAP
000C0000
000C0000
000C0000
000C0000
000C0000
000C0000
000C0000
000C0000
000C0000
000FFFC0
000FFFC0
000C0000
000C0000
000C0000
000C0000
000C0000
000C0000
000C0000
000C0000
000C0000
000C0000
000C0000
000C0000
000C0000
FFFFFFF8
FFFFFFF8
ENDCHAR
STARTCHAR  4E0B
ENCODING  19979
SWIDTH  1000 0
DWIDTH  30 0
BBX  28 26 1 -2
BITMAP
FFFFFFF0
FFFFFFF0
000C0000
000C0000
000C0000
000C0000
000C0000
000CC000
000CE000
000C7000
000C3800
000C1C00
000C0E00
000C0700
000C0380
000C0180
000C0000
000C0000
000C0000
000C0000
000C0000
000C0000
000C0000
000C0000
000C0000
000C0000
ENDCHAR
STARTCHAR  4E0C
ENCODING  19980
SWIDTH  1000 0
DWIDTH  30 0
BBX  30 27 0 -2
BITMAP
00000000
7FFFFFFC
7FFFFFFC
00C00C00
00C00C00
00C00C00
00C00C00
00C00C00
00C00C00
00C00C00
00C00C00
00C00C00
00C00C00
00C00C00
00C00C00
00C00C00
01C00C00
01C00C00
01800C00
03800C00
03800C00
07000C00
0E000C00
1E000C00
7C000C00
38000C00
20000C00
ENDCHAR
STARTCHAR  4E0D
ENCODING  19981
SWIDTH  1000 0
DWIDTH  30 0
BBX  28 26 1 -2
BITMAP
FFFFFFF0
FFFFFFF0
0001C000
00038000
00070000
000E0000
001C0000
00380000
007C0000
00EC6000
01CC7000
038C3800
070C1C00
0E0C0E00
1C0C0700
380C0380
700C01C0
E00C00E0
C00C0000
000C0000
000C0000
000C0000
000C0000
000C0000
000C0000
000C0000
ENDCHAR
STARTCHAR  4E0E
ENCODING  19982
SWIDTH  1000 0
DWIDTH  30 0
BBX  29 28 0 -1
BITMAP
03000000
03000000
03000000
03000000
03000000
03FFFFF8
03FFFFF8
03000000
03000000
03000000
03000000
03000000
03FFFFE0
03FFFFE0
00000060
00000060
00000060
00000060
00000060
FFFFFC60
FFFFFC60
00000060
00000060
00000060
00000060
000000E0
0003FFC0
0003FF80
ENDCHAR
STARTCHAR  4E10
ENCODING  19984
SWIDTH  1000 0
DWIDTH  30 0
BBX  28 26 1 -1
BITMAP
FFFFFFF0
FFFFFFF0
00060000
00060000
18060000
18060000
1807FF80
1807FF80
18060000
18060000
18060000
18060000
18060000
1FFFFFC0
1FFFFFC0
000000C0
000000C0
000000C0
000000C0
000000C0
000000C0
000000C0
000000C0
000001C0
0003FF80
0003FF00
ENDCHAR
STARTCHAR  4E11
ENCODING  19985
SWIDTH  1000 0
DWIDTH  30 0
BBX  29 25 1 0
BITMAP
3FFFFF00
3FFFFF00
00300300
00300300
00300300
00300300
00300300
00300300
00300300
00300300
00300300
3FFFFF00
3FFFFF00
00600600
00600600
00600600
00600600
00600600
00600600
00600600
00600600
00600600
00600600
FFFFFFF8
FFFFFFF8
ENDCHAR
STARTCHAR  4E13
ENCODING  19987
SWIDTH  1000 0
DWIDTH  30 0
BBX  29 29 1 -2
BITMAP
00300000
00300000
00600000
00600000
3FFFFFE0
3FFFFFE0
00C00000
00C00000
01800000
01800000
FFFFFFF8
FFFFFFF8
03000000
06000000
06000000
0E000000
0FFFFF80
0FFFFF80
00000700
00000E00
03001C00
03C03800
03F07000
007DE000
001FC000
0007C000
0001F000
00007800
00001000
ENDCHAR
STARTCHAR  4E14
ENCODING  19988
SWIDTH  1000 0
DWIDTH  30 0
BBX  30 27 0 -1
BITMAP
00000000
0FFFFF80
0FFFFF80
0C000180
0C000180
0C000180
0C000180
0C000180
0C000180
0FFFFF80
0FFFFF80
0C000180
0C000180
0C000180
0C000180
0C000180
0FFFFF80
0FFFFF80
0C000180
0C000180
0C000180
0C000180
0C000180
0C000180
FFFFFFF8
FFFFFFF8
00000000
ENDCHAR
STARTCHAR  4E15
ENCODING  19989
SWIDTH  1000 0
DWIDTH  30 0
BBX  30 27 0 -1
BITMAP
00000000
7FFFFFF8
7FFFFFF8
00038000
00038000
00070000
000E0000
000E0000
001F0000
003F0000
00773800
00F73E00
01E71F00
03C707C0
078703E0
1F0700F8
3C070078
78070018
70070000
00070000
00070000
00070000
00070000
00000000
7FFFFFF8
7FFFFFF8
00000000
ENDCHAR
STARTCHAR  4E16
ENCODING  19990
SWIDTH  1000 0
DWIDTH  30 0
BBX  30 28 0 -1
BITMAP
00000000
00060180
06060180
06060180
06060180
06060180
06060180
06060180
7FFFFFF8
7FFFFFF8
06060180
06060180
06060180
06060180
06060180
06060180
06060180
06060180
0607FF80
0607FF80
06060180
06060180
06000000
06000000
06000000
06000000
07FFFFF8
07FFFFF8
ENDCHAR
STARTCHAR  4E18
ENCODING  19992
SWIDTH  1000 0
DWIDTH  30 0
BBX  30 27 0 0
BITMAP
00000000
00007FC0
03FFFFC0
03FFF000
03000000
03000000
03000000
03000000
03000000
03000000
03000000
03FFFFF0
03FFFFF0
03001800
03001800
03001800
03001800
03001800
03001800
03001800
03001800
03001800
03001800
03001800
03001800
7FFFFFF8
7FFFFFF8
ENDCHAR
STARTCHAR  4E19
ENCODING  19993
SWIDTH  1000 0
DWIDTH  30 0
BBX  30 28 0 -2
BITMAP
00000000
7FFFFFF8
7FFFFFF8
00030000
00030000
00030000
00030000
1FFFFFE0
1FFFFFE0
18030060
18030060
18070060
18070060
180FC060
180EE060
181C7060
18383860
18701C60
19F00E60
1BC00E60
19800460
18000060
18000060
18000060
180000E0
18003FE0
18003FC0
18000000
ENDCHAR
STARTCHAR  4E1A
ENCODING  19994
SWIDTH  1000 0
DWIDTH  30 0
BBX  29 27 1 0
BITMAP
00000000
00306000
00306000
00306000
00306000
00306000
00306000
70306070
30306060
383060E0
183060E0
1C3060C0
1C3061C0
0C306180
0E306380
0E306380
06306700
07306700
07306600
00306200
00306000
00306000
00306000
00306000
00306000
FFFFFFF8
FFFFFFF8
ENDCHAR
STARTCHAR  4E1B
ENCODING  19995
SWIDTH  1000 0
DWIDTH  30 0
BBX  30 28 0 -1
BITMAP
00C01800
00C01800
00C01800
00C01800
00C01800
00C01800
00C01800
00C01800
00C01800
01C01C00
01C03C00
01C03C00
01E03E00
01F03600
03B87600
031C6700
070CE300
0600E380
0E01C1C0
0C0381C0
1C0780F0
380F0078
701E0038
300C0010
00080000
7FFFFFF8
7FFFFFF8
00000000
ENDCHAR
STARTCHAR  4E1C
ENCODING  19996
SWIDTH  1000 0
DWIDTH  30 0
BBX  30 30 0 -2
BITMAP
00000000
00700000
00700000
00E00000
00E00000
7FFFFFF8
7FFFFFF8
01800000
03818000
03818000
07018000
07018000
06018000
0E018000
0C018000
0FFFFFF0
0FFFFFF0
00018000
00018000
01818000
03C18600
07818700
070183C0
0E0181E0
1C0180F0
38018078
7003801C
607F8008
007F0000
00000000
ENDCHAR
STARTCHAR  4E1D
ENCODING  19997
SWIDTH  1000 0
DWIDTH  30 0
BBX  29 27 1 0
BITMAP
01000800
01801C00
03801C00
03003800
07003000
0E007000
0C1860C0
1C38E1C0
3831C1C0
70738380
FFE7FF00
7FC7FF00
01C00E00
03801C00
03001800
07003800
0E007000
1C00E000
3FFBFFE0
3FFBFFE0
00000000
00000000
00000000
00000000
00000000
FFFFFFF8
FFFFFFF8
ENDCHAR
STARTCHAR  4E1E
ENCODING  19998
SWIDTH  1000 0
DWIDTH  30 0
BBX  30 27 0 -1
BITMAP
00000000
0FFFFFC0
0FFFFFC0
00000780
00001E00
00007800
0001E000
3FF1C030
3FF1E070
0071F1E0
0061B380
00E19F00
00C19E00
01C18E00
03818700
07018780
0E0183C0
1E0181E0
3C0180F8
78018038
70038018
007F0000
007E0000
00000000
7FFFFFFC
7FFFFFFC
00000000
ENDCHAR
STARTCHAR  4E22
ENCODING  20002
SWIDTH  1000 0
DWIDTH  30 0
BBX  28 27 1 -2
BITMAP
0007FFC0
3FFFFFC0
3FFE0000
00060000
00060000
00060000
00060000
3FFFFFE0
3FFFFFE0
00060000
00060000
00060000
00060000
00060000
FFFFFFF0
FFFFFFF0
00380000
00700000
00707000
00E03800
01C01C00
03800E00
0F000700
1FFFFF80
3FFFFFC0
1E0000E0
000000C0
ENDCHAR
STARTCHAR  4E24
ENCODING  20004
SWIDTH  1000 0
DWIDTH  30 0
BBX  30 28 0 -2
BITMAP
00000000
7FFFFFF8
7FFFFFF8
00303000
00303000
00303000
00303000
1FFFFFE0
1FFFFFE0
18303060
18303060
18303060
18303060
18707060
18787060
187C7860
18EEFC60
18C6CE60
19C1C760
1B8183E0
1F038160
1A070060
18020060
18000060
18000060
18001FE0
18001FC0
00000000
ENDCHAR
STARTCHAR  4E25
ENCODING  20005
SWIDTH  1000 0
DWIDTH  30 0
BBX  30 28 0 -2
BITMAP
00000000
7FFFFFF8
7FFFFFF8
00183000
0C183040
1C1830E0
0E1831C0
07183380
03183380
02183100
00183000
1FFFFFF8
1FFFFFF8
18000000
18000000
18000000
18000000
18000000
18000000
18000000
38000000
38000000
30000000
70000000
70000000
E0000000
60000000
00000000
ENDCHAR
STARTCHAR  4E27
ENCODING  20007
SWIDTH  1000 0
DWIDTH  30 0
BBX  29 31 1 -3
BITMAP
00000000
00060000
00060000
00060000
7FFFFFF0
7FFFFFF0
00060000
0C060180
0E060380
07060700
07860E00
03C61C00
01861800
00060000
FFFFFFF8
FFFFFFF8
061C0000
060C0080
060E01C0
060607C0
06071F00
0603FC00
0601F000
0600F000
06067C00
063E3F00
07FC0FE0
0FF003F8
07800070
04000000
00000000
ENDCHAR
STARTCHAR  4E28
ENCODING  20008
SWIDTH  1000 0
DWIDTH  30 0
BBX  3 29 14 -2
BITMAP
00
E0
E0
E0
E0
E0
E0
E0
E0
E0
E0
E0
E0
E0
E0
E0
E0
E0
E0
E0
E0
E0
E0
E0
E0
E0
E0
E0
E0
ENDCHAR
STARTCHAR  4E2A
ENCODING  20010
SWIDTH  1000 0
DWIDTH  30 0
BBX  28 28 0 -2
BITMAP
000E0000
001F0000
001F0000
003B8000
0071C000
00E0E000
01C07000
03803800
07001C00
0E000E00
1C060700
380603C0
F00600F0
C0060060
80060000
00060000
00060000
00060000
00060000
00060000
00060000
00060000
00060000
00060000
00060000
00060000
00060000
00060000
ENDCHAR
STARTCHAR  4E2B
ENCODING  20011
SWIDTH  1000 0
DWIDTH  30 0
BBX  24 28 2 -2
BITMAP
C00002
E00007
70000E
38001C
1C0038
0E0070
0700E0
038180
018300
000000
001800
001800
001800
001800
001800
001800
001800
001800
001800
001800
001800
001800
001800
001800
001800
001800
001800
001800
ENDCHAR
STARTCHAR  4E2C
ENCODING  20012
SWIDTH  1000 0
DWIDTH  30 0
BBX  12 29 7 -2
BITMAP
0030
0030
0030
2030
6030
7030
3830
1C30
0E30
0630
0630
0030
0030
0030
0030
00F0
01F0
07F0
0F30
3E30
F830
F030
C030
0030
0030
0030
0030
0030
0030
ENDCHAR
STARTCHAR  4E2D
ENCODING  20013
SWIDTH  1000 0
DWIDTH  30 0
BBX  24 29 3 -2
BITMAP
001800
001800
001800
001800
001800
001800
FFFFFF
FFFFFF
C01803
C01803
C01803
C01803
C01803
C01803
C01803
C01803
FFFFFF
FFFFFF
C01803
001800
001800
001800
001800
001800
001800
001800
001800
001800
001800
ENDCHAR
STARTCHAR  4E30
ENCODING  20016
SWIDTH  1000 0
DWIDTH  30 0
BBX  29 29 1 -2
BITMAP
00060000
00060000
00060000
00060000
00060000
7FFFFFF0
7FFFFFF0
00060000
00060000
00060000
00060000
00060000
1FFFFFC0
1FFFFFC0
00060000
00060000
00060000
00060000
00060000
FFFFFFF8
FFFFFFF8
00060000
00060000
00060000
00060000
00060000
00060000
00060000
00060000
ENDCHAR
STARTCHAR  4E32
ENCODING  20018
SWIDTH  1000 0
DWIDTH  30 0
BBX  26 29 2 -2
BITMAP
000C0000
000C0000
000C0000
000C0000
3FFFFF00
3FFFFF00
300C0300
300C0300
300C0300
300C0300
3FFFFF00
3FFFFF00
300C0300
000C0000
000C0000
7FFFFFC0
7FFFFFC0
600C00C0
600C00C0
600C00C0
600C00C0
7FFFFFC0
7FFFFFC0
600C00C0
600C00C0
000C0000
000C0000
000C0000
000C0000
ENDCHAR
STARTCHAR  4E34
ENCODING  20020
SWIDTH  1000 0
DWIDTH  30 0
BBX  29 30 1 -2
BITMAP
00000000
03018000
03038000
03030000
63070000
6307FFF0
630FFFF0
630E0000
631C6000
63387000
63383800
63301C00
63000C00
63000000
630FFFE0
630FFFE0
630C3060
630C3060
630C3060
630C3060
630C3060
630C3060
630C3060
630C3060
630C3060
630C3060
630FFFE0
030FFFE0
030C0060
03000000
ENDCHAR
STARTCHAR  4E36
ENCODING  20022
SWIDTH  1000 0
DWIDTH  30 0
BBX  10 10 5 8
BITMAP
C000
E000
7000
3800
1C00
0E00
0700
0380
01C0
00C0
ENDCHAR
STARTCHAR  4E38
ENCODING  20024
SWIDTH  1000 0
DWIDTH  30 0
BBX  28 29 1 -2
BITMAP
00600000
00600000
00600000
00600000
00600000
00600000
7FFFF800
7FFFF800
00601800
00601800
00601800
00601800
70601800
7C601800
1E601800
07E01800
03E01800
00F81800
01FC1800
01DF1820
03861830
03821830
07001830
0E001830
1E001830
3C001C70
F8001FF0
E0000FE0
40000000
ENDCHAR
STARTCHAR  4E39
ENCODING  20025
SWIDTH  1000 0
DWIDTH  30 0
BBX  30 28 0 -2
BITMAP
07FFFF00
07FFFF00
06000300
06000300
060C0300
061C0300
060E0300
06070300
06038300
06018300
06010300
06000300
06000300
FFFFFFF8
FFFFFFF8
06000300
06000300
06000300
0E000300
0E000300
0C000300
0C000300
1C000300
1C000300
38000700
7800FF00
7000FE00
20000000
ENDCHAR
STARTCHAR  4E3A
ENCODING  20026
SWIDTH  1000 0
DWIDTH  30 0
BBX  27 29 1 -2
BITMAP
000C0000
180C0000
1C0C0000
0E0C0000
070C0000
030C0000
000C0000
000C0000
7FFFFFE0
7FFFFFC0
001C00C0
001C00C0
001800C0
003800C0
003980C0
0031C0C0
0070E0C0
007070C0
00E078C0
00E038C0
01C010C0
03C000C0
078000C0
070000C0
1E0001C0
3C038380
7801FF80
F001FE00
60000000
ENDCHAR
STARTCHAR  4E3B
ENCODING  20027
SWIDTH  1000 0
DWIDTH  30 0
BBX  28 26 1 0
BITMAP
000E0000
000E0000
00070000
00038000
00000000
7FFFFFC0
7FFFFFC0
00060000
00060000
00060000
00060000
00060000
00060000
3FFFFF80
3FFFFF80
00060000
00060000
00060000
00060000
00060000
00060000
00060000
00060000
00060000
FFFFFFF0
FFFFFFF0
ENDCHAR
STARTCHAR  4E3D
ENCODING  20029
SWIDTH  1000 0
DWIDTH  30 0
BBX  30 29 0 -3
BITMAP
00000000
7FFFFFF8
7FFFFFF8
00000000
00000000
00000000
1FF8FFE0
1FF8FFE0
1818C060
1818C060
1818C060
1818C860
1B18CC60
1B18CC60
1998CE60
1998C660
1998C660
18D8C760
1898C060
1818C060
1818C060
1818C060
1818C060
1818C060
1818C060
1BF8CFE0
19F0CFC0
1800C000
00000000
ENDCHAR
STARTCHAR  4E3E
ENCODING  20030
SWIDTH  1000 0
DWIDTH  30 0
BBX  30 31 0 -3
BITMAP
00000000
000C0180
0C0E03C0
0E070380
07030700
03838E00
03000C00
00000400
7FFFFFF8
7FFFFFF8
00E01800
00E01C00
01C30C00
03830700
07030780
0E0303C0
3DFFFCF0
F9FFFC78
70030010
00030000
00030000
00030000
3FFFFFF0
3FFFFFF0
00030000
00030000
00030000
00030000
00030000
00030000
00000000
ENDCHAR
STARTCHAR  4E3F
ENCODING  20031
SWIDTH  1000 0
DWIDTH  30 0
BBX  14 29 6 -2
BITMAP
0000
0038
0038
0038
0038
0038
0038
0038
0038
0038
0038
0038
0038
0038
0038
0038
0038
0030
0070
0070
00E0
00E0
01C0
03C0
0F80
1F00
7E00
3800
1000
ENDCHAR
STARTCHAR  4E43
ENCODING  20035
SWIDTH  1000 0
DWIDTH  30 0
BBX  26 27 1 -2
BITMAP
FFFFFE00
FFFFFE00
01800C00
01801C00
01803800
01803800
01807000
01807000
0180E000
0180FFC0
0180FFC0
018000C0
018000C0
018000C0
018000C0
038000C0
038000C0
030000C0
070000C0
070000C0
060001C0
0E0001C0
1C000180
38060780
F003FF00
E003FE00
40000000
ENDCHAR
STARTCHAR  4E45
ENCODING  20037
SWIDTH  1000 0
DWIDTH  30 0
BBX  30 30 0 -2
BITMAP
00000000
00700000
00700000
00600000
00E00000
00FFF800
01FFF800
01803800
03803800
07003000
07007000
0E007000
1C006000
3800E000
0001C000
0001C000
0003E000
0007E000
00077000
000E3000
001C3800
00781C00
00F00E00
01E00F00
07C00780
0F8003E0
3E0001F8
7C000078
70000030
00000000
ENDCHAR
STARTCHAR  4E47
ENCODING  20039
SWIDTH  1000 0
DWIDTH  30 0
BBX  30 28 0 -2
BITMAP
00000000
00000FE0
1FFFFFE0
1FFFFF80
1F860000
00060000
00060000
00060000
00060000
00060000
00060000
00060FF8
00FFFFF8
7FFFFF80
7FFE0000
00060000
00060000
00060000
00060038
00060038
00060038
00060030
00060030
00060070
000780F0
0007FFE0
0001FFC0
00000000
ENDCHAR
STARTCHAR  4E48
ENCODING  20040
SWIDTH  1000 0
DWIDTH  30 0
BBX  30 30 0 -2
BITMAP
00000000
00060000
00070000
000E0000
000E0000
001C0000
00380000
00781C00
00F01C00
00E03800
01C07800
03807000
0780E000
0F01C000
1E03C000
7C038000
F0070000
600E0C00
001C0E00
003C0700
00780780
00F00380
00E001C0
01C001E0
078000E0
0FFFFFF0
1FFFFFF0
0FF80038
00000030
00000000
ENDCHAR
STARTCHAR  4E49
ENCODING  20041
SWIDTH  1000 0
DWIDTH  30 0
BBX  30 30 0 -2
BITMAP
00000000
00040000
000E0000
02060180
06070180
06030380
07038380
07018300
03010300
03800700
03800700
01C00600
01C00E00
00C00C00
00E01C00
00703800
00703800
00387000
001CE000
001FE000
000FC000
00078000
000FC000
003FF000
00F87C00
03F03F80
0FC00FF0
7F0003F8
7C000070
20000000
ENDCHAR
STARTCHAR  4E4B
ENCODING  20043
SWIDTH  1000 0
DWIDTH  30 0
BBX  31 29 0 -2
BITMAP
00020000
00070000
00038000
00038000
0001C000
00010000
1FFFFFE0
1FFFFFE0
000001E0
000003C0
00000780
00000F00
00001C00
00003800
0000F000
0001E000
0003C000
000F0000
001E0000
007C0000
00F00000
07E00000
0F800000
1F800000
39E00000
70FC0000
603FFFFC
000FFFF8
00000000
ENDCHAR
STARTCHAR  4E4C
ENCODING  20044
SWIDTH  1000 0
DWIDTH  30 0
BBX  28 30 0 -2
BITMAP
00000000
000E0000
000C0000
001C0000
07FFFF00
07FFFF00
06000300
06000300
06000300
06000300
06000700
0601FE00
0601FC00
06000000
06000000
06000000
07FFFFE0
07FFFFE0
00000060
00000060
00000060
FFFFFC60
FFFFFC60
00000060
000000E0
000000E0
000001E0
0001FFC0
0000FF80
00000000
ENDCHAR
STARTCHAR  4E4D
ENCODING  20045
SWIDTH  1000 0
DWIDTH  30 0
BBX  29 29 0 -2
BITMAP
00C00000
00C00000
01C00000
01C00000
03FFFFF8
03FFFFF8
070C0000
060C0000
0E0C0000
1C0C0000
380C0000
780FFFE0
700FFFE0
200C0000
000C0000
000C0000
000C0000
000C0000
000C0000
000FFFF0
000FFFF0
000C0000
000C0000
000C0000
000C0000
000C0000
000C0000
000C0000
000C0000
ENDCHAR
STARTCHAR  4E4E
ENCODING  20046
SWIDTH  1000 0
DWIDTH  30 0
BBX  30 29 0 -2
BITMAP
00000000
00003FE0
7FFFFFE0
3FFFFC00
00030000
00030000
0C030180
0E0303C0
0E030380
07030700
03830E00
03C30E00
01830C00
00030000
00030000
FFFFFFF8
FFFFFFF8
00030000
00030000
00030000
00030000
00030000
00030000
00030000
00070000
00070000
01FF0000
01FE0000
00000000
ENDCHAR
STARTCHAR  4E4F
ENCODING  20047
SWIDTH  1000 0
DWIDTH  30 0
BBX  29 27 0 -2
BITMAP
0000FFE0
3FFFFFE0
3FFF0000
00040000
000E0000
000F0000
00078000
00030000
00000000
1FFFFFE0
1FFFFFE0
000003C0
00000F80
00003E00
0000F800
0003E000
000F8000
003E0000
007C0000
01F00000
0FC00000
1F000000
3B800000
71E00000
E0FFFFF8
403FFFF8
40000000
ENDCHAR
STARTCHAR  4E50
ENCODING  20048
SWIDTH  1000 0
DWIDTH  30 0
BBX  29 27 0 -1
BITMAP
00007FC0
0FFFFFC0
0FFF8000
0C000000
0C000000
0C030000
0C030000
0C030000
0C030000
0C030000
0C030000
0C030000
0FFFFFF0
0FFFFFF0
00030000
00030000
01830400
01C30E00
03830700
07030380
0E0301C0
1C0300E0
38030070
70030038
E0030018
40FF0000
007E0000
ENDCHAR
STARTCHAR  4E52
ENCODING  20050
SWIDTH  1000 0
DWIDTH  30 0
BBX  29 29 1 -2
BITMAP
00000000
00007F00
07FFFF80
07FFF000
06000000
06000000
06000000
06000000
06000000
07FFFFE0
07FFFFE0
06003000
06003000
06003000
06003000
06003000
06003000
06003000
FFFFFFF8
FFFFFFF8
00000000
00600000
00F00000
01C00000
07800000
1F000000
3C000000
78000000
20000000
ENDCHAR
STARTCHAR  4E53
ENCODING  20051
SWIDTH  1000 0
DWIDTH  30 0
BBX  29 29 1 -2
BITMAP
00000000
00007F00
07FFFF80
07FFF000
06000000
06000000
06000000
06000000
06000000
07FFFFE0
07FFFFE0
06003000
06003000
06003000
06003000
06003000
06003000
06003000
FFFFFFF8
FFFFFFF8
00000000
00004000
0000F000
00003C00
00001E00
00000780
000003C0
000001C0
00000040
ENDCHAR
STARTCHAR  4E54
ENCODING  20052
SWIDTH  1000 0
DWIDTH  30 0
BBX  29 27 0 -2
BITMAP
1FFFFFE0
1FFFFFE0
00030000
00030000
00030000
00070000
00060000
7FFFFFF8
7FFFFFF8
001C6000
00383000
00703800
01E01E00
07C00F80
1F0003E0
FE6019F8
78601838
00601800
00601800
00E01800
00E01800
01C01800
01C01800
07801800
0F001800
3E001800
18001800
ENDCHAR
STARTCHAR  4E56
ENCODING  20054
SWIDTH  1000 0
DWIDTH  30 0
BBX  30 29 0 -2
BITMAP
00000000
03FFFFE0
1FFFFFE0
1C030000
00030000
00030000
00030000
7FFFFFF8
7FFFFFF8
00030000
00030000
00C30C00
00C30C00
00C30C30
7FC30CF8
7FC30FE0
00C30F00
00C30C00
00C30C10
01C30C18
1FC30C18
7FC30C18
70C30FF8
00C307F0
00C30000
00030000
00030000
00030000
00030000
ENDCHAR
STARTCHAR  4E58
ENCODING  20056
SWIDTH  1000 0
DWIDTH  30 0
BBX  28 28 1 -2
BITMAP
0007FFC0
3FFFFFC0
3FFE0000
00060000
00060000
FFFFFFF0
FFFFFFF0
00060000
00060000
01861800
7F861BF0
7F861FF0
01861C00
01861830
018F1830
038F1830
7F9F9C70
FFBFDFE0
C1F6EFC0
00F67000
01E67800
03C63C00
0F861F00
1E0607C0
FC0603F0
F00600F0
40060000
00060000
ENDCHAR
STARTCHAR  4E59
ENCODING  20057
SWIDTH  1000 0
DWIDTH  30 0
BBX  28 26 2 -1
BITMAP
00000000
7FFFFE00
7FFFFE00
00003E00
00007800
0000F000
0003E000
00078000
000F0000
001E0000
00780000
00F00000
01E00000
03C00000
07000000
1E0000C0
3C0000E0
780000E0
700000E0
E00000E0
E00000C0
E00001C0
F00003C0
7FFFFF80
3FFFFF00
00000000
ENDCHAR
STARTCHAR  4E5B
ENCODING  20059
SWIDTH  1000 0
DWIDTH  30 0
BBX  27 11 2 14
BITMAP
00000000
FFFFFFC0
FFFFFFC0
000001C0
00000380
00000380
00000700
00000700
00000E00
00000600
00000000
ENDCHAR
STARTCHAR  4E5C
ENCODING  20060
SWIDTH  1000 0
DWIDTH  30 0
BBX  30 28 0 -1
BITMAP
00000000
03000000
03000000
03000000
03000000
030007C0
03007FC0
0307FEC0
03FFE1C0
0FFC01C0
FFC001C0
7F0001C0
030001C0
030001C0
030001C0
03000180
03030380
0301FF00
0301FE00
03000010
0300001C
0300001C
03000018
03000018
03800038
03C000F8
01FFFFF0
00FFFFE0
ENDCHAR
STARTCHAR  4E5D
ENCODING  20061
SWIDTH  1000 0
DWIDTH  30 0
BBX  27 29 1 -2
BITMAP
00C00000
00C00000
00C00000
00C00000
00C00000
00C00000
FFFFE000
FFFFE000
00C06000
00C06000
00C06000
00C06000
00C06000
00C06000
00C06000
00C06000
00C06000
01C06000
01C06000
03C06000
03806060
07006060
0F006060
0E006060
1C006060
780070E0
F0007FC0
E0003F80
40000000
ENDCHAR
STARTCHAR  4E5E
ENCODING  20062
SWIDTH  1000 0
DWIDTH  30 0
BBX  29 28 0 -1
BITMAP
00800000
01C00000
01C00000
03800000
03FFFFF8
07FFFFF8
0E000000
0C000000
1C000000
38000000
70000000
23FFFF00
03FFFF00
00003E00
0000F800
0001F000
0007C000
001F0000
003C0000
00F80030
01E00038
03C00030
07000030
0E000030
0E000070
0F0001E0
07FFFFE0
03FFFF80
ENDCHAR
STARTCHAR  4E5F
ENCODING  20063
SWIDTH  1000 0
DWIDTH  30 0
BBX  30 28 0 -1
BITMAP
00030000
00030000
00030000
00030000
06030000
06030000
06030FC0
0603FFC0
067FFCC0
0FFF00C0
7FC300C0
7E0300C0
060300C0
060300C0
060300C0
060300C0
060301C0
06033F80
06033F00
06030018
06030018
06030018
06000018
06000038
06000038
07000070
03FFFFF0
01FFFFC0
ENDCHAR
STARTCHAR  4E60
ENCODING  20064
SWIDTH  1000 0
DWIDTH  30 0
BBX  24 25 2 -1
BITMAP
FFFFFF
FFFFFF
000003
000003
080003
0E0003
0F8003
03E003
00FC03
003C03
000C03
000003
000073
0003F3
001FC3
00FE03
07F003
7F8003
FC0003
E00003
000003
000003
000007
000FFE
000FFC
ENDCHAR
STARTCHAR  4E61
ENCODING  20065
SWIDTH  1000 0
DWIDTH  30 0
BBX  25 29 1 -1
BITMAP
00040000
000E0000
001C0000
00380000
00700E00
00E00E00
01C01C00
03803800
0F007000
1FFFE000
1FFFC000
00078000
000E0180
001C0180
00780380
00E00380
03C00700
07807F00
1FFFFE00
1FFF1C00
00003800
00007000
0001E000
0003C000
001F8000
007E0000
07F80000
FFC00000
7E000000
ENDCHAR
STARTCHAR  4E66
ENCODING  20070
SWIDTH  1000 0
DWIDTH  30 0
BBX  28 29 0 -2
BITMAP
000C0000
000C0300
000C0380
000C01E0
000C0060
1FFFFF00
1FFFFF00
000C0300
000C0300
000C0300
000C0300
000C0300
000C0300
000C0700
FFFFFFE0
FFFFFFE0
000C0060
000C0060
000C0060
000C0060
000C0060
000C0060
000C00E0
000C3FC0
000C3F80
000C0000
000C0000
000C0000
000C0000
ENDCHAR
STARTCHAR  4E69
ENCODING  20073
SWIDTH  1000 0
DWIDTH  30 0
BBX  29 29 1 -2
BITMAP
03003000
03003000
03003000
03003000
03003000
03003000
03FE3000
03FE3000
03003000
03003000
03003000
03003000
03003000
03003000
03003000
7FFC3000
7FFC3000
600C3000
600C3000
600C3030
600C3038
600C3038
600C3038
600C3030
600C3030
7FFC3870
7FFC3FF0
600C1FE0
00000000
ENDCHAR
STARTCHAR  4E70
ENCODING  20080
SWIDTH  1000 0
DWIDTH  30 0
BBX  30 28 0 -2
BITMAP
00000000
3FFFFFF0
3FFFFFF0
00000070
01006060
03C060E0
00F060C0
007861C0
001C6080
0C086000
0E006000
07806000
01E06000
00E0E000
0040E000
0000C000
7FFFFFF8
7FFFFFF8
00018000
0003C000
0007F000
000E7C00
003C1E00
00F80780
03F003E0
3FC000F8
3E000030
10000010
ENDCHAR
STARTCHAR  4E71
ENCODING  20081
SWIDTH  1000 0
DWIDTH  30 0
BBX  28 29 1 -2
BITMAP
00003000
007E3000
7FFE3000
7F803000
01803000
01803000
01803000
01803000
01803000
FFFF3000
FFFF3000
01803000
01803000
01803000
01803000
01803000
3FFC3000
3FFC3000
300C3000
300C3020
300C3030
300C3030
300C3030
300C3030
300C3030
3FFC3870
3FFC3FF0
300C1FE0
300C0000
ENDCHAR
STARTCHAR  4E73
ENCODING  20083
SWIDTH  1000 0
DWIDTH  30 0
BBX  28 28 1 -1
BITMAP
00003000
00FF3000
FFFF3000
FF003000
00043000
23063000
618E3000
718C3000
319C3000
38983000
00383000
7FFE3000
7FFE3000
001E3000
00383000
00F03000
01C03000
01803000
01FE3000
FFFE3030
FF803030
E1803030
01803030
01803030
01803030
01803870
3F803FF0
3F001FC0
ENDCHAR
STARTCHAR  4E7E
ENCODING  20094
SWIDTH  1000 0
DWIDTH  30 0
BBX  29 30 1 -3
BITMAP
00000000
0600E000
0600C000
FFF0C000
FFF1FFF0
0601FFF0
06038000
06030000
7FF70000
7FF60000
603E0000
6035FFC0
7FF1FFC0
7FF001C0
60300380
60300700
60300E00
7FF01C00
7FF03800
66307000
0600E010
0601C030
FFF98030
FFFB8030
06030030
06038070
0603FFE0
0601FFC0
06000000
00000000
ENDCHAR
STARTCHAR  4E86
ENCODING  20102
SWIDTH  1000 0
DWIDTH  30 0
BBX  26 26 2 -1
BITMAP
FFFFFFC0
FFFFFFC0
00000380
00000F00
00001E00
00007800
0000F000
0003C000
00038000
00070000
00060000
00060000
00060000
00060000
00060000
00060000
00060000
00060000
00060000
00060000
00060000
00060000
00060000
000E0000
07FC0000
07F80000
ENDCHAR
STARTCHAR  4E88
ENCODING  20104
SWIDTH  1000 0
DWIDTH  30 0
BBX  27 27 1 -2
BITMAP
1FFFFF80
1FFFFF80
00000F00
00803E00
01C07800
00F1F000
007BC000
001F8000
000F0000
00070000
FFFFFFE0
FFFFFFE0
000600E0
000600C0
000601C0
000601C0
00060180
00060180
00060000
00060000
00060000
00060000
00060000
000E0000
03FE0000
03FC0000
00000000
ENDCHAR
STARTCHAR  4E89
ENCODING  20105
SWIDTH  1000 0
DWIDTH  30 0
BBX  30 29 0 -2
BITMAP
00600000
00600000
00E00000
01FFFC00
03FFFC00
07001C00
0E003800
1C007000
3FFFFF80
77FFFF80
20030180
00030180
00030180
7FFFFFFC
7FFFFFFC
00030180
00030180
00030180
00030180
0FFFFF80
0FFFFF80
00030180
00030000
00030000
00030000
00070000
01FF0000
01FE0000
00000000
ENDCHAR
STARTCHAR  4E8B
ENCODING  20107
SWIDTH  1000 0
DWIDTH  30 0
BBX  30 30 0 -2
BITMAP
00000000
00030000
00030000
FFFFFFF8
FFFFFFF8
00030000
00030000
0FFFFF80
0FFFFF80
0C030180
0C030180
0FFFFF80
0FFFFF80
00030000
3FFFFFC0
3FFFFFC0
000300C0
000300C0
FFFFFFF8
FFFFFFF8
000300C0
000300C0
3FFFFFC0
3FFFFFC0
000300C0
00030000
00070000
00FF0000
00FE0000
00000000
ENDCHAR
STARTCHAR  4E8C
ENCODING  20108
SWIDTH  1000 0
DWIDTH  30 0
BBX  28 21 1 2
BITMAP
3FFFFFC0
3FFFFFC0
00000000
00000000
00000000
00000000
00000000
00000000
00000000
00000000
00000000
00000000
00000000
00000000
00000000
00000000
00000000
00000000
00000000
FFFFFFF0
FFFFFFF0
ENDCHAR
STARTCHAR  4E8D
ENCODING  20109
SWIDTH  1000 0
DWIDTH  30 0
BBX  29 26 1 -1
BITMAP
1FFFFFC0
1FFFFFC0
00000000
00000000
00000000
00000000
00000000
00000000
00000000
FFFFFFF8
FFFFFFF8
00030000
00030000
00030000
00030000
00030000
00030000
00030000
00030000
00030000
00030000
00030000
00030000
00070000
03FF0000
01FE0000
ENDCHAR
STARTCHAR  4E8E
ENCODING  20110
SWIDTH  1000 0
DWIDTH  30 0
BBX  29 27 1 -2
BITMAP
3FFFFFC0
3FFFFFC0
00030000
00030000
00030000
00030000
00030000
00030000
00030000
00030000
FFFFFFF8
FFFFFFF8
00030000
00030000
00030000
00030000
00030000
00030000
00030000
00030000
00030000
00030000
00030000
00070000
01FF0000
01FE0000
01F80000
ENDCHAR
STARTCHAR  4E8F
ENCODING  20111
SWIDTH  1000 0
DWIDTH  30 0
BBX  29 27 1 -2
BITMAP
1FFFFFC0
1FFFFFC0
00000000
00000000
00000000
00000000
00000000
FFFFFFF8
FFFFFFF8
01800000
03800000
03000000
07000000
07000000
07FFFF80
07FFFF80
00000180
00000380
00000380
00000380
00000380
00000300
00000300
00000700
000FFE00
000FFC00
00000000
ENDCHAR
STARTCHAR  4E91
ENCODING  20113
SWIDTH  1000 0
DWIDTH  30 0
BBX  29 27 1 -2
BITMAP
1FFFFFC0
1FFFFFC0
00000000
00000000
00000000
00000000
00000000
00000000
00000000
FFFFFFF8
FFFFFFF8
003C0000
00380000
00700000
00702000
00E07000
01C03800
01C01C00
03801C00
07000E00
0E000700
1E000380
3FFFFFC0
3FFFFFC0
180000E0
00000060
00000000
ENDCHAR
STARTCHAR  4E92
ENCODING  20114
SWIDTH  1000 0
DWIDTH  30 0
BBX  28 24 1 0
BITMAP
7FFFFFE0
7FFFFFE0
03000000
03000000
03000000
03000000
07FFFE00
07FFFE00
06000600
06000600
06000600
06000600
06000600
06000600
06000600
0FFFFE00
0FFFFE00
00000600
00000600
00000600
00000600
00000600
FFFFFFF0
FFFFFFF0
ENDCHAR
STARTCHAR  4E93
ENCODING  20115
SWIDTH  1000 0
DWIDTH  30 0
BBX  29 28 1 -3
BITMAP
1FFFFFC0
1FFFFFC0
00000000
00000000
00000000
00000000
00000000
00000000
00000000
FFFFFFF8
FFFFFFF8
00C01800
00C01800
00C01800
00C01800
00C01800
01C01800
01C01800
01801800
03801800
03801800
07001800
0F001800
1E001800
7C001800
70001800
20001800
00000000
ENDCHAR
STARTCHAR  4E94
ENCODING  20116
SWIDTH  1000 0
DWIDTH  30 0
BBX  29 25 1 0
BITMAP
7FFFFFF0
7FFFFFF0
00300000
00300000
00300000
00300000
00300000
00300000
00300000
00300000
3FFFFF00
3FFFFF00
00600300
00600300
00600300
00600300
00600300
00600300
00600300
00600300
00600300
00600300
00600300
FFFFFFF8
FFFFFFF8
ENDCHAR
STARTCHAR  4E95
ENCODING  20117
SWIDTH  1000 0
DWIDTH  30 0
BBX  29 29 1 -2
BITMAP
00C01800
00C01800
00C01800
00C01800
00C01800
00C01800
00C01800
7FFFFFF0
7FFFFFF0
00C01800
00C01800
00C01800
00C01800
00C01800
00C01800
00C01800
FFFFFFF8
FFFFFFF8
01C01800
01C01800
01801800
01801800
03801800
07001800
0F001800
1E001800
7C001800
78001800
20001800
ENDCHAR
STARTCHAR  4E98
ENCODING  20120
SWIDTH  1000 0
DWIDTH  30 0
BBX  28 25 1 0
BITMAP
7FFFFFE0
7FFFFFE0
00000000
00000000
00000000
0FFFFF00
0FFFFF00
0C000300
0C000300
0C000300
0C000300
0FFFFF00
0FFFFF00
0C000300
0C000300
0C000300
0C000300
0C000300
0FFFFF00
0FFFFF00
0C000300
00000000
00000000
FFFFFFF0
FFFFFFF0
ENDCHAR
STARTCHAR  4E9A
ENCODING  20122
SWIDTH  1000 0
DWIDTH  30 0
BBX  29 25 0 0
BITMAP
7FFFFFF0
7FFFFFF0
00306000
00306000
00306000
00306000
30306070
38306060
383060E0
183060E0
1C3060C0
0C3061C0
0E306180
0E306380
06306380
07306700
07306700
03306600
00306000
00306000
00306000
00306000
00306000
FFFFFFF8
FFFFFFF8
ENDCHAR
STARTCHAR  4E9B
ENCODING  20123
SWIDTH  1000 0
DWIDTH  30 0
BBX  30 28 0 -1
BITMAP
00003000
00603000
00603000
00603000
0C603030
0C6030F0
0C7F33C0
0C7F3F80
0C603E00
0C603800
0C60300C
0C60301C
0C603018
0C673018
0DFF3018
7FFC3FF0
7F001FE0
60000000
00000000
00000000
07FFFFC0
07FFFFC0
00000000
00000000
00000000
3FFFFFF8
3FFFFFF8
00000000
ENDCHAR
STARTCHAR  4E9F
ENCODING  20127
SWIDTH  1000 0
DWIDTH  30 0
BBX  29 27 1 -1
BITMAP
00000000
1FFFFF80
1FFFFF80
00000F00
00003C00
0001F000
00078000
3FC67FE0
3FC67FE0
30C60060
30C600C0
30C630C0
30C639C0
30C61D80
30C60F80
30C60700
30C60F80
3FC61FC0
3FC63DE0
3006F8F0
008EE060
00FE4000
00FC0000
00000000
FFFFFFF8
FFFFFFF8
00000000
ENDCHAR
STARTCHAR  4EA0
ENCODING  20128
SWIDTH  1000 0
DWIDTH  30 0
BBX  28 10 1 16
BITMAP
00180000
001C0000
000E0000
00070000
00038000
00018000
00000000
00000000
FFFFFFF0
FFFFFFF0
ENDCHAR
STARTCHAR  4EA1
ENCODING  20129
SWIDTH  1000 0
DWIDTH  30 0
BBX  29 27 0 0
BITMAP
00040000
000E0000
00070000
00038000
00038000
00010000
FFFFFFF8
FFFFFFF8
0C000000
0C000000
0C000000
0C000000
0C000000
0C000000
0C000000
0C000000
0C000000
0C000000
0C000000
0C000000
0C000000
0C000000
0C000000
0C000000
0C000000
0FFFFFE0
0FFFFFE0
ENDCHAR
STARTCHAR  4EA2
ENCODING  20130
SWIDTH  1000 0
DWIDTH  30 0
BBX  30 29 0 -2
BITMAP
00060000
000E0000
00070000
00070000
00020000
7FFFFFF0
7FFFFFF0
00000000
00000000
00000000
00000000
01FFF800
01FFF800
01801800
01801800
01801800
01801800
01801800
01801800
03801800
03801800
03001818
07001818
0E001818
0E001818
1C001C38
78001FF0
70000FF0
20000000
ENDCHAR
STARTCHAR  4EA4
ENCODING  20132
SWIDTH  1000 0
DWIDTH  30 0
BBX  30 30 0 -3
BITMAP
00020000
00070000
00070000
00038000
00030000
7FFFFFF8
7FFFFFF8
00000000
00400000
00E01C00
01E01E00
03C00700
07800380
0F0019C0
1EE01CF0
3C603870
30703820
00307000
00387000
001CE000
000FC000
00078000
000F8000
001FE000
007CF800
03F03F00
1FC00FF0
7F0003F8
38000070
00000000
ENDCHAR
STARTCHAR  4EA5
ENCODING  20133
SWIDTH  1000 0
DWIDTH  30 0
BBX  29 30 0 -2
BITMAP
00000000
00060000
00070000
00030000
00038000
7FFFFFF8
7FFFFFF8
00380000
00700000
00E01C00
01C03800
03803800
07007000
1FFFE180
0FFFC1C0
0E038380
000F0700
001E0700
007C0E00
01F01C00
07C07800
3F00F000
7C01F800
3007FC00
001F0F00
007E07C0
01F801E0
0FE000F0
0F000020
04000000
ENDCHAR
STARTCHAR  4EA6
ENCODING  20134
SWIDTH  1000 0
DWIDTH  30 0
BBX  30 31 0 -3
BITMAP
00000000
00020000
00070000
00070000
00038000
00010000
7FFFFFF8
7FFFFFF8
00303000
00303000
00303000
08303080
0E303380
0C3031C0
1C3030C0
183030E0
38703070
38703070
70603038
70603038
60E03018
00E03000
01C03000
01C03000
03803000
07003000
0E007000
3C0FF000
380FE000
30000000
00000000
ENDCHAR
STARTCHAR  4EA7
ENCODING  20135
SWIDTH  1000 0
DWIDTH  30 0
BBX  30 31 0 -3
BITMAP
00000000
00070000
00038000
00038000
7FFFFFF8
7FFFFFF8
00000000
00C00400
00E00E00
00E00C00
00701C00
00303800
00203000
0FFFFFF8
0FFFFFF8
0C000000
0C000000
0C000000
0C000000
0C000000
1C000000
1C000000
1C000000
1C000000
18000000
38000000
38000000
70000000
60000000
60000000
00000000
ENDCHAR
STARTCHAR  4EA8
ENCODING  20136
SWIDTH  1000 0
DWIDTH  30 0
BBX  28 29 1 -2
BITMAP
000E0000
00070000
00070000
FFFFFFF0
FFFFFFF0
00000000
00000000
00000000
0FFFFF00
0FFFFF00
0C000300
0C000300
0FFFFF00
0FFFFF00
0C000300
0C000300
00000000
7FFFFFC0
7FFFFFC0
00000F80
0000FE00
0003E000
00030000
00030000
00030000
00030000
00070000
01FF0000
01FE0000
ENDCHAR
STARTCHAR  4EA9
ENCODING  20137
SWIDTH  1000 0
DWIDTH  30 0
BBX  28 30 1 -2
BITMAP
00000000
00060000
00060000
00070000
00020000
FFFFFFF0
FFFFFFF0
00000000
00000000
00000000
00000000
3FFFFF80
3FFFFF80
30060180
30060180
30060180
30060180
30060180
3FFFFF80
3FFFFF80
30060180
30060180
30060180
30060180
30060180
3FFFFF80
3FFFFF80
30000180
30000180
30000180
ENDCHAR
STARTCHAR  4EAB
ENCODING  20139
SWIDTH  1000 0
DWIDTH  30 0
BBX  29 30 0 -3
BITMAP
00040000
000E0000
000F0000
00070000
7FFFFFF8
7FFFFFF8
00000000
0FFFFF00
0FFFFF00
0C000300
0C000300
0FFFFF00
0FFFFF00
0C000300
00000000
1FFFFF80
1FFFFF80
00001F80
0000FE00
0003E000
00030000
FFFFFFF8
FFFFFFF8
00030000
00030000
00030000
00070000
01FF0000
00FE0000
00000000
ENDCHAR
STARTCHAR  4EAC
ENCODING  20140
SWIDTH  1000 0
DWIDTH  30 0
BBX  30 30 0 -2
BITMAP
00000000
00060000
00070000
00038000
00038000
7FFFFFFC
7FFFFFFC
00000000
00000000
00000000
07FFFFC0
07FFFFC0
060000C0
060000C0
060000C0
060000C0
060000C0
07FFFFC0
07FFFFC0
060180C0
00018000
00818400
01C18700
07818780
1F0181E0
3C0180F8
78038030
207F8010
007F0000
00000000
ENDCHAR
STARTCHAR  4EAD
ENCODING  20141
SWIDTH  1000 0
DWIDTH  30 0
BBX  28 29 1 -2
BITMAP
00040000
000E0000
000E0000
FFFFFFF0
FFFFFFF0
00000000
00000000
0FFFFE00
0FFFFE00
0C000600
0C000600
0FFFFE00
0FFFFE00
0C000600
00000000
FFFFFFF0
FFFFFFF0
C0000030
C0000030
CFFFFF30
0FFFFF00
00030000
00030000
00030000
00030000
00070000
00FF0000
00FE0000
00000000
ENDCHAR
STARTCHAR  4EAE
ENCODING  20142
SWIDTH  1000 0
DWIDTH  30 0
BBX  28 28 1 -1
BITMAP
00060000
00060000
00060000
7FFFFFF0
7FFFFFF0
00000000
00000000
07FFFE00
07FFFE00
06000600
06000600
07FFFE00
07FFFE00
06000600
00000000
7FFFFFE0
7FFFFFE0
60000060
60000060
60FFF060
00FFF000
00C03020
00C03030
01C03030
03803030
07803070
7F003FF0
FC001FE0
ENDCHAR
STARTCHAR  4EB2
ENCODING  20146
SWIDTH  1000 0
DWIDTH  30 0
BBX  29 31 1 -3
BITMAP
00000000
000E0000
00070000
00070000
7FFFFFE0
7FFFFFE0
00000000
01800C00
03801C00
01C01800
00C03800
00C07000
FFFFFFF8
FFFFFFF8
00030000
00030000
00030000
00030000
7FFFFFE0
7FFFFFE0
00030000
00030000
03030C00
07031E00
0E030F80
3C0303C0
780301E0
700700E0
40FE0040
00FC0000
00000000
ENDCHAR
STARTCHAR  4EB3
ENCODING  20147
SWIDTH  1000 0
DWIDTH  30 0
BBX  30 29 0 -1
BITMAP
00000000
00020000
00070000
00038000
7FFFFFF8
7FFFFFF8
00000000
07FFFF80
07FFFF80
06000180
06000180
07FFFF80
07FFFF80
00000000
3FFFFFF0
3FFFFFF0
30000030
30000030
300FFF30
07FFFF00
07060000
00060000
00067FF8
3FFFFFF8
7FFE0000
00060030
00060030
0007FFE0
0003FFE0
ENDCHAR
STARTCHAR  4EB5
ENCODING  20149
SWIDTH  1000 0
DWIDTH  30 0
BBX  30 29 0 -2
BITMAP
00010000
00030000
00030000
7FFFFFF8
7FFFFFF8
03006000
03006000
03006000
3FF7FF80
3FF7FF80
03006180
0316C180
07F7C190
7FC1E198
33077998
031E19D8
033C08F0
3F130070
3E070000
001F00C0
007981C0
01E0E780
07C07E00
3FC03C00
7CC19F00
20DF87F8
00FE00F0
00F00010
00800000
ENDCHAR
STARTCHAR  4EBA
ENCODING  20154
SWIDTH  1000 0
DWIDTH  30 0
BBX  27 27 1 -1
BITMAP
00060000
00060000
00060000
00060000
00060000
00060000
00060000
00060000
00060000
00060000
00070000
000F0000
001F8000
00198000
0039C000
0030C000
0070E000
00606000
00C03000
01C03800
03801C00
07000E00
0E000700
1C000380
780001C0
F00000E0
60000060
ENDCHAR
STARTCHAR  4EBB
ENCODING  20155
SWIDTH  1000 0
DWIDTH  30 0
BBX  16 30 0 -3
BITMAP
0004
0006
000E
001C
001C
0038
0070
0070
00E0
01E0
03E0
0760
0F60
1E60
3C60
7860
3060
0060
0060
0060
0060
0060
0060
0060
0060
0060
0060
0060
0060
0000
ENDCHAR
STARTCHAR  4EBF
ENCODING  20159
SWIDTH  1000 0
DWIDTH  30 0
BBX  28 27 1 -1
BITMAP
03800000
03000000
073FFFC0
063FFFC0
0E0001C0
0E000380
0C000700
1C000E00
1C001C00
3C003800
3C007000
7C00F000
EC00E000
CC01C000
CC038000
8C070000
0C0E0020
0C1C0030
0C1C0030
0C380030
0C700030
0C700030
0C700070
0C7000F0
0C3FFFE0
0C1FFFC0
0C000000
ENDCHAR
STARTCHAR  4EC0
ENCODING  20160
SWIDTH  1000 0
DWIDTH  30 0
BBX  30 30 0 -3
BITMAP
00000000
01C01800
01C01800
03801800
03801800
07001800
07001800
06001800
0E001800
0E001800
1E001800
1E3FFFFC
3E3FFFFC
76001800
66001800
66001800
46001800
06001800
06001800
06001800
06001800
06001800
06001800
06001800
06001800
06001800
06001800
06001800
06001800
00000000
ENDCHAR
STARTCHAR  4EC1
ENCODING  20161
SWIDTH  1000 0
DWIDTH  30 0
BBX  30 29 0 -2
BITMAP
01000000
01C00000
03800000
03800000
031FFFF0
071FFFF0
07000000
0E000000
0E000000
1E000000
1E000000
3E000000
3E000000
76000000
66000000
66000000
46000000
06000000
06000000
06000000
06000000
06000000
06000000
06000000
063FFFFC
063FFFFC
06000000
06000000
06000000
ENDCHAR
STARTCHAR  4EC2
ENCODING  20162
SWIDTH  1000 0
DWIDTH  30 0
BBX  29 29 0 -2
BITMAP
00000000
01806000
01806000
03806000
03006000
03006000
07006000
063FFFF8
0E3FFFF8
0E00E038
1E00E030
1E00E030
3E00E030
3600E030
7600E030
6600C030
6600C030
0600C030
0601C030
0601C030
06038030
06038030
06070030
060F0030
061E0030
063C0070
06783FE0
06F01FE0
06400000
ENDCHAR
STARTCHAR  4EC3
ENCODING  20163
SWIDTH  1000 0
DWIDTH  30 0
BBX  30 29 0 -2
BITMAP
00000000
01C00000
03800000
039FFFFC
031FFFFC
07000600
06000600
0E000600
0E000600
1E000600
1E000600
3E000600
36000600
76000600
66000600
66000600
46000600
06000600
06000600
06000600
06000600
06000600
06000600
06000600
06000600
06000E00
0603FE00
0603FC00
06000000
ENDCHAR
STARTCHAR  4EC4
ENCODING  20164
SWIDTH  1000 0
DWIDTH  30 0
BBX  30 27 0 -2
BITMAP
0FFFFFF8
0FFFFFF8
0C000000
0C00C000
0C00C000
0C00C000
0C00C000
0C00C000
0C00E000
0C00E000
0C00E000
0C01E000
0C01F000
0C01B000
0C01B000
0C03B800
1C031800
1C071C00
18060E00
180E0E00
181C0700
38380380
307801C0
70F000F0
63E00078
63800030
01000000
ENDCHAR
STARTCHAR  4EC5
ENCODING  20165
SWIDTH  1000 0
DWIDTH  30 0
BBX  30 30 0 -2
BITMAP
00000000
01800000
03800000
03BFFFF0
033FFFF0
070C0070
060C0060
0E0C0060
0C0C00E0
1C0E00E0
1C0E00E0
3C0600C0
7C0601C0
7C070180
EC030380
CC038380
4C038700
0C01C700
0C00CE00
0C00FC00
0C007800
0C007800
0C00FC00
0C01FE00
0C07CF80
0C0F03C0
0C3E01F0
0CFC00F8
0C700038
0C000000
ENDCHAR
STARTCHAR  4EC6
ENCODING  20166
SWIDTH  1000 0
DWIDTH  30 0
BBX  30 29 0 -2
BITMAP
00000000
00C0C000
01C0C000
0180C000
0380C000
0300C000
0700C000
0600C000
0E00D000
0E00F800
1E00DE00
3E00CF00
7E00C780
7600C3C0
6600C1E0
4600C078
0600C03C
0600C010
0600C000
0600C000
0600C000
0600C000
0600C000
0600C000
0600C000
0600C000
0600C000
0600C000
0600C000
ENDCHAR
STARTCHAR  4EC7
ENCODING  20167
SWIDTH  1000 0
DWIDTH  30 0
BBX  30 29 0 -2
BITMAP
00030000
01830000
01830000
03830000
03030000
03030000
07030000
063FFF00
0E3FFF00
0E030300
1E030300
1E030300
3E030300
36030300
76030300
66070300
26070300
06060300
06060300
06060308
060E030C
060C031C
061C031C
061C031C
06380318
06700318
06F003F8
06E001F0
06400000
ENDCHAR
STARTCHAR  4EC9
ENCODING  20169
SWIDTH  1000 0
DWIDTH  30 0
BBX  30 30 0 -3
BITMAP
01800000
03800000
030FFF00
070FFF00
070C0300
060C0300
0E0C0300
0C0C0300
1C0C0300
1C0C0300
3C0C0300
7C0C0300
7C0C0300
EC0C0300
6C0C0300
4C0C0300
0C0C0300
0C1C0300
0C1C0300
0C1C0310
0C18031C
0C18031C
0C380318
0C380318
0C700318
0C700338
0CE003F8
0DE001F0
0CC00000
00000000
ENDCHAR
STARTCHAR  4ECA
ENCODING  20170
SWIDTH  1000 0
DWIDTH  30 0
BBX  30 31 0 -3
BITMAP
00000000
00038000
00078000
000FC000
001CC000
003CE000
00387000
00F03C00
01E01E00
03C00F00
0F8E07C0
1E0701F0
7C0700FC
F0038038
60018000
00000000
00000000
0FFFFF80
0FFFFF80
00000380
00000700
00000E00
00001E00
00001C00
00003800
00007000
0000F000
0001E000
0001C000
00008000
00000000
ENDCHAR
STARTCHAR  4ECB
ENCODING  20171
SWIDTH  1000 0
DWIDTH  30 0
BBX  30 30 0 -3
BITMAP
00000000
00070000
000F8000
000FC000
001CE000
0038E000
00707000
00F03800
01E01E00
03C00F00
0F0007C0
3E0003F0
7CC018F8
70C01878
60C01810
00C01800
00C01800
00C01800
00C01800
00C01800
01C01800
01C01800
01C01800
01801800
03801800
07001800
0E001800
3C001800
18001800
00000000
ENDCHAR
STARTCHAR  4ECD
ENCODING  20173
SWIDTH  1000 0
DWIDTH  30 0
BBX  29 29 0 -2
BITMAP
01800000
03800000
03BFFFC0
033FFFC0
070301C0
07030180
06030380
0E030380
0E030300
1E030700
1E030600
3E030FF0
36030FF0
76030030
66030030
66070030
06070030
06060030
06060030
06060030
060E0030
060C0030
061C0030
061C0030
06380070
067020E0
06F01FE0
06E01FC0
06400000
ENDCHAR
STARTCHAR  4ECE
ENCODING  20174
SWIDTH  1000 0
DWIDTH  30 0
BBX  31 29 -1 -2
BITMAP
01801800
01801800
01801800
01801800
01801800
01801800
01801800
01801800
01801800
01801800
01803800
01C03C00
01E03C00
03F03C00
03F83C00
03B83600
031C7600
030E6600
0707E700
0700E300
0601C380
0E01C1C0
0C0381C0
1C0700E0
180E0070
381E007C
703C003C
20380018
00000000
ENDCHAR
STARTCHAR  4ED1
ENCODING  20177
SWIDTH  1000 0
DWIDTH  30 0
BBX  30 28 0 -1
BITMAP
00000000
00070000
000F8000
001FC000
003CE000
00787000
00F03800
01E01E00
07C00F00
0F0007C0
3E0001F0
F80000F8
73000630
03001F00
03007E00
0301F000
030FC000
033F0000
03FC0000
03E00000
030000C0
030001C0
030001C0
030001C0
03800180
03800380
01FFFF00
00FFFE00
ENDCHAR
STARTCHAR  4ED3
ENCODING  20179
SWIDTH  1000 0
DWIDTH  30 0
BBX  30 29 0 -2
BITMAP
00038000
00078000
000FC000
001DE000
0038F000
00787800
00E03C00
03C01E00
07800780
1F0003E0
7C0001F8
FBFFFE78
63FFFE10
03000600
03000600
03000600
03000E00
03000E00
03000E00
03001C00
0303FC60
0303F870
03000060
03000060
03000060
038000E0
01FFFFC0
00FFFF80
00000000
ENDCHAR
STARTCHAR  4ED4
ENCODING  20180
SWIDTH  1000 0
DWIDTH  30 0
BBX  30 29 0 -2
BITMAP
01800000
01800000
018FFFF0
038FFFF0
03000070
070000E0
060001C0
0E000380
0E000700
1E000E00
1E000E00
3E000C00
76000C00
767FFFF8
667FFFF8
46000C00
06000C00
06000C00
06000C00
06000C00
06000C00
06000C00
06000C00
06000C00
06001C00
06001C00
0607F800
0607F800
0607C000
ENDCHAR
STARTCHAR  4ED5
ENCODING  20181
SWIDTH  1000 0
DWIDTH  30 0
BBX  30 30 0 -2
BITMAP
00000000
00C01800
01C01800
01C01800
01801800
03801800
03001800
07001800
06001800
0E001800
0E001800
1E3FFFFC
1E3FFFFC
3E001800
76001800
76001800
66001800
46001800
06001800
06001800
06001800
06001800
06001800
06001800
06001800
06001800
063FFFF8
063FFFF8
06000000
00000000
ENDCHAR
STARTCHAR  4ED6
ENCODING  20182
SWIDTH  1000 0
DWIDTH  30 0
BBX  30 29 0 -2
BITMAP
01000000
03803000
03803000
03003000
07183000
07183000
0E183060
0E1837E0
1C18FFE0
1C1FF860
3CFFB060
3CF83060
7C983060
EC183060
EC183060
4C183060
0C1830E0
0C1837E0
0C1837C0
0C183010
0C183018
0C183018
0C183038
0C180038
0C180038
0C1C0070
0C1FFFF0
0C07FFC0
0C000000
ENDCHAR
STARTCHAR  4ED7
ENCODING  20183
SWIDTH  1000 0
DWIDTH  30 0
BBX  30 30 0 -3
BITMAP
00000C00
01800C00
03800C00
03000C00
07000C00
07000C00
06FFFFF8
0EFFFFF8
0C000C00
1C000C00
1C180C00
3C180C00
7C180C00
6C1C1C00
EC0C1C00
4C0E1800
0C061800
0C073800
0C03B000
0C03F000
0C01E000
0C01F000
0C03F800
0C07BE00
0C0F0F80
0C3E07F0
0CF801F8
0CF00070
0CC00000
00000000
ENDCHAR
STARTCHAR  4ED8
ENCODING  20184
SWIDTH  1000 0
DWIDTH  30 0
BBX  29 29 0 -2
BITMAP
01000180
01800180
03800180
03800180
03000180
07000180
06000180
0E7FFFF8
0E7FFFF8
1E000180
1E000180
3E000180
76000180
761C0180
661C0180
460E0180
46070180
06070180
06038180
06038180
06000180
06000180
06000180
06000180
06000180
06000380
0600FF00
0600FF00
06000000
ENDCHAR
STARTCHAR  4ED9
ENCODING  20185
SWIDTH  1000 0
DWIDTH  30 0
BBX  28 29 0 -2
BITMAP
00000000
03803000
03803000
03003000
07003000
06003000
0E183060
0C183060
0C183060
1C183060
3C183060
3C183060
7C183060
6C183060
EC183060
CC183060
0C183060
0C183060
0C183060
0C183060
0C183060
0C183060
0C183060
0C183060
0C183060
0C1FFFE0
0C1FFFE0
0C000060
00000000
ENDCHAR
STARTCHAR  4EDD
ENCODING  20189
SWIDTH  1000 0
DWIDTH  30 0
BBX  30 28 0 -1
BITMAP
00038000
00078000
0007C000
000EE000
001CE000
00387000
00703800
00F01E00
01E00F00
03800780
0F0003E0
1E0000F8
7C00007C
70000018
27FFFF80
07FFFF80
00030000
00030000
00030000
00030000
00030000
00030000
00030000
00030000
00030000
00030000
3FFFFFF8
3FFFFFF8
ENDCHAR
STARTCHAR  4EDE
ENCODING  20190
SWIDTH  1000 0
DWIDTH  30 0
BBX  29 30 0 -3
BITMAP
00000000
01C00000
01800000
038FFFF0
038FFFF0
03006030
07006030
06006030
0E006030
0E0C6030
1E1C6030
1E1C6030
3E186030
36186030
76386030
6630E030
4670E030
0610E030
0600C030
0601C070
0601C070
06038070
06038070
06070070
060E0070
061E18E0
063C1FE0
06381F80
06100000
00000000
ENDCHAR
STARTCHAR  4EDF
ENCODING  20191
SWIDTH  1000 0
DWIDTH  30 0
BBX  30 29 0 -2
BITMAP
01000000
01C00000
01C007F0
039FFFF8
038FFE00
07001800
07001800
0E001800
0E001800
1E001800
1E001800
3E001800
76001800
763FFFFC
663FFFFC
46001800
06001800
06001800
06001800
06001800
06001800
06001800
06001800
06001800
06001800
06001800
06001800
06001800
06001800
ENDCHAR
STARTCHAR  4EE1
ENCODING  20193
SWIDTH  1000 0
DWIDTH  30 0
BBX  30 29 0 -2
BITMAP
01830000
01830000
03870000
03070000
0307FFF8
070FFFF8
061C0000
0E180000
0E380000
1E300000
1E700000
3E67FFC0
3607FFC0
76000380
66000700
46001E00
06003C00
06007000
0600E000
0601C018
06038018
06070018
060E0018
060E0018
060C0038
060C0070
060FFFF0
0607FFE0
06000000
ENDCHAR
STARTCHAR  4EE3
ENCODING  20195
SWIDTH  1000 0
DWIDTH  30 0
BBX  30 29 0 -2
BITMAP
0181C000
01818400
01818F00
03818780
0301C3C0
0701C1E0
0601C040
0E01C000
0E01C078
1E01FFF8
1E7FFFE0
3E7FC000
7600C000
7600C000
E600E000
4600E000
0600E000
06006000
06007000
06007000
06003000
06003818
06003818
06001C18
06001E38
06000F38
060007F0
060003F0
060000E0
ENDCHAR
STARTCHAR  4EE4
ENCODING  20196
SWIDTH  1000 0
DWIDTH  30 0
BBX  30 30 0 -3
BITMAP
00038000
00078000
000F8000
000FC000
001CE000
00387000
00F03800
01E01E00
03C40F00
0F0E07C0
1E0701F0
7C0380FC
7001C038
00010000
00000000
0FFFFF80
0FFFFF80
00000780
00000700
00000E00
00C01C00
01E03800
00787000
003CE000
000FC000
00078000
0003E000
0000F000
00006000
00000000
ENDCHAR
STARTCHAR  4EE5
ENCODING  20197
SWIDTH  1000 0
DWIDTH  30 0
BBX  29 30 1 -3
BITMAP
00100000
30700300
30380300
30180300
301C0300
300E0300
300E0300
30070300
30040300
30000700
30000700
30000700
30000700
30000600
30000600
30000E00
30000E00
30080C00
30381C00
30F81E00
31F03E00
37C07700
3F00F380
7E01E1C0
F803C0E0
700F8070
203E0078
007C0020
00300000
00000000
ENDCHAR
STARTCHAR  4EE8
ENCODING  20200
SWIDTH  1000 0
DWIDTH  30 0
BBX  30 30 0 -3
BITMAP
00000000
01800000
03800000
03800000
031FFFF8
071FFFF8
07000000
0E000000
0E000000
1E000000
1E000000
3E000000
3E000000
760FFFF0
660FFFF0
66000000
46000000
06000000
06000000
06000000
06000000
06000000
06000000
06000000
06000000
063FFFFC
063FFFFC
06000000
06000000
00000000
ENDCHAR
STARTCHAR  4EEA
ENCODING  20202
SWIDTH  1000 0
DWIDTH  30 0
BBX  30 30 0 -3
BITMAP
01000000
01C0E000
01806000
03807070
039C3070
031C3870
071C1870
060C1060
0E0C0060
0E0C00E0
1E0E00E0
1E0600C0
3E0601C0
76070180
66030380
66038380
0601C700
0601CE00
0600EE00
06007C00
06007800
06007C00
0600FE00
0603EF80
060783C0
061F01F0
067E00FC
06780038
06600000
00000000
ENDCHAR
STARTCHAR  4EEB
ENCODING  20203
SWIDTH  1000 0
DWIDTH  30 0
BBX  30 30 0 -2
BITMAP
00000000
00C02000
01C03800
01807000
03806000
0300E000
0301C000
07018000
060381C0
0E070380
1E0E0380
1E1C0700
3E380E00
36380E00
76701C00
66603800
46003000
06007000
0600E300
0601C300
06038380
060301C0
060700C0
060E00E0
061C0070
067FFFF0
067FFFF8
063C001C
06000010
06000000
ENDCHAR
STARTCHAR  4EEC
ENCODING  20204
SWIDTH  1000 0
DWIDTH  30 0
BBX  28 29 0 -2
BITMAP
00080000
03980000
031C0000
070E7FE0
07077FE0
06020060
0E000060
0C180060
1C180060
1C180060
3C180060
3C180060
7C180060
6C180060
EC180060
CC180060
0C180060
0C180060
0C180060
0C180060
0C180060
0C180060
0C180060
0C180060
0C180060
0C1800E0
0C183FE0
0C181FC0
00180000
ENDCHAR
STARTCHAR  4EF0
ENCODING  20208
SWIDTH  1000 0
DWIDTH  30 0
BBX  28 30 0 -2
BITMAP
00000000
03000000
0703C000
063FE000
063E1FF0
06301FF0
0E301830
0C301830
1C301830
1C301830
1C301830
3C301830
3C301830
7C301830
6C301830
EC301830
4C301830
0C301830
0C301830
0C301830
0C301830
0C319830
0C379870
0C3E1FF0
0C781BE0
0C301800
0C001800
0C001800
0C001800
00000000
ENDCHAR
STARTCHAR  4EF2
ENCODING  20210
SWIDTH  1000 0
DWIDTH  30 0
BBX  29 30 0 -2
BITMAP
00000000
01801800
03801800
03801800
03001800
07001800
07001800
061FFFF8
0E1FFFF8
0E181818
1E181818
1E181818
3E181818
36181818
76181818
66181818
66181818
06181818
061FFFF8
061FFFF8
06181818
06181818
06001800
06001800
06001800
06001800
06001800
06001800
06001800
06001800
ENDCHAR
STARTCHAR  4EF3
ENCODING  20211
SWIDTH  1000 0
DWIDTH  30 0
BBX  30 30 0 -2
BITMAP
00000000
03301800
07301800
06301800
06301800
06301800
0C301800
0C301810
0C301838
1C301870
1C3018E0
3C3F99C0
3C3F9B80
7C301F00
6C301E00
EC301C00
4C301800
4C301800
0C301800
0C301800
0C301800
0C30181C
0C30181C
0C309818
0C339818
0C379818
0C3E1838
0C7C1FF8
0C300FF0
0C200000
ENDCHAR
STARTCHAR  4EF5
ENCODING  20213
SWIDTH  1000 0
DWIDTH  30 0
BBX  30 30 0 -3
BITMAP
01000000
01C38000
01838000
03830000
03070000
0707FFF0
0607FFF0
0E0E1800
0E0C1800
1E1C1800
1E181800
3E181800
76001800
76001800
66001800
463FFFFC
063FFFFC
06001800
06001800
06001800
06001800
06001800
06001800
06001800
06001800
06001800
06001800
06001800
06001800
00000000
ENDCHAR
STARTCHAR  4EF6
ENCODING  20214
SWIDTH  1000 0
DWIDTH  30 0
BBX  30 30 0 -3
BITMAP
00000C00
01800C00
03800C00
03870C00
03070C00
07060C00
06060C00
060FFFF8
0E0FFFF8
0E1C0C00
1E1C0C00
1E180C00
3E380C00
36300C00
76100C00
66000C00
46000C00
063FFFFC
063FFFFC
06000C00
06000C00
06000C00
06000C00
06000C00
06000C00
06000C00
06000C00
06000C00
06000C00
00000000
ENDCHAR
STARTCHAR  4EF7
ENCODING  20215
SWIDTH  1000 0
DWIDTH  30 0
BBX  30 30 -1 -3
BITMAP
01003000
01807000
03807800
0380FC00
0300CC00
07018600
06038700
06070380
0E0E01E0
0E1C00F0
1E78007C
1E700018
3E030300
36030300
76030300
66030300
26030300
06030300
06030300
06030300
06070300
06060300
06060300
060E0300
060C0300
061C0300
06380300
06780300
06100300
00000000
ENDCHAR
STARTCHAR  4EFB
ENCODING  20219
SWIDTH  1000 0
DWIDTH  30 0
BBX  30 29 0 -2
BITMAP
01000000
01C00000
01800FF0
039FFFF0
039FFE00
07001800
07001800
06001800
0E001800
0E001800
1E001800
3E001800
3E001800
76001800
E63FFFFC
663FFFFC
46001800
06001800
06001800
06001800
06001800
06001800
06001800
06001800
06001800
063FFFF8
063FFFF8
06000000
06000000
ENDCHAR
STARTCHAR  4EFD
ENCODING  20221
SWIDTH  1000 0
DWIDTH  30 0
BBX  30 29 0 -2
BITMAP
00000000
01801800
03839C00
03830C00
03070E00
07060E00
060E0700
0E0C0380
0C1C01C0
1C3801E0
1C7000F0
3CF0007C
3DE00038
7CDFFF80
EC1FFF80
4C030180
0C030180
0C030180
0C030180
0C070180
0C060180
0C060180
0C0E0180
0C1C0180
0C3C0380
0C780300
0CF0FF00
0CE0FE00
0C400000
ENDCHAR
STARTCHAR  4EFF
ENCODING  20223
SWIDTH  1000 0
DWIDTH  30 0
BBX  30 30 0 -2
BITMAP
00000000
00002000
01807000
03803800
03803800
03001000
077FFFFC
067FFFFC
0E030000
0E030000
1E030000
1E030000
3E030000
3E03FFF0
7603FFF0
66030030
66030030
06070030
06070030
06070030
06060070
060E0070
060E0070
060C0070
061C0070
06380060
063840E0
06703FE0
06603F80
06000000
ENDCHAR
STARTCHAR  4F01
ENCODING  20225
SWIDTH  1000 0
DWIDTH  30 0
BBX  30 28 0 -1
BITMAP
00000000
00038000
0007C000
000EE000
001C7000
003C7800
00783C00
00F00E00
03C00780
078183E0
1F0181F8
7C018078
78018018
20018000
03018000
03018000
0301FFC0
0301FFC0
03018000
03018000
03018000
03018000
03018000
03018000
03018000
03018000
3FFFFFF8
3FFFFFF8
ENDCHAR
STARTCHAR  4F09
ENCODING  20233
SWIDTH  1000 0
DWIDTH  30 0
BBX  30 29 0 -2
BITMAP
01002000
01C06000
01807000
03803800
03003000
033FFFF0
073FFFF0
06000000
0E000000
0E000000
1E000000
1E07FF00
3E07FF00
76060300
76060300
66060300
46060300
06060300
06060300
06060300
060E0300
060C031C
060C031C
061C0318
06380318
06380318
06F003F8
06E001F0
06400000
ENDCHAR
STARTCHAR  4F0A
ENCODING  20234
SWIDTH  1000 0
DWIDTH  30 0
BBX  30 30 0 -2
BITMAP
00000000
01800000
03800000
033FFFC0
033FFFC0
070180C0
060180C0
0E0180C0
0E0180C0
1C0180C0
1C0180C0
3CFFFFF8
3CFFFFF8
7C0180C0
EC0180C0
EC0180C0
4C0180C0
0C0180C0
0C7FFFC0
0C7FFFC0
0C0300C0
0C030000
0C070000
0C060000
0C0E0000
0C1C0000
0C3C0000
0C780000
0C700000
0C400000
ENDCHAR
STARTCHAR  4F0D
ENCODING  20237
SWIDTH  1000 0
DWIDTH  30 0
BBX  30 29 0 -2
BITMAP
01800000
03800000
03BFFFF8
033FFFF8
07018000
07018000
06018000
0E018000
0E018000
1E018000
1E018000
3E018000
3E3FFFE0
763FFFE0
66038060
66038060
06030060
06030060
06030060
06030060
06030060
06030060
06030060
06030060
06070060
067FFFFC
067FFFFC
06000000
06000000
ENDCHAR
STARTCHAR  4F0E
ENCODING  20238
SWIDTH  1000 0
DWIDTH  30 0
BBX  30 30 0 -2
BITMAP
00000000
01803000
01803000
03803000
03003000
03003000
077FFFF8
067FFFF8
0E003000
0E003000
1E003000
1E003000
3E3FFFE0
363FFFE0
760C00E0
660C00C0
660601C0
06060180
06030380
06038700
0601C700
0600EE00
0600FC00
06007800
0601FC00
0603CF00
061F87E0
06FE01F8
06780070
00000000
ENDCHAR
STARTCHAR  4F0F
ENCODING  20239
SWIDTH  1000 0
DWIDTH  30 0
BBX  30 29 0 -2
BITMAP
01006000
01806000
03806300
03006380
070061C0
070060E0
06006040
0E006000
0C006000
1CFFFFF8
3CFFFFF8
3C006000
7C007000
6C00F000
EC00F000
4C00F000
0C00D800
0C01D800
0C019C00
0C038C00
0C038E00
0C070700
0C0E0780
0C1E0380
0C3C01E0
0C7800F0
0CF00078
0CE00030
0C800000
ENDCHAR
STARTCHAR  4F10
ENCODING  20240
SWIDTH  1000 0
DWIDTH  30 0
BBX  30 29 0 -2
BITMAP
0080C000
01C0C600
01C0C700
0180C3C0
0380C1E0
0380C040
0700C000
0700C0F8
0E01FFF8
0E7FFF80
1E3FE000
1E006000
3E006010
76006038
E6006070
660060E0
460071C0
06007380
06003F00
06003E00
06007C00
0601F81C
0607DC1C
061F9C1C
067E0E18
06780718
060007F8
060001F0
060000E0
ENDCHAR
STARTCHAR  4F11
ENCODING  20241
SWIDTH  1000 0
DWIDTH  30 0
BBX  30 29 0 -2
BITMAP
01006000
03806000
03006000
03006000
07006000
06006000
0E006000
0EFFFFF0
1CFFFFF0
1C00F000
3C01F800
3C01F800
7C037800
EC036C00
EC076C00
4C066600
0C0E6700
0C1C6300
0C186380
0C3861C0
0C7060E0
0CE060F0
0DE06078
0DC06030
0C806000
0C006000
0C006000
0C006000
0C006000
ENDCHAR
STARTCHAR  4F17
ENCODING  20247
SWIDTH  1000 0
DWIDTH  30 0
BBX  30 30 0 -3
BITMAP
00038000
00078000
0007C000
000EE000
001CF000
00787800
00F03C00
01E00F00
07C007C0
1F0003F0
7E0000F8
78C01838
20C01800
00C01800
00C01800
01C01C00
01C01C00
01A03C00
01F03600
03B83600
039C7700
030E6300
0706E380
0E04E1C0
1E01C1E0
3C0380F0
780F007C
701E0038
200C0000
00000000
ENDCHAR
STARTCHAR  4F18
ENCODING  20248
SWIDTH  1000 0
DWIDTH  30 0
BBX  29 29 0 -2
BITMAP
01018000
03818C00
03818F00
03018780
070181C0
06018080
0E018000
0E018000
0CFFFFF0
1CFFFFF0
3C01B000
3C01B000
7C01B000
6C03B000
EC03B000
4C03B000
0C033000
0C073000
0C073000
0C063020
0C0E3038
0C0C3038
0C1C3038
0C383038
0C783030
0C703870
0CE03FF0
0DC01FE0
0C800000
ENDCHAR
STARTCHAR  4F19
ENCODING  20249
SWIDTH  1000 0
DWIDTH  30 0
BBX  30 29 0 -2
BITMAP
01803000
01C03000
01803000
03803000
03003000
07003000
07203000
06603038
0E707070
0E307070
1E3870E0
3E1C71C0
3E1C7380
760E7380
E6087900
66007800
4600F800
0600CC00
0601CC00
0601CE00
06038700
06070700
06070380
060E01C0
063C01E0
067800F0
06F0007C
06E00038
06400000
ENDCHAR
STARTCHAR  4F1A
ENCODING  20250
SWIDTH  1000 0
DWIDTH  30 0
BBX  31 30 0 -3
BITMAP
00000000
00078000
00078000
000FC000
001CE000
00387000
00703C00
00E01E00
03C00F00
078007C0
1F0001F0
3DFFFEFC
79FFFE38
20000008
00000000
00000000
00000000
3FFFFFF8
3FFFFFF8
001C0000
00380000
00301800
00603C00
00C00E00
01C00700
07FFFF80
07FFFFC0
07F001E0
000000C0
00000000
ENDCHAR
STARTCHAR  4F1B
ENCODING  20251
SWIDTH  1000 0
DWIDTH  30 0
BBX  29 29 0 -2
BITMAP
01000000
01800000
039FFFF8
031FFFF8
03180000
07180040
061980E0
0E19C0E0
0E18C1C0
0E1861C0
1E187380
1E183300
3E183F00
76181E00
76180E00
66180E00
46181F00
06183B00
06183380
061871C0
0618E1C0
0619C0E0
0619C070
06198060
06180000
06180000
061FFFF8
061FFFF8
06000000
ENDCHAR
STARTCHAR  4F1E
ENCODING  20254
SWIDTH  1000 0
DWIDTH  30 0
BBX  30 30 0 -3
BITMAP
00038000
00078000
000FC000
000EE000
003C7000
00783800
00F01C00
01E00F00
07C30780
0F0301E0
3E0300FC
78030138
33030388
07030380
03830700
01C30E00
00E31C00
00430800
00030000
00030000
3FFFFFF8
3FFFFFF8
00030000
00030000
00030000
00030000
00030000
00030000
00030000
00000000
ENDCHAR
STARTCHAR  4F1F
ENCODING  20255
SWIDTH  1000 0
DWIDTH  30 0
BBX  29 30 0 -3
BITMAP
00006000
01806000
03806000
03806000
037FFFF0
077FFFF0
06006000
0E006000
0E006000
0E3FFFE0
1E3FFFE0
1E006000
3E006000
76006000
66006000
66FFFFF0
46FFFFF0
06006030
06006030
06006030
06006030
06006030
06006070
06006FE0
06006FC0
06006000
06006000
06006000
06006000
00000000
ENDCHAR
STARTCHAR  4F20
ENCODING  20256
SWIDTH  1000 0
DWIDTH  30 0
BBX  30 31 0 -3
BITMAP
00000000
01806000
0380E000
0380E000
0300C000
073FFFF0
073FFFF0
0601C000
0E018000
0E018000
1E038000
1E7FFFFC
3E7FFFFC
36070000
76070000
66060000
66060000
4607FFF0
0607FFF0
06000070
060000E0
060C01C0
060F0780
06078F00
0603FE00
0600FC00
06003C00
06001F00
06000780
06000300
00000000
ENDCHAR
STARTCHAR  4F22
ENCODING  20258
SWIDTH  1000 0
DWIDTH  30 0
BBX  30 29 0 -2
BITMAP
01000000
01800000
039FFFF8
031FFFF8
03000180
07000180
060C0180
0E0C0180
0E0C0180
0E1C0180
1E180180
1E180180
3E1FFFFC
761FFFFC
76000D80
66001D80
06003980
06007180
0600E180
0601C180
06038180
06070180
061E0180
063C0180
06F80180
06600380
06003F80
06003F00
06000000
ENDCHAR
STARTCHAR  4F24
ENCODING  20260
SWIDTH  1000 0
DWIDTH  30 0
BBX  30 29 0 -2
BITMAP
01030000
01838000
03830000
03070000
0307FFFC
070FFFFC
061C0000
0E186000
0E386000
1E706000
1E606000
3E206000
3E3FFFF0
763FFFF0
6600C030
6600C030
4600C030
0600C030
0601C030
06018030
06018030
06038030
06070030
060F0070
061E0070
063C00E0
06783FE0
06703FC0
06000000
ENDCHAR
STARTCHAR  4F25
ENCODING  20261
SWIDTH  1000 0
DWIDTH  30 0
BBX  30 30 0 -3
BITMAP
00060000
01C60000
01860020
03860070
030600F0
030601C0
07060780
06060F00
0E063E00
0E067800
1E063000
1E060000
3E060000
767FFFF8
667FFFF8
66061800
46061C00
06060C00
06060E00
06060600
06060700
06060300
06060380
060601C0
060670F0
0607F878
060FC038
060F0010
06040000
00000000
ENDCHAR
STARTCHAR  4F26
ENCODING  20262
SWIDTH  1000 0
DWIDTH  30 0
BBX  31 29 0 -2
BITMAP
01000000
01C03800
01807800
0380FC00
0380EE00
0301C700
07038380
060703C0
0E0E01E0
0E3C0078
1E78003C
1E700018
3E060080
760601C0
660603C0
66060F00
46063E00
0606F800
0607F000
0607C000
06060030
06060030
06060030
06060030
06060070
060700F0
0607FFE0
0603FFC0
06000000
ENDCHAR
STARTCHAR  4F27
ENCODING  20263
SWIDTH  1000 0
DWIDTH  30 0
BBX  31 29 0 -2
BITMAP
01003000
01C07000
0180F800
0380DC00
0301CE00
07038700
06070780
060E03C0
0E1C01F0
0E78007C
1EF00038
3E6FFFC8
3E0FFFC0
760C00C0
660C00C0
660C00C0
460C01C0
060C0180
060C0180
060C0380
060C7F90
060C7F18
060C0018
060C0018
060C0038
060E0038
060FFFF0
0607FFE0
06000000
ENDCHAR
STARTCHAR  4F2A
ENCODING  20266
SWIDTH  1000 0
DWIDTH  30 0
BBX  29 29 0 -2
BITMAP
0180C000
01C0C000
0198C000
0398C000
031CC000
070EC000
0704C000
0600C000
0E7FFFF0
0E7FFFF0
1E00C030
1E00C030
3E00C030
7600C030
6601F830
6601DC30
46018C30
06018E30
06038730
06030630
06070030
06070030
060E0030
061C0030
061C0070
063820E0
06703FE0
06E03FC0
06400000
ENDCHAR
STARTCHAR  4F2B
ENCODING  20267
SWIDTH  1000 0
DWIDTH  30 0
BBX  30 31 0 -3
BITMAP
00000000
00006000
0180E000
03807000
03003800
03003000
073FFFF8
063FFFF8
0E300018
0E300018
0E300018
1E300018
1E300018
3E000000
76000000
76000000
66000000
46000000
06000000
06000000
06000000
06000000
06000000
06000000
06000000
06000000
067FFFF8
067FFFF8
06000000
06000000
00000000
ENDCHAR
STARTCHAR  4F2F
ENCODING  20271
SWIDTH  1000 0
DWIDTH  30 0
BBX  29 29 0 -2
BITMAP
00003000
01803000
03807000
03807000
03006000
070FFFF0
060FFFF0
0E0C0030
0E0C0030
1E0C0030
1E0C0030
3E0C0030
3E0C0030
760C0030
660FFFF0
660FFFF0
460C0030
060C0030
060C0030
060C0030
060C0030
060C0030
060C0030
060C0030
060FFFF0
060FFFF0
060C0030
060C0030
060C0030
ENDCHAR
STARTCHAR  4F30
ENCODING  20272
SWIDTH  1000 0
DWIDTH  30 0
BBX  30 30 0 -2
BITMAP
00000000
01803000
03803000
03803000
03003000
07003000
06003000
067FFFFC
0E7FFFFC
0E003000
1E003000
1E003000
3E003000
36003000
76003000
661FFFE0
461FFFE0
06180060
06180060
06180060
06180060
06180060
06180060
06180060
06180060
06180060
061FFFE0
061FFFE0
06180060
06180060
ENDCHAR
STARTCHAR  4F32
ENCODING  20274
SWIDTH  1000 0
DWIDTH  30 0
BBX  30 29 0 -2
BITMAP
00000000
01800000
038FFFF0
038FFFF0
030C0030
070C0030
060C0030
0E0C0030
0E0C0030
0E0FFFF0
1E0FFFF0
1E0C0030
3E0C0030
760CC000
760CC030
660CC070
060CC1E0
061CC3C0
061CCF00
0618FC00
0618F800
0618E01C
0638C01C
0630C018
0670C018
0660E038
06E0FFF8
06C07FE0
06000000
ENDCHAR
STARTCHAR  4F34
ENCODING  20276
SWIDTH  1000 0
DWIDTH  30 0
BBX  30 29 0 -2
BITMAP
01803000
01C03000
01803000
03903020
03383078
031C3070
071C30E0
060E31C0
0E063180
0E003080
1E003000
3E3FFFF0
3E3FFFF0
76003000
E6003000
66003000
46003000
06003000
067FFFFC
067FFFFC
06003000
06003000
06003000
06003000
06003000
06003000
06003000
06003000
06003000
ENDCHAR
STARTCHAR  4F36
ENCODING  20278
SWIDTH  1000 0
DWIDTH  30 0
BBX  31 31 0 -3
BITMAP
00000000
01803800
01C07800
03807C00
0380EC00
0301CE00
07038700
07070380
0E0F01C0
0E1EE0E0
1E3C7078
1EF0303C
3EE03818
36401C00
76000000
66000000
463FFFF0
063FFFF0
060000E0
060001C0
060003C0
060C0780
061F0F00
06079E00
0603FC00
0600F800
06003C00
06001F00
06000700
06000300
00000000
ENDCHAR
STARTCHAR  4F38
ENCODING  20280
SWIDTH  1000 0
DWIDTH  30 0
BBX  28 29 0 -2
BITMAP
03003000
03803000
03003000
03003000
07003000
063FFFF0
0E3FFFF0
0C303030
0C303030
1C303030
1C303030
3C303030
3C3FFFF0
7C3FFFF0
EC303030
4C303030
0C303030
0C303030
0C3FFFF0
0C3FFFF0
0C303030
0C303000
0C003000
0C003000
0C003000
0C003000
0C003000
0C003000
0C003000
ENDCHAR
STARTCHAR  4F3A
ENCODING  20282
SWIDTH  1000 0
DWIDTH  30 0
BBX  29 30 0 -3
BITMAP
00000000
01800000
039FFFF0
039FFFF0
03000030
07000030
06000030
063FFFB0
0E3FFFB0
0E000030
1E000030
1E000030
3E000030
361FFC30
761FFC30
66180C30
46180C30
06180C30
06180C30
06180C30
061FFC30
061FFC30
06180030
06180030
06180030
06000030
06000070
06000FF0
06000FE0
00000000
ENDCHAR
STARTCHAR  4F3C
ENCODING  20284
SWIDTH  1000 0
DWIDTH  30 0
BBX  30 29 0 -2
BITMAP
03008000
070180C0
0601C0C0
0630E0C0
0630E0C0
0E3070C0
0C3070C0
0C3038C0
1C3020C0
1C3000C0
3C3000C0
3C3000C0
7C3000C0
6C3000C0
EC3001C0
4C3001C0
4C300180
0C306180
0C30F380
0C33E300
0C378700
0C3F0780
0C7C0FC0
0C781CE0
0C203C70
0C007838
0C01F038
0C01C010
0C008000
ENDCHAR
STARTCHAR  4F3D
ENCODING  20285
SWIDTH  1000 0
DWIDTH  30 0
BBX  29 30 0 -2
BITMAP
00000000
03180000
07180000
07180000
06180000
06180FF0
0EFFCFF0
0CFFCC30
0C18CC30
1C18CC30
1C18CC30
3C18CC30
3C18CC30
7C18CC30
6C18CC30
6C18CC30
4C18CC30
0C38CC30
0C38CC30
0C30CC30
0C30CC30
0C30CC30
0C30CC30
0C70CC30
0C60CFF0
0CE0CFF0
0CC1CC30
0DCF8C30
0F8F8C30
0C000000
ENDCHAR
STARTCHAR  4F43
ENCODING  20291
SWIDTH  1000 0
DWIDTH  30 0
BBX  29 30 0 -3
BITMAP
01000000
01800000
03800000
031FFFF0
031FFFF0
07181830
06181830
0E181830
0E181830
1E181830
1E181830
3E181830
36181830
761FFFF0
661FFFF0
66181830
06181830
06181830
06181830
06181830
06181830
06181830
06181830
06181830
061FFFF0
061FFFF0
06180030
06180030
06180030
00000000
ENDCHAR
STARTCHAR  4F46
ENCODING  20294
SWIDTH  1000 0
DWIDTH  30 0
BBX  29 29 0 -2
BITMAP
01000000
03800000
039FFFE0
031FFFE0
07180060
06180060
0E180060
0E180060
1C180060
1C180060
3C1FFFE0
3C1FFFE0
7C180060
EC180060
EC180060
4C180060
0C180060
0C180060
0C1FFFE0
0C1FFFE0
0C180060
0C180060
0C000000
0C000000
0C000000
0CFFFFF8
0CFFFFF8
0C000000
0C000000
ENDCHAR
STARTCHAR  4F4D
ENCODING  20301
SWIDTH  1000 0
DWIDTH  30 0
BBX  31 30 -1 -2
BITMAP
00000000
01C03000
01C03800
03801C00
03801C00
03000800
073FFFFC
073FFFFC
0E000000
0E000000
0E040070
1E0C0070
3E0E0070
3E060060
760600E0
760700E0
260300C0
060301C0
060381C0
06038180
06018180
0601C380
0601C300
06000300
06000700
06000600
067FFFFC
067FFFFC
06000000
06000000
ENDCHAR
STARTCHAR  4F4E
ENCODING  20302
SWIDTH  1000 0
DWIDTH  30 0
BBX  30 31 0 -3
BITMAP
00000000
01800000
018001F0
039FFFF8
031FFF00
07181800
06181800
06181800
0E181800
0C181800
1C181800
3C181800
3C181800
7C1FFFF8
6C1FFFF8
EC181C00
4C181C00
0C180C00
0C180C00
0C180C00
0C180C00
0C180E00
0C180608
0C18E60C
0C1BE70C
0C1F831C
0C3E6398
0C3C71F8
0C1038F8
0C001830
00000000
ENDCHAR
STARTCHAR  4F4F
ENCODING  20303
SWIDTH  1000 0
DWIDTH  30 0
BBX  30 31 0 -3
BITMAP
00000000
01C06000
01807000
03803800
03803800
03001000
073FFFF8
063FFFF8
06003000
0E003000
0E003000
1E003000
3E003000
3E003000
76003000
66003000
661FFFF0
461FFFF0
06003000
06003000
06003000
06003000
06003000
06003000
06003000
06003000
06003000
067FFFF8
067FFFF8
06000000
00000000
ENDCHAR
STARTCHAR  4F50
ENCODING  20304
SWIDTH  1000 0
DWIDTH  30 0
BBX  29 29 0 -2
BITMAP
0300C000
0300C000
0701C000
0601C000
06018000
0EFFFFF8
0CFFFFF8
0C030000
1C070000
1C070000
3C060000
3C0E0000
7C0C0000
6C1C0000
EC1FFFF0
4C3FFFF0
0C701800
0C701800
0CE01800
0DC01800
0DC01800
0D801800
0C001800
0C001800
0C001800
0C7FFFF8
0C7FFFF8
0C000000
0C000000
ENDCHAR
STARTCHAR  4F51
ENCODING  20305
SWIDTH  1000 0
DWIDTH  30 0
BBX  30 30 0 -2
BITMAP
00000000
03006000
03006000
0700E000
0600C000
0600C000
0E7FFFF8
0C7FFFF8
0C018000
1C038000
1C030000
3C070000
3C060000
7C0E0000
EC0FFFE0
CC1FFFE0
4C3E0060
0C760060
0C760060
0CE60060
0DC60060
0D860060
0C860060
0C060060
0C060060
0C07FFE0
0C07FFE0
0C060060
0C060060
0C000000
ENDCHAR
STARTCHAR  4F53
ENCODING  20307
SWIDTH  1000 0
DWIDTH  30 0
BBX  30 29 0 -2
BITMAP
02006000
03006000
03006000
07006000
06006000
06006000
0EFFFFF8
0CFFFFF8
1C01F800
1C01EC00
3C036C00
3C036C00
7C076E00
6C066600
EC0E6700
4C0C6300
0C1C6380
0C186180
0C3861C0
0C7060E0
0CE06070
0DE7FF78
0DC7FF38
0D806010
0C006000
0C006000
0C006000
0C006000
0C006000
ENDCHAR
STARTCHAR  4F55
ENCODING  20309
SWIDTH  1000 0
DWIDTH  30 0
BBX  30 31 0 -3
BITMAP
00000000
01800000
01800000
03BFFFFC
033FFFFC
03000060
07000060
06000060
0E000060
0E000060
1E1FF860
1E1FF860
3E181860
3E181860
76181860
66181860
66181860
06181860
06181860
061FF860
061FF860
06180060
06180060
06000060
06000060
06000060
06000060
060000E0
06003FC0
06001F80
00000000
ENDCHAR
STARTCHAR  4F57
ENCODING  20311
SWIDTH  1000 0
DWIDTH  30 0
BBX  29 30 0 -2
BITMAP
00000000
01806000
01807000
03803000
03003800
033FFFF8
073FFFF8
06300018
0E300018
0E300018
1E300000
1E0C0000
3E0C0040
3E0C00E0
760C03C0
660C0F80
660C3E00
460CF800
060FE000
060F8000
060E0000
060C0018
060C0038
060C0038
060C0038
060C0030
060E0070
0607FFE0
0603FFC0
06000000
ENDCHAR
STARTCHAR  4F58
ENCODING  20312
SWIDTH  1000 0
DWIDTH  30 0
BBX  31 30 0 -3
BITMAP
00000000
00038000
0007C000
000EE000
001E7000
003C3800
00701C00
00E00F00
03C00780
0F8003E0
1FFFFFF8
7DFFFE7C
30000018
00000000
00000000
00000000
3FFFFFF8
3FFFFFF8
00018000
00018000
01C18E00
03C18F00
03818780
070181C0
0E0180F0
1C018078
38038038
107F0010
007E0000
00000000
ENDCHAR
STARTCHAR  4F59
ENCODING  20313
SWIDTH  1000 0
DWIDTH  30 0
BBX  31 30 0 -3
BITMAP
00000000
00038000
0007C000
000EE000
001E7000
003C3800
00701C00
00E00F00
03C00780
0F8003E0
1FFFFFF8
7DFFFE7C
30018018
00018000
00018000
00018000
3FFFFFF8
3FFFFFF8
00018000
00018400
01C18E00
03C18F00
07818380
070181C0
0E0180F0
1C018078
38038038
107F0010
007E0000
00000000
ENDCHAR
STARTCHAR  4F5A
ENCODING  20314
SWIDTH  1000 0
DWIDTH  30 0
BBX  30 29 0 -2
BITMAP
01801800
01801800
01801800
038E1800
030E1800
070C1800
061FFFF0
0E1FFFF0
0E381800
1E381800
1E301800
3E701800
36001800
76003800
667FFFF8
467FFFF8
46003C00
06007C00
06006C00
0600E600
0600E600
0601C700
06038380
060701C0
060E01E0
063C00F0
06F80078
06700038
06000000
ENDCHAR
STARTCHAR  4F5B
ENCODING  20315
SWIDTH  1000 0
DWIDTH  30 0
BBX  29 30 0 -2
BITMAP
00000000
03030C00
03030C00
03030C00
07030C00
06FFFFE0
06FFFFE0
0E030C60
0C030C60
1C030C60
1C030C60
3C7FFFE0
3CFFFFE0
7CE30C60
6CE30C00
ECC30C00
4CC30C00
0CC30C00
0CFFFFF0
0CFFFFF0
0C070C30
0C060C30
0C060C30
0C0E0C30
0C1C0DF0
0C3C0DE0
0C780C00
0CF00C00
0CE00C00
0C400000
ENDCHAR
STARTCHAR  4F5C
ENCODING  20316
SWIDTH  1000 0
DWIDTH  30 0
BBX  30 29 0 -2
BITMAP
01030000
01838000
03830000
03870000
03070000
070FFFFC
060FFFFC
0E1C6000
0E1C6000
1E386000
1E386000
3E706000
3E607FF0
76207FF0
66006000
66006000
06006000
06006000
06006000
06007FF8
06007FF8
06006000
06006000
06006000
06006000
06006000
06006000
06006000
06006000
ENDCHAR
STARTCHAR  4F5D
ENCODING  20317
SWIDTH  1000 0
DWIDTH  30 0
BBX  29 30 0 -2
BITMAP
00000000
01830000
01C30000
01870000
03860000
030FFFF8
070FFFF8
071C0038
06380038
0E380038
1E700030
1E6FFC30
3E0FFC30
360C0C30
760C0C30
660C0C30
460C0C30
060C0C30
060C0C30
060C0C30
060FFC30
060FFC30
060C0030
060C0030
06000030
06000030
06000070
06007FE0
06007FC0
06000000
ENDCHAR
STARTCHAR  4F5E
ENCODING  20318
SWIDTH  1000 0
DWIDTH  30 0
BBX  30 30 0 -3
BITMAP
01800000
01800000
03BFFFF0
03BFFFF0
03000000
07000000
06000000
06000000
0E7FFFFC
0E7FFFFC
1E008000
1E00E000
3E00C000
7601C000
6601C000
667FFFFC
067FFFFC
06030180
06070380
06060380
060E0700
060F8700
0603EE00
0600FC00
06007F00
0601F7C0
060FC1F0
067F0078
06780038
00000000
ENDCHAR
STARTCHAR  4F5F
ENCODING  20319
SWIDTH  1000 0
DWIDTH  30 0
BBX  30 30 0 -2
BITMAP
00000000
01C38000
01830000
01870000
0387FFF0
030FFFF0
071E00E0
061F00E0
0E3B01C0
0E738380
1E61C700
1E60FE00
3E007C00
7600FC00
7603FF00
660FC7E0
467F01FC
06F80078
0661C000
0601F800
0600FF00
06001F80
06000300
06080000
061F0000
061FF000
0601FE00
06003FC0
060007C0
06000080
ENDCHAR
STARTCHAR  4F60
ENCODING  20320
SWIDTH  1000 0
DWIDTH  30 0
BBX  30 29 0 -2
BITMAP
01820000
01838000
01830000
03870000
03060000
070FFFF8
070FFFF8
061C0030
0E180030
1E383070
1E303060
3E003060
36003000
76043080
E6063180
660E31C0
460C30C0
061C30E0
061C3060
06183070
06383030
06303038
06703038
06203010
06003000
06003000
0607F000
0607E000
00000000
ENDCHAR
STARTCHAR  4F63
ENCODING  20323
SWIDTH  1000 0
DWIDTH  30 0
BBX  28 29 0 -2
BITMAP
02000000
03000000
033FFFF0
073FFFF0
06303030
0E303030
0C303030
0C303030
1C303030
1C3FFFF0
3C3FFFF0
7C303030
7C303030
EC303030
CC303030
4C303030
0C303030
0C3FFFF0
0C3FFFF0
0C303030
0C703030
0C703030
0C603030
0C603030
0CE03030
0CC03030
0DC037F0
0C8037E0
0C000000
ENDCHAR
STARTCHAR  4F64
ENCODING  20324
SWIDTH  1000 0
DWIDTH  30 0
BBX  30 29 0 -2
BITMAP
00000000
01C00000
01800000
03BFFFF8
03BFFFF8
03060000
07060000
06060000
0E060000
0E07FF00
1E0FFF00
3E0C0300
360C0300
760C0300
660D8300
460DC300
060CE300
060C6300
061C3300
06183B08
0618130C
0618030C
0618030C
06181B1C
0619FB1C
063FF318
063F03F8
063001F0
06000000
ENDCHAR
STARTCHAR  4F65
ENCODING  20325
SWIDTH  1000 0
DWIDTH  30 0
BBX  30 28 0 -1
BITMAP
00038000
00078000
000FC000
001FC000
003CF000
00787800
00F03C00
03C01E00
07800780
1F0003E0
7C0001F8
FBFFFF78
63FFFF10
00000000
00060000
000E0100
060601C0
0E070180
07070380
07030300
03838700
03838700
01800600
01C00E00
00000C00
00001C00
7FFFFFF0
7FFFFFF0
ENDCHAR
STARTCHAR  4F67
ENCODING  20327
SWIDTH  1000 0
DWIDTH  30 0
BBX  30 31 0 -3
BITMAP
00000000
0180C000
0180C000
0380C000
0300C000
0700C000
0700FFE0
0600FFE0
0E00C000
0E00C000
1E00C000
3E00C000
3EFFFFF8
76FFFFF8
66000000
66000000
4600C000
0600C000
0600D000
0600FC00
0600DF00
0600C7C0
0600C1F0
0600C070
0600C030
0600C000
0600C000
0600C000
0600C000
0600C000
00000000
ENDCHAR
STARTCHAR  4F69
ENCODING  20329
SWIDTH  1000 0
DWIDTH  30 0
BBX  30 29 0 -2
BITMAP
00000000
07000000
067FFFC0
067FFFC0
066000C0
0E6000C0
0C6FFEC0
0C6FFEC0
1C6060C0
1C6060C0
3C6060C0
3C67FEC0
7C67FEC0
6C6666C0
6C6666C0
4C6666C0
0C6666C0
0C6666C0
0C6666C0
0C6666C0
0CE666C0
0CC666CC
0CC666CC
0CC67ECC
0DC66CEC
0D80607C
0D806078
0D006038
0C000000
ENDCHAR
STARTCHAR  4F6C
ENCODING  20332
SWIDTH  1000 0
DWIDTH  30 0
BBX  29 29 0 -2
BITMAP
03018000
03818000
03018000
03018020
073FFE30
063FFE70
0E0180E0
0C0181C0
0C018380
1C018780
1C018F00
3DFFFFF8
3DFFFFF8
6C00F000
EC01E000
4C078000
4C1F00C0
0C7C03C0
0DFC1F80
0DCCFE00
0C0FE020
0C0F0030
0C0C0070
0C0C0070
0C0C0060
0C0E00E0
0C07FFE0
0C07FFC0
0C000000
ENDCHAR
STARTCHAR  4F6F
ENCODING  20335
SWIDTH  1000 0
DWIDTH  30 0
BBX  30 30 0 -2
BITMAP
00000000
01C60080
01C601C0
018703C0
03838380
03010700
073FFFF8
063FFFF8
06003000
0E003000
0E003000
1E003000
3E003000
3E1FFFF0
761FFFF0
66003000
66003000
46003000
06003000
06003000
067FFFFC
067FFFFC
06003000
06003000
06003000
06003000
06003000
06003000
06003000
06003000
ENDCHAR
STARTCHAR  4F70
ENCODING  20336
SWIDTH  1000 0
DWIDTH  30 0
BBX  30 29 -1 -2
BITMAP
01800000
01C00000
039FFFFC
039FFFFC
03003000
07007000
06006000
0E006000
0E0FFFF0
1E0FFFF0
1E0C0030
3E0C0030
3E0C0030
760C0030
660C0030
260C0030
060FFFF0
060FFFF0
060C0030
060C0030
060C0030
060C0030
060C0030
060C0030
060C0030
060FFFF0
060FFFF0
060C0030
06000000
ENDCHAR
STARTCHAR  4F73
ENCODING  20339
SWIDTH  1000 0
DWIDTH  30 0
BBX  30 30 0 -3
BITMAP
01000000
01C01800
01801800
03801800
03801800
071FFFF8
071FFFF8
06001800
0E001800
0E001800
1E001800
1E001800
3E3FFFFC
763FFFFC
66000000
66001800
06001800
06001800
061FFFF8
061FFFF8
06001800
06001800
06001800
06001800
06001800
06001800
067FFFFC
067FFFFC
06000000
00000000
ENDCHAR
STARTCHAR  4F74
ENCODING  20340
SWIDTH  1000 0
DWIDTH  30 0
BBX  29 29 0 -2
BITMAP
01000000
03800000
037FFFF0
077FFFF0
06180180
06180180
0E180180
0C180180
1C1FFF80
1C1FFF80
3C180180
7C180180
6C180180
EC180180
4C180180
4C1FFF80
0C1FFF80
0C180180
0C180180
0C180180
0C180188
0C181FF8
0C7FFFF0
0CFFE180
0CC00180
0C000180
0C000180
0C000180
0C000180
ENDCHAR
STARTCHAR  4F76
ENCODING  20342
SWIDTH  1000 0
DWIDTH  30 0
BBX  30 31 0 -3
BITMAP
00000000
01C03000
01803000
03803000
03803000
03003000
077FFFFC
067FFFFC
0E003000
0E003000
1E003000
1E003000
3E3FFFF0
363FFFF0
76000000
66000000
66000000
06000000
061FFFE0
061FFFE0
06180060
06180060
06180060
06180060
06180060
06180060
061FFFE0
061FFFE0
06180060
06180060
00000000
ENDCHAR
STARTCHAR  4F7B
ENCODING  20347
SWIDTH  1000 0
DWIDTH  30 0
BBX  30 30 0 -3
BITMAP
01030C00
03830C00
03030C00
03030C00
07030C20
06E30C38
0E630C70
0C730C70
1C330CE0
1C3B0CC0
3C3B0CC0
3C030C00
7C030C00
EC030C00
6C070E00
4C0F0F80
0C3F0FE0
0C7B0CF0
0CE30C30
0CC70C10
0C060C00
0C060C18
0C0E0C18
0C1C0C18
0C1C0C18
0C380C38
0CF00FF8
0DE007F0
0CC00000
00000000
ENDCHAR
STARTCHAR  4F7C
ENCODING  20348
SWIDTH  1000 0
DWIDTH  30 0
BBX  29 30 0 -3
BITMAP
00002000
01806000
03807000
03003000
03003000
077FFFF8
067FFFF8
06000000
0E020200
0E070700
1E0E0380
1E0E01C0
3E1C00E0
36380070
76760338
66660310
46270700
06030600
06038E00
06018C00
0601DC00
0600F800
06007000
0600FC00
0603DE00
06078F80
061F03F0
06FC00F0
06700020
00000000
ENDCHAR
STARTCHAR  4F7E
ENCODING  20350
SWIDTH  1000 0
DWIDTH  30 0
BBX  30 29 0 -2
BITMAP
00000000
01820E00
03838600
03030600
03070700
06060300
060E0380
0E1C01C0
0C1800E0
1C3FFFF0
1C7FFFF8
3CF800F8
7CD800D0
6C5800C0
EC1800C0
4C1FFFC0
0C1FFFC0
0C1800C0
0C1800C0
0C1800C0
0C1FFFC0
0C1FFFC0
0C1800C0
0C1800C0
0C1800C0
0C1801C0
0C183FC0
0C183F80
0C180000
ENDCHAR
STARTCHAR  4F7F
ENCODING  20351
SWIDTH  1000 0
DWIDTH  30 0
BBX  30 31 0 -3
BITMAP
00000000
03003000
03003000
03003000
07003000
06FFFFF8
06FFFFF8
0E003000
0C003000
1C003000
1C3FFFF0
1C3FFFF0
3C303030
7C303030
6C303030
6C303030
4C3FFFF0
0C3FFFF0
0C007030
0C087000
0C1C6000
0C0C6000
0C0EE000
0C07C000
0C03C000
0C07F000
0C1F7F00
0C7C1FF8
0DF003F8
0CC00030
00000000
ENDCHAR
STARTCHAR  4F83
ENCODING  20355
SWIDTH  1000 0
DWIDTH  30 0
BBX  30 29 0 -2
BITMAP
02000000
03000000
033FFFE0
033FFFE0
06300060
06300060
0E300060
0C300060
0C300060
1C300060
1C3FFFE0
3C3FFFE0
3C300060
6C300060
EC000000
4C186180
4C186180
0C186180
0C186180
0C186180
0C186180
0C186188
0C38618C
0C30618C
0C30619C
0C70619C
0CE061F8
0DC060F0
0C800000
ENDCHAR
STARTCHAR  4F84
ENCODING  20356
SWIDTH  1000 0
DWIDTH  30 0
BBX  29 31 0 -3
BITMAP
00000000
01800000
03800000
03BFFFF0
033FFFF0
0700C000
0601C000
0E038100
0C030300
1C070180
1C0E01C0
3C1C00C0
3C3FFFE0
7C3FFFF0
EC180030
EC000020
4C003000
0C003000
0C003000
0C3FFFF0
0C3FFFF0
0C003000
0C003000
0C003000
0C003000
0C003000
0C003000
0CFFFFF8
0CFFFFF8
0C000000
00000000
ENDCHAR
STARTCHAR  4F88
ENCODING  20360
SWIDTH  1000 0
DWIDTH  30 0
BBX  30 30 0 -3
BITMAP
01000000
01C0E000
0181C000
0383FFF0
0307FFF0
070F0070
061E00E0
0E3DC1C0
0E79E380
1E207F00
1E003E00
3E00F800
7603E000
E61FB800
667E7000
4670FFF8
0601FFF8
06038038
06070030
060E0070
063CE0E0
0678F1C0
06303F80
06001F00
06007C00
0601F000
061FC000
067F0000
06300000
00000000
ENDCHAR
STARTCHAR  4F89
ENCODING  20361
SWIDTH  1000 0
DWIDTH  30 0
BBX  31 29 0 -2
BITMAP
00000000
03806000
0380E000
0300C000
077FFFF8
067FFFF8
06038E00
0C070700
0C0E0380
1C1C01E0
1C7FFFF8
3CFFFF78
3CE00018
6C000000
EC000000
4CFFFFF0
4CFFFFF0
0C0E0000
0C0C0000
0C0FFFC0
0C0FFFC0
0C0000C0
0C0000C0
0C0000C0
0C0001C0
0C000180
0C01FF80
0C01FF00
0C000000
ENDCHAR
STARTCHAR  4F8B
ENCODING  20363
SWIDTH  1000 0
DWIDTH  30 0
BBX  29 30 0 -2
BITMAP
00000000
03000030
07000030
067FF030
067FF030
0E0C0030
0C0C0630
0C180630
1C180630
1C1FE630
1C3FE630
3C30E630
3C30E630
6C70C630
6C60C630
CCE0C630
4CD9C630
0DDF8630
0D8F8630
0C838630
0C030630
0C070630
0C060630
0C0E0030
0C1C0030
0C380030
0C700030
0CF007F0
0CE007E0
0C000000
ENDCHAR
STARTCHAR  4F8D
ENCODING  20365
SWIDTH  1000 0
DWIDTH  30 0
BBX  29 30 0 -2
BITMAP
00000000
01803000
03803000
03003000
07003000
073FFFF0
063FFFF0
0E003000
0C003000
1C003000
1C003000
3CFFFFF8
7CFFFFF8
7C000000
EC000300
CC000300
4C000300
0C7FFFF8
0C7FFFF8
0C000300
0C080300
0C1C0300
0C0E0300
0C070300
0C030300
0C020300
0C000300
0C00FF00
0C00FE00
0C000000
ENDCHAR
STARTCHAR  4F8F
ENCODING  20367
SWIDTH  1000 0
DWIDTH  30 0
BBX  30 30 0 -3
BITMAP
02003000
03003000
030C3000
070C3000
060C3000
061C3000
0E1FFFE0
0C3FFFE0
1C383000
1C703000
3C603000
3C203000
7C003000
6CFFFFF8
ECFFFFF8
4C00F800
0C00FC00
0C01BC00
0C03B600
0C033700
0C073300
0C0E3180
0C1C31C0
0C3830E0
0C703078
0CE03038
0CC03010
0C003000
0C003000
00000000
ENDCHAR
STARTCHAR  4F91
ENCODING  20369
SWIDTH  1000 0
DWIDTH  30 0
BBX  31 29 -1 -2
BITMAP
01006000
01806000
0180E000
0300C000
033FFFFC
033FFFFC
06018000
06038000
0E030000
0E07FFF0
1E0FFFF0
1E0E0030
361E0030
763E0030
66760030
66E7FFF0
06C7FFF0
06060030
06060030
06060030
0607FFF0
0607FFF0
06060030
06060030
06060030
06060030
060607F0
060607E0
06060000
ENDCHAR
STARTCHAR  4F94
ENCODING  20372
SWIDTH  1000 0
DWIDTH  30 0
BBX  29 31 0 -3
BITMAP
00000000
0380C000
0301C000
03038000
07070700
06060380
060C0180
0E3C00C0
0C7FFFE0
1C7FFFF0
1C600030
3C003030
3C183000
7C183000
6C383000
EC3FFFF0
4C7FFFF0
0C603000
0CE03000
0DC03000
0C403000
0C003000
0DFFFFF8
0DFFFFF8
0C003000
0C003000
0C003000
0C003000
0C003000
0C003000
00000000
ENDCHAR
STARTCHAR  4F97
ENCODING  20375
SWIDTH  1000 0
DWIDTH  30 0
BBX  29 29 0 -2
BITMAP
02000000
03000000
033FFFF0
073FFFF0
06300030
06300030
0C300030
0C37FF30
1C37FF30
1C300030
3C300030
3C300030
7C31FE30
6C31FE30
6C318630
4C318630
0C318630
0C318630
0C318630
0C318630
0C31FE30
0C31FE30
0C318030
0C300030
0C300030
0C300030
0C300FF0
0C300FE0
0C300000
ENDCHAR
STARTCHAR  4F9B
ENCODING  20379
SWIDTH  1000 0
DWIDTH  30 0
BBX  31 29 -1 -2
BITMAP
00830180
00C30180
01C30180
01830180
03830180
03830180
03030180
073FFFF8
0E3FFFF8
0E030180
1E030180
1E030180
3E030180
76030180
76030180
66030180
06030180
067FFFFC
067FFFFC
06000000
06010300
0601C780
060383C0
060701E0
060E00F0
061C0078
0638003C
0670001C
06200008
ENDCHAR
STARTCHAR  4F9D
ENCODING  20381
SWIDTH  1000 0
DWIDTH  30 0
BBX  30 31 0 -3
BITMAP
00000000
0200C000
0300E000
0300E000
07007000
06002000
06FFFFF8
0EFFFFF8
0C00E000
0C01E000
1C01E000
1C03E020
3C076070
7C0670F0
6C0E31C0
EC1C3780
4C3C3F00
0C7C1C00
0CEC1C00
0DCC0C00
0D8C0E00
0D0C0700
0C0C0780
0C0C23C0
0C0C71E0
0C0DE0F0
0C0FC078
0C1F0030
0C1C0000
0C080000
00000000
ENDCHAR
STARTCHAR  4FA0
ENCODING  20384
SWIDTH  1000 0
DWIDTH  30 0
BBX  30 30 0 -2
BITMAP
00000000
01C03000
01C03000
01803000
03803000
033FFFF0
073FFFF0
07003000
0E003000
0E183060
1E1C30F0
1E0E30E0
3E0E31C0
76043180
76003000
66003000
467FFFFC
067FFFFC
06007800
06007C00
0600EC00
0600CE00
0601C700
06038300
060703C0
061E01E0
063C00F8
06F8007C
06600018
00000000
ENDCHAR
STARTCHAR  4FA3
ENCODING  20387
SWIDTH  1000 0
DWIDTH  30 0
BBX  28 29 0 -2
BITMAP
02000000
03800000
031FFFE0
031FFFE0
07180060
06180060
0E180060
0C180060
0C180060
1C180060
1C1FFFE0
3C1FFFE0
3C180060
6C180060
EC000000
4C3FFFF0
0C3FFFF0
0C300030
0C300030
0C300030
0C300030
0C300030
0C300030
0C300030
0C300030
0C3FFFF0
0C3FFFF0
0C300030
0C300030
ENDCHAR
STARTCHAR  4FA5
ENCODING  20389
SWIDTH  1000 0
DWIDTH  30 0
BBX  30 29 0 -2
BITMAP
02060000
03060000
03070020
07030FE0
0603FFE0
067FF800
0EFF80C0
0C41C1C0
0C00C780
1C00EF10
1C007C18
3C00F818
3C07FE18
6C3F0FB0
ECFC03F0
4C6000E0
4C000000
0CFFFFF8
0CFFFFF8
0C030C00
0C030C00
0C030C10
0C070C18
0C060C18
0C0E0C18
0C3C0C18
0CF80FF8
0DE007F0
0C800000
ENDCHAR
STARTCHAR  4FA6
ENCODING  20390
SWIDTH  1000 0
DWIDTH  30 0
BBX  29 30 0 -3
BITMAP
01006000
03806000
03806000
03007FF8
07007FF8
06006000
0E006000
0E006000
1C006000
1C3FFFE0
3C3FFFE0
3C300060
7C300060
EC303060
EC303060
4C303060
0C303060
0C303060
0C303060
0C306060
0C306060
0C307060
0C30FC60
0C01CE00
0C038780
0C0F03C0
0C3E00F0
0CFC0078
0C700010
00000000
ENDCHAR
STARTCHAR  4FA7
ENCODING  20391
SWIDTH  1000 0
DWIDTH  30 0
BBX  29 30 0 -3
BITMAP
00000000
03000018
077FF018
067FF318
06603318
06603318
0C663318
0C663318
1C663318
1C663318
1C663318
3C663318
3C663318
6C663318
6C663318
4C663318
4C663318
0C663318
0C663318
0C663318
0C6C3318
0C0F0318
0C0F8318
0C19C018
0C38E018
0C307018
0CE03818
0DE013F8
0CC003F0
00000000
ENDCHAR
STARTCHAR  4FA8
ENCODING  20392
SWIDTH  1000 0
DWIDTH  30 0
BBX  31 30 -1 -3
BITMAP
00800000
00C000F0
01DFFFF0
018FFFC0
03803000
03803000
07003000
07003000
06007000
0E3FFFFC
1E3FFFFC
1E00C600
3E01C700
76038380
760701C0
660E00F0
063C007C
06FB01BC
06630188
06030180
06030180
06030180
06030180
06070180
06060180
060E0180
061C0180
06780180
06300180
00000000
ENDCHAR
STARTCHAR  4FA9
ENCODING  20393
SWIDTH  1000 0
DWIDTH  30 0
BBX  30 29 0 -2
BITMAP
01007000
01807000
0380F800
0301D800
07019C00
06038E00
0E070700
0E0E0380
1C1C01C0
1C7800F0
3CF00078
3CCFFFB0
7C0FFF80
EC000000
EC000000
4C000000
0C000000
0CFFFFF0
0CFFFFF0
0C01C000
0C038000
0C070E00
0C0E0700
0C1C0380
0C3801C0
0C7FFFE0
0C7FFFF0
0C380030
0C000020
ENDCHAR
STARTCHAR  4FAA
ENCODING  20394
SWIDTH  1000 0
DWIDTH  30 0
BBX  30 30 0 -3
BITMAP
00004000
0380E000
03007000
07003000
077FFFF8
067FFFF8
0E0C0380
0C0E0300
0C070700
1C038E00
1C01FC00
3C00F800
3C01FC00
7C0FDF80
EC7F07FC
4CF800F8
4CC60300
0C060300
0C060300
0C060300
0C060300
0C0E0300
0C0C0300
0C0C0300
0C1C0300
0C380300
0CF00300
0DE00300
0CC00300
00000000
ENDCHAR
STARTCHAR  4FAC
ENCODING  20396
SWIDTH  1000 0
DWIDTH  30 0
BBX  30 30 0 -3
BITMAP
02002000
03003000
03003000
03003000
06007000
067FFFF0
0E7FFFF0
0C60E030
0C60E030
1C61E030
1C01B000
3C03B000
3C033060
7C0730F0
EC0619E0
4C0E1B80
4C1E1F00
0C3E0E00
0C7E0E00
0CF60600
0DE60700
0DC60380
0C8601C0
0C0618E0
0C0678F0
0C07F078
0C0FC010
0C0F0000
0C040000
00000000
ENDCHAR
STARTCHAR  4FAE
ENCODING  20398
SWIDTH  1000 0
DWIDTH  30 0
BBX  30 29 0 -2
BITMAP
03030000
03860000
030E0000
070FFFF8
061FFFF8
06380000
0C700000
0CEFFFC0
1C4FFFC0
1C5C00C0
3C1C60C0
3C1870C0
7C1838C0
EC1810C0
EC1800C0
4CFFFFFC
0CFFFFFC
0C1800C0
0C38C0C0
0C3870C0
0C3030C0
0C3000C0
0C3FFFF8
0C3FFFF8
0C0000C0
0C0001C0
0C007F80
0C007F00
0C000000
ENDCHAR
STARTCHAR  4FAF
ENCODING  20399
SWIDTH  1000 0
DWIDTH  30 0
BBX  29 30 0 -3
BITMAP
02000000
03000000
031FFFC0
061FFFC0
060000C0
0E0000C0
0C0000C0
0CFFFFF8
1CFFFFF8
1C000000
3C0E0000
3C0E0000
7C1C0000
6C1FFFF0
EC3FFFF0
4C703000
0CF03000
0C603000
0C003000
0CFFFFF0
0CFFFFF0
0C007800
0C00FC00
0C01CE00
0C038700
0C0F03C0
0C3E01F0
0CF800F8
0CE00030
00000000
ENDCHAR
STARTCHAR  4FB5
ENCODING  20405
SWIDTH  1000 0
DWIDTH  30 0
BBX  30 30 0 -2
BITMAP
00000000
03800000
033FFFE0
033FFFE0
07000060
06000060
061FFFE0
0E1FFFE0
0C000060
1C000060
1C3FFFE0
3C3FFFE0
3C000060
7C000000
6CFFFFF8
ECFFFFF8
4CC00018
0CC00018
0CDFFFD8
0C1FFFC0
0C0E0180
0C070380
0C038700
0C01CE00
0C00FC00
0C00F800
0C03FF00
0C3F87F0
0CFE01F8
0C600030
ENDCHAR
STARTCHAR  4FBF
ENCODING  20415
SWIDTH  1000 0
DWIDTH  30 0
BBX  31 29 -1 -2
BITMAP
00000000
01C00000
01DFFFFC
019FFFFC
03801800
03001800
071FFFF8
061FFFF8
0E181818
0E181818
1E181818
1E1FFFF8
3E1FFFF8
76181818
76181818
66181818
061FFFF8
061FFFF8
06081800
060C3800
060E3000
0607F000
0603E000
0601F800
0603FF00
060F8FFC
067E03FC
06780018
00000000
ENDCHAR
STARTCHAR  4FC3
ENCODING  20419
SWIDTH  1000 0
DWIDTH  30 0
BBX  30 29 0 -2
BITMAP
02000000
03800000
031FFFE0
031FFFE0
07180060
06180060
0E180060
0C180060
0C180060
1C180060
1C1FFFE0
3C1FFFE0
3C183060
6C003000
EC003000
4C1C3000
4C183000
0C183FF0
0C183FF0
0C183000
0C383000
0C3C3000
0C3C3000
0C763000
0C67F000
0CE1FFF8
0DC0FFF8
0C800000
00000000
ENDCHAR
STARTCHAR  4FC4
ENCODING  20420
SWIDTH  1000 0
DWIDTH  30 0
BBX  31 30 0 -2
BITMAP
00000000
03800C00
03000C00
0303CCC0
07FFECE0
067C0C70
060C0C38
0C0C0C10
0C0C0C00
1C0C0C00
1DFFFFFC
3DFFFFFC
3C0C0C00
7C0C0C00
6C0C0C10
6C0C0C38
4C0CEC30
0C0FEC70
0CFF8EE0
0CFC07C0
0C8C0780
0C0C0700
0C0C0E0C
0C0C3F0C
0C0C7B0C
0C0CE39C
0C0CC198
0CFC01F8
0CF800F8
0C000030
ENDCHAR
STARTCHAR  4FC5
ENCODING  20421
SWIDTH  1000 0
DWIDTH  30 0
BBX  30 30 0 -2
BITMAP
00000000
03006200
03806300
030063C0
070061E0
070060C0
06006000
0EFFFFF8
0CFFFFF8
1C006000
1C006000
3C606020
3C707070
7C7070F0
6C3871E0
EC1C7B80
4C0C7F00
0C086E00
0C01EE00
0C07E700
0C1F6300
0C7C6380
0DF061E0
0CE060F0
0C00607C
0C006018
0C00E000
0C1FE000
0C0FC000
0C000000
ENDCHAR
STARTCHAR  4FCA
ENCODING  20426
SWIDTH  1000 0
DWIDTH  30 0
BBX  31 31 -1 -3
BITMAP
00000000
00806000
01C0E000
01C0C000
01818300
03838380
030701C0
070E00E0
063FFFF0
0E1FFFF8
0E100018
1E020100
1E0703C0
3E0E01F0
763C007C
7679C018
26618008
0603FFE0
0607FFE0
060F00C0
061F81C0
0639C380
0670E700
0620FE00
06003C00
06007E00
0603EF80
061F83F8
067E00FC
06300018
00000000
ENDCHAR
STARTCHAR  4FCE
ENCODING  20430
SWIDTH  1000 0
DWIDTH  30 0
BBX  30 28 0 -1
BITMAP
02000000
03000000
0307FFE0
0307FFE0
07060060
07060060
07860060
0F860060
0DC60060
1CE60060
1877FFE0
3837FFE0
70260060
72060060
23060060
03060060
07060060
06060060
0707FFE0
0F87FFE0
0D860060
0DC60060
1CE60060
38760060
38260060
70060060
603FFFFC
203FFFFC
ENDCHAR
STARTCHAR  4FCF
ENCODING  20431
SWIDTH  1000 0
DWIDTH  30 0
BBX  29 29 0 -2
BITMAP
00000000
03803000
03303030
07383070
061C30F0
060E30E0
0E0631C0
0C043080
1C003000
1C3FFFF0
3C3FFFF0
3C300030
7C300030
6C300030
6C3FFFF0
4C3FFFF0
0C300030
0C300030
0C300030
0C300030
0C3FFFF0
0C3FFFF0
0C300030
0C300030
0C300030
0C300030
0C301FF0
0C300FF0
0C300FE0
ENDCHAR
STARTCHAR  4FD0
ENCODING  20432
SWIDTH  1000 0
DWIDTH  30 0
BBX  29 30 0 -2
BITMAP
00000000
03000030
0701C030
06FFE030
067F0030
06060030
0E060630
0C060630
0C060630
1C060630
1DFFE630
3DFFE630
3C0E0630
7C0E0630
6C0E0630
EC1F8630
4C1F8630
4C36C630
0C36E630
0C664630
0CE60630
0CC60630
0DC60630
0C860030
0C060030
0C060030
0C060030
0C0607F0
0C0607E0
0C060000
ENDCHAR
STARTCHAR  4FD1
ENCODING  20433
SWIDTH  1000 0
DWIDTH  30 0
BBX  29 31 0 -3
BITMAP
00000000
03800000
033FFFF0
073FFFF0
070001E0
06040380
0E0F0F00
0E07DE00
0C01F800
1C007800
1C3FFFF0
3C3FFFF0
3C303030
7C303030
6C303030
6C3FFFF0
4C3FFFF0
0C303030
0C303030
0C303030
0C303030
0C3FFFF0
0C3FFFF0
0C303030
0C303030
0C303030
0C303030
0C303070
0C3037F0
0C3007E0
00000000
ENDCHAR
STARTCHAR  4FD7
ENCODING  20439
SWIDTH  1000 0
DWIDTH  30 0
BBX  30 30 0 -3
BITMAP
01000000
01800000
03830600
03070700
030E0380
061C01C0
063800E0
0E387070
0CF0F038
1CE0D818
1C41DC00
3C038E00
7C070700
6C0E0380
EC1C01C0
4C3800F0
0CF0007C
0CFFFFF8
0C1FFFC0
0C1800C0
0C1800C0
0C1800C0
0C1800C0
0C1800C0
0C1800C0
0C1FFFC0
0C1FFFC0
0C1800C0
0C1800C0
00000000
ENDCHAR
STARTCHAR  4FD8
ENCODING  20440
SWIDTH  1000 0
DWIDTH  30 0
BBX  29 30 0 -3
BITMAP
01000000
038007F0
03FFFFF0
033FFE00
07000000
0610E070
0E306060
0C3870E0
1C1C31C0
1C0C3380
3C080100
3C000000
7C3FFFE0
EC3FFFE0
EC0003C0
4C000780
0C000E00
0C003C00
0C003000
0DFFFFF8
0DFFFFF8
0C003000
0C003000
0C003000
0C003000
0C003000
0C003000
0C07F000
0C07E000
00000000
ENDCHAR
STARTCHAR  4FDA
ENCODING  20442
SWIDTH  1000 0
DWIDTH  30 0
BBX  30 29 0 -2
BITMAP
00000000
03000000
073FFFE0
063FFFE0
06303060
0E303060
0C303060
0C303060
1C3FFFE0
1C3FFFE0
3C303060
3C303060
7C303060
6C303060
EC3FFFE0
4C3FFFE0
0C303060
0C003000
0C003000
0C003000
0C7FFFF0
0C7FFFF0
0C003000
0C003000
0C003000
0C003000
0CFFFFF8
0CFFFFF8
0C000000
ENDCHAR
STARTCHAR  4FDC
ENCODING  20444
SWIDTH  1000 0
DWIDTH  30 0
BBX  30 29 0 -2
BITMAP
00800000
01C03000
01803000
019FFFF0
039FFFF0
03183030
06183030
061FFFF0
0E1FFFF0
0E183030
1E183030
3E183030
361FFFF0
761FFFF0
66000000
46000000
467FFFFC
067FFFFC
06060000
06060000
060FFFE0
060FFFE0
06000060
06000060
060000E0
060000E0
0600FFC0
0600FF80
06000000
ENDCHAR
STARTCHAR  4FDD
ENCODING  20445
SWIDTH  1000 0
DWIDTH  30 0
BBX  30 29 0 -2
BITMAP
00000000
03800000
031FFFE0
031FFFE0
06180060
06180060
06180060
0C180060
0C180060
1C1FFFE0
1C1FFFE0
3C183060
3C183060
7C003000
EC003000
4CFFFFFC
0CFFFFFC
0C01FC00
0C01B600
0C033600
0C073300
0C0E31C0
0C1C30E0
0C383078
0CF03038
0CE03018
0C003000
0C003000
00000000
ENDCHAR
STARTCHAR  4FDE
ENCODING  20446
SWIDTH  1000 0
DWIDTH  30 0
BBX  31 29 0 -2
BITMAP
00038000
0007C000
000EE000
001C7000
00783C00
00F01E00
03C00780
0F7FFDF0
7E7FFCFC
78000018
00000000
0FFE0060
0FFE1860
0C061860
0C061860
0C061860
0FFE1860
0FFE1860
0C061860
0C061860
0C061860
0FFE1860
0FFE1860
0C060060
0C060060
0C060060
0C7E0FE0
0C7C0FC0
0C000000
ENDCHAR
STARTCHAR  4FDF
ENCODING  20447
SWIDTH  1000 0
DWIDTH  30 0
BBX  30 30 0 -3
BITMAP
02004000
0300E000
0701C000
07038700
06070380
0E0E01C0
0C1C01E0
1C7FFFE0
1C3FFFF0
1C300030
3C0E0000
7C0C0000
7C1FFFE0
EC3FFFE0
CC703000
4C703000
0CE03000
0C403000
0C007000
0CFFFFF8
0CFFFFF8
0C007800
0C00FC00
0C01CC00
0C03CF00
0C078780
0C3E01F0
0DFC00F8
0CF00030
00000000
ENDCHAR
STARTCHAR  4FE1
ENCODING  20449
SWIDTH  1000 0
DWIDTH  30 0
BBX  29 29 0 -2
BITMAP
03006000
03006000
03007000
03003000
06FFFFF8
06FFFFF8
0E000000
0C000000
0C000000
1C3FFFE0
1C3FFFE0
3C000000
7C000000
6C000000
EC3FFFE0
4C3FFFE0
0C000000
0C000000
0C1FFFE0
0C1FFFE0
0C180060
0C180060
0C180060
0C180060
0C180060
0C1FFFE0
0C1FFFE0
0C180060
0C180060
ENDCHAR
STARTCHAR  4FE3
ENCODING  20451
SWIDTH  1000 0
DWIDTH  30 0
BBX  30 31 0 -3
BITMAP
00000000
03800000
031FFFE0
031FFFE0
07180060
07180060
06180060
0E180060
0C180060
0C1FFFE0
1C1FFFE0
1C180060
3C000000
3C000000
7C7FFFF0
EC7FFFF0
4C006000
4C006000
0C006000
0CFFFFF8
0CFFFFF8
0C00F000
0C00F800
0C019C00
0C038E00
0C070F00
0C1E07C0
0C7C01F8
0DF000F8
0CC00010
00000000
ENDCHAR
STARTCHAR  4FE6
ENCODING  20454
SWIDTH  1000 0
DWIDTH  30 0
BBX  30 29 0 -2
BITMAP
02006000
03006000
03006000
077FFFF8
067FFFF8
0600E000
0E00C000
0C00C000
0C3FFFF0
1C3FFFF0
1C01C000
3C018000
3C018000
6DFFFFF8
EDFFFFF8
4C030180
4C070180
0C0E0180
0C0FFFF8
0C1FFFF8
0C380180
0C730180
0CE18180
0DC1C180
0D80C180
0C000380
0C007F80
0C007F00
0C000000
ENDCHAR
STARTCHAR  4FE8
ENCODING  20456
SWIDTH  1000 0
DWIDTH  30 0
BBX  30 29 0 -2
BITMAP
03000000
03800000
037FFFF8
077FFFF8
06018600
06218618
0E718618
0C398630
1C198670
1C1D86E0
3C0986C0
3C018600
7C3FFFF8
6C3FFFF8
6C300000
4C300000
0C300000
0C300000
0C300000
0C300000
0C300000
0C700000
0C600000
0C600000
0CE00000
0CC00000
0DC00000
0D800000
0C800000
ENDCHAR
STARTCHAR  4FE9
ENCODING  20457
SWIDTH  1000 0
DWIDTH  30 0
BBX  30 30 0 -3
BITMAP
02000000
03000000
037FFFF8
037FFFF8
06018600
06018600
0E018600
0C018600
0C7FFFF8
1C7FFFF8
1C618618
3C618618
3C618618
6C618618
6C63C618
4C63EE18
4C637F18
0C672F98
0C661DD8
0C6E18F8
0C6C1858
0C7C3018
0C687018
0C602018
0C600018
0C600018
0C6007F8
0C6007F0
0C600000
00000000
ENDCHAR
STARTCHAR  4FEA
ENCODING  20458
SWIDTH  1000 0
DWIDTH  30 0
BBX  29 30 0 -3
BITMAP
02000000
03000000
03FFFFF8
06FFFFF8
06000000
06000000
0E000000
0C7F8FF0
0C7F8FF0
1C618C30
1C618C30
3C618C30
3C618C30
7C698D30
6C698DB0
4C698DB0
4C6D8DB0
0C6D8CB0
0C6D8CB0
0C658CB0
0C618C30
0C618C30
0C618C30
0C618C30
0C618C30
0C618C30
0C618C30
0C6F8DF0
0C6F0DE0
00000000
ENDCHAR
STARTCHAR  4FED
ENCODING  20461
SWIDTH  1000 0
DWIDTH  30 0
BBX  30 30 0 -3
BITMAP
01800000
01C03800
01807800
0380EC00
0301CE00
07018700
06038380
060701C0
0E1E00E0
0E3C0078
1E78003C
3E67FFD8
3E07FFC0
76000000
66002000
66006060
06386060
061870E0
061C30C0
061C30C0
060C31C0
060E3980
060E3980
06060380
06000300
06000700
067FFFF8
067FFFF8
06000000
00000000
ENDCHAR
STARTCHAR  4FEE
ENCODING  20462
SWIDTH  1000 0
DWIDTH  30 0
BBX  30 30 0 -3
BITMAP
0300C000
0600C000
06018000
0603FFE0
0603FFE0
0CC700C0
0CCF81C0
0CCCC380
1CD8E700
1CC87E00
3CC03E00
3CC0FF80
7CC3C3F8
6CDF00F8
ECDC0C10
4CC03C00
4CC0F000
0CC7C180
0CCF0780
0CC40E00
0CC03C20
0CC1F070
0CC7C1E0
0C070780
0C001F00
0C007C00
0C03F000
0C1FC000
0C1E0000
00000000
ENDCHAR
STARTCHAR  4FEF
ENCODING  20463
SWIDTH  1000 0
DWIDTH  30 0
BBX  30 29 0 -2
BITMAP
02003000
03003000
07003800
06001800
067FFFFC
0E7FFFFC
0C60C0C0
0C60C0C0
1C60C0C0
1C61C0C0
3C6180C0
3C63BFFC
7C63BFFC
6C6780C0
6C6F80C0
4C6F90C0
0C7D98C0
0C6998C0
0C619CC0
0C618CC0
0C618CC0
0CE180C0
0CC180C0
0CC180C0
0CC180C0
0DC180C0
0D819FC0
0D819F80
0C000000
ENDCHAR
STARTCHAR  4FF1
ENCODING  20465
SWIDTH  1000 0
DWIDTH  30 0
BBX  30 29 0 -2
BITMAP
00000000
03800000
031FFFC0
031FFFC0
071800C0
061800C0
061FFFC0
0C1FFFC0
0C1800C0
1C1800C0
1C1FFFC0
3C1FFFC0
3C1800C0
6C1800C0
EC1800C0
4C1FFFC0
4C1FFFC0
0C1800C0
0C1800C0
0CFFFFFC
0CFFFFFC
0C000400
0C030E00
0C070780
0C0E03C0
0C3C00E0
0C780070
0C600030
0C400000
ENDCHAR
STARTCHAR  4FF3
ENCODING  20467
SWIDTH  1000 0
DWIDTH  30 0
BBX  29 29 0 -2
BITMAP
00000000
03830C00
03030C00
03030C00
07030C00
06030C00
06FF0FF0
0EFF0FF0
0C030C00
1C030C00
1C030C00
3C030C00
3C030C00
7C7F0FF0
6C7F0FF0
6C030C00
4C030C00
0C030C00
0C030C00
0C030C00
0CFF0FF8
0CFF0FF8
0C030C00
0C030C00
0C030C00
0C030C00
0C030C00
0C030C00
0C030C00
ENDCHAR
STARTCHAR  4FF8
ENCODING  20472
SWIDTH  1000 0
DWIDTH  30 0
BBX  31 29 -1 -2
BITMAP
01803000
01C03000
01803000
03BFFFF8
033FFFF8
03006000
07006000
061FFFF0
0E1FFFF0
0E00C000
1E00C000
1E00C000
3E7FFFFC
767FFFFC
66038300
66073180
060E30C0
061C3070
067FFFFC
06F7FFDC
06403000
06003000
063FFFF8
063FFFF8
06003000
06003000
06003000
06003000
06003000
ENDCHAR
STARTCHAR  4FFA
ENCODING  20474
SWIDTH  1000 0
DWIDTH  30 0
BBX  30 29 0 -2
BITMAP
00004000
0380E000
0300C000
0301C000
077FFFF0
067FFFF0
0E070E00
0C060700
1C0E6380
1C3C61C0
3C7860F0
3CF06078
7DFFFFF0
ECBFFFC0
4C3060C0
4C3060C0
0C3FFFC0
0C3FFFC0
0C3060C0
0C3060C0
0C3060C0
0C3FFFC0
0C3FFFDC
0C306018
0C006018
0C006038
0C007FF8
0C003FE0
0C000000
ENDCHAR
STARTCHAR  4FFE
ENCODING  20478
SWIDTH  1000 0
DWIDTH  30 0
BBX  30 30 0 -2
BITMAP
00000000
01806000
0180E000
0180C000
03BFFFF0
033FFFF0
03303030
07303030
06303030
0E303030
1E3FFFF0
1E3FFFF0
3E303030
36307030
76306030
663FFFF0
463FFFF0
0601C030
06038C30
060F0C00
063C0C00
06180C00
067FFFFC
067FFFFC
06000C00
06000C00
06000C00
06000C00
06000C00
06000C00
ENDCHAR
STARTCHAR  500C
ENCODING  20492
SWIDTH  1000 0
DWIDTH  30 0
BBX  30 29 0 -2
BITMAP
01000000
01C07000
01807000
03803000
033FFFF8
033FFFF8
07300018
06300018
0E300018
0E1FFFE0
1E1FFFE0
3E180060
36180060
76180060
661FFFE0
461FFFE0
06180060
06180060
06180000
061FFFF0
061FFFF0
06180030
06180030
06180030
06180030
061FFFF0
061FFFF0
06180030
06180030
ENDCHAR
STARTCHAR  500D
ENCODING  20493
SWIDTH  1000 0
DWIDTH  30 0
BBX  30 30 0 -2
BITMAP
00000000
03006000
03007000
03003800
07003000
067FFFF0
067FFFF0
0E040080
0C0E01C0
1C0601C0
1C070380
3C038300
3C020300
7CFFFFF8
6CFFFFF8
EC000000
4C000000
0C000000
0C1FFFE0
0C1FFFE0
0C180060
0C180060
0C180060
0C180060
0C180060
0C180060
0C1FFFE0
0C1FFFE0
0C180060
0C180060
ENDCHAR
STARTCHAR  500F
ENCODING  20495
SWIDTH  1000 0
DWIDTH  30 0
BBX  30 30 0 -3
BITMAP
0300C000
0300C000
0701C000
0701FFF0
0603FFF0
0E638060
0C6780E0
0C6EC1C0
1C7C7780
1C683E00
1C603E00
3C60FFC0
3C63E3FC
6C7F8078
6C6E3380
4C6031E0
4C6030F0
0C603020
0C7FFFF8
0C7FFFF8
0C607000
0C607800
0C607E00
0C00EF00
0C01C3C0
0C0381E0
0C0F0070
0C3E0038
0C180000
00000000
ENDCHAR
STARTCHAR  5012
ENCODING  20498
SWIDTH  1000 0
DWIDTH  30 0
BBX  29 30 0 -2
BITMAP
00000000
07000030
06000030
06FFF030
06FFF030
0E0E0030
0C1C0330
0C180330
1C38C330
1C30C330
1C706330
3CE3F330
3CFFF330
7CFC3B30
6C063330
6C060330
4C060330
4C060330
0CFFE330
0CFFE330
0C060330
0C060330
0C060330
0C060030
0C067030
0C7FF030
0DFF8070
0CC007F0
0C0007E0
0C000000
ENDCHAR
STARTCHAR  5014
ENCODING  20500
SWIDTH  1000 0
DWIDTH  30 0
BBX  29 29 0 -2
BITMAP
00000000
03000000
033FFFF0
063FFFF0
06300030
06300030
0C300030
0C3FFFF0
1C3FFFF0
1C300C30
3C300C00
3C330C60
7C330C60
6C330C60
EC330C60
4C330C60
4C33FFE0
0C33FFE0
0C300C60
0C700C00
0C660C30
0C660C30
0C660C30
0CE60C30
0CE60C30
0CC7FFF0
0DC7FFF0
0D800030
0C800030
ENDCHAR
STARTCHAR  5018
ENCODING  20504
SWIDTH  1000 0
DWIDTH  30 0
BBX  29 30 0 -3
BITMAP
00003000
03803000
03903030
03383070
071C30E0
060E31C0
0E063380
0C043100
0C003000
1C3FFFF0
1C3FFFF0
3C300030
7C300030
6C300030
EC33FE30
4C33FE30
4C330630
0C330630
0C330630
0C330630
0C330630
0C33FE30
0C33FE30
0C330030
0C300030
0C300030
0C300070
0C300FF0
0C300FE0
00000000
ENDCHAR
STARTCHAR  5019
ENCODING  20505
SWIDTH  1000 0
DWIDTH  30 0
BBX  31 30 0 -2
BITMAP
00000000
06000000
0603FFC0
0603FFC0
060000C0
0EC000C0
0CC000C0
0CC000C0
1CCFFFFC
1CCFFFFC
3CC18000
3CC1C000
3CC18000
6CC3FFF0
ECC3FFF0
4CC70C00
4CC60C00
0CCE0C00
0CC00C00
0CCFFFFC
0CCFFFFC
0CC01C00
0CC01E00
0C003F00
0C007380
0C01E3C0
0C07C1F0
0C3F00FC
0C3E0038
0C100000
ENDCHAR
STARTCHAR  501A
ENCODING  20506
SWIDTH  1000 0
DWIDTH  30 0
BBX  30 31 0 -3
BITMAP
00000000
01C03000
01C03000
01803000
03BFFFF8
033FFFF8
07006000
0600F800
0601FF00
0E0787C0
0E1F01F0
1E1C0060
3E000000
367FFFFC
767FFFFC
66000060
66000060
061FF060
061FF060
06183060
06183060
06183060
06183060
061FF060
061FF060
06180060
06000060
060000E0
06001FE0
06001F80
00000000
ENDCHAR
STARTCHAR  501C
ENCODING  20508
SWIDTH  1000 0
DWIDTH  30 0
BBX  29 29 0 -2
BITMAP
00000000
03800000
033FFFF0
033FFFF0
07300030
06303030
06303030
0C33FF30
0C33FF30
1C303030
1C303030
3C303030
3C37FFB0
6C37FFB0
EC300030
4C300030
4C31FE30
0C31FE30
0C318630
0C318630
0C718630
0C618630
0C61FE30
0CE1FE30
0CC18030
0DC00070
0F800FF0
0D800FE0
0C000000
ENDCHAR
STARTCHAR  501F
ENCODING  20511
SWIDTH  1000 0
DWIDTH  30 0
BBX  29 30 0 -2
BITMAP
00000000
03860600
03860600
03060600
07060600
067FFFF0
067FFFF0
0E060600
0C060600
1C060600
3C060600
3CFFFFF8
7CFFFFF8
6C000000
EC000000
4C000000
4C1FFFC0
0C1FFFC0
0C1800C0
0C1800C0
0C1800C0
0C1FFFC0
0C1FFFC0
0C1800C0
0C1800C0
0C1800C0
0C1FFFC0
0C1FFFC0
0C1800C0
0C1800C0
ENDCHAR
STARTCHAR  5021
ENCODING  20513
SWIDTH  1000 0
DWIDTH  30 0
BBX  28 29 0 -2
BITMAP
00000000
03800000
039FFFC0
031FFFC0
071800C0
061800C0
061FFFC0
0C1FFFC0
0C1800C0
1C1800C0
1C1800C0
3C1FFFC0
7C1FFFC0
7C1800C0
EC000000
4C3FFFF0
0C3FFFF0
0C300030
0C300030
0C300030
0C3FFFF0
0C3FFFF0
0C300030
0C300030
0C300030
0C3FFFF0
0C3FFFF0
0C300030
0C300030
ENDCHAR
STARTCHAR  5025
ENCODING  20517
SWIDTH  1000 0
DWIDTH  30 0
BBX  29 30 0 -3
BITMAP
00000000
0380E000
03007000
03003000
07003000
067FFFF0
067FFFF0
0E600030
0C600030
1C610630
1C03CF00
3C0F0380
7C1E01E0
6C7800F0
EC700030
4C000000
0C3FFFE0
0C3FFFE0
0C003000
0C003000
0C003000
0C003000
0C003000
0C003000
0C003000
0C003000
0CFFFFF8
0CFFFFF8
0C000000
00000000
ENDCHAR
STARTCHAR  5026
ENCODING  20518
SWIDTH  1000 0
DWIDTH  30 0
BBX  31 30 0 -2
BITMAP
00000000
03106000
073060E0
071860E0
061C61C0
060C6380
0E00E100
0C7FFFF8
0C7FFFF8
1C01C000
1C018000
3C018000
3CFFFFFC
7CFFFFFC
6C060E00
6C0E0700
4C1C0380
0C3FFFE0
0CFFFEF8
0DEC063C
0DCC0618
0C0C0600
0C0C0E00
0C0C7C60
0C0C7C70
0C0C0060
0C0E00E0
0C0FFFC0
0C07FF80
0C000000
ENDCHAR
STARTCHAR  5028
ENCODING  20520
SWIDTH  1000 0
DWIDTH  30 0
BBX  30 30 0 -3
BITMAP
02000000
03800000
033FFFF0
033FFFF0
06300030
06300030
0E300030
0C3FFFF0
0C3FFFF0
1C300030
1C301800
3C301800
7C301800
6C3FFFF8
EC3FFFF8
4C301800
4C301800
0C301800
0C301800
0C77FFF0
0C77FFF0
0C660030
0C660030
0CE60030
0CE60030
0CC7FFF0
0DC7FFF0
0D860030
0C860030
00000000
ENDCHAR
STARTCHAR  5029
ENCODING  20521
SWIDTH  1000 0
DWIDTH  30 0
BBX  30 31 0 -3
BITMAP
00000000
03003000
03803000
03003000
037FFFF8
077FFFF8
06003000
0E3FFFF0
0C3FFFF0
0C003000
1C003000
1CFFFFF8
3CFFFFF8
7C000000
6C000000
EC1FFFE0
4C1FFFE0
4C180060
0C180060
0C1FFFE0
0C1FFFE0
0C180060
0C180060
0C1FFFE0
0C1FFFE0
0C180060
0C180060
0C181FE0
0C181FC0
0C180000
00000000
ENDCHAR
STARTCHAR  502A
ENCODING  20522
SWIDTH  1000 0
DWIDTH  30 0
BBX  30 29 0 -2
BITMAP
03008000
03078000
033F9FE0
077C1FE0
06600060
06600060
0E600060
0C600060
0C600060
1C7F9FE0
1C7F9FE0
3C600060
3C600060
6C600060
6C600060
4C7FFFE0
0C7FFFE0
0C630C60
0C030C00
0C030C00
0C030C00
0C070C18
0C060C18
0C0E0C18
0C1C0C18
0C380C38
0CF00FF8
0CE007F0
0C800000
ENDCHAR
STARTCHAR  502C
ENCODING  20524
SWIDTH  1000 0
DWIDTH  30 0
BBX  30 31 0 -3
BITMAP
00000000
01806000
01806000
01806000
03007FF8
03007FF8
06006000
06006000
0C3FFFE0
0C3FFFE0
1C300060
3C300060
3C300060
7C3FFFE0
EC3FFFE0
EC300060
4C300060
0C300060
0C3FFFE0
0C3FFFE0
0C303060
0C003000
0C003000
0CFFFFFC
0CFFFFFC
0C003000
0C003000
0C003000
0C003000
0C003000
00000000
ENDCHAR
STARTCHAR  502D
ENCODING  20525
SWIDTH  1000 0
DWIDTH  30 0
BBX  30 30 0 -3
BITMAP
02000000
03800000
033FFFE0
033FFFE0
07003000
06003000
0E003000
0C7FFFF8
0C7FFFF8
1C01FC00
1C03B600
3C073380
7C1E31E0
6C7830F8
ECF03038
4C40C000
0C01C000
0CFFFFF8
0CFFFFF8
0C070380
0C060300
0C0C0700
0C1F8E00
0C03FC00
0C007C00
0C01FF80
0C1FC3F0
0CFE00F8
0CF00030
00000000
ENDCHAR
STARTCHAR  502E
ENCODING  20526
SWIDTH  1000 0
DWIDTH  30 0
BBX  30 30 0 -2
BITMAP
00000000
03800000
033FFFE0
073FFFE0
06303060
06303060
0E303060
0C3FFFE0
0C3FFFE0
1C303060
1C303060
3C303060
3C303060
7C3FFFE0
6C3FFFE0
EC003000
4C003000
4C003000
0C7FFFF8
0C7FFFF8
0C00F800
0C01FC00
0C03B600
0C073380
0C1E31C0
0C3C30F0
0CF03038
0C603018
0C003000
00000000
ENDCHAR
STARTCHAR  503A
ENCODING  20538
SWIDTH  1000 0
DWIDTH  30 0
BBX  30 30 0 -3
BITMAP
00000000
03003000
06003000
067FFFF0
067FFFF0
0E003000
0C003000
0C3FFFE0
1C3FFFE0
1C003000
1C003000
3CFFFFF8
3CFFFFF8
6C000000
6C000000
4C1FFFE0
4C1FFFE0
0C180060
0C183060
0C183060
0C187060
0C186060
0C187060
0C18FC60
0C01CF00
0C03C780
0C0F01E0
0CFE00F8
0C780030
0C000010
ENDCHAR
STARTCHAR  503C
ENCODING  20540
SWIDTH  1000 0
DWIDTH  30 0
BBX  30 29 0 -2
BITMAP
02003000
03803000
03003000
037FFFF8
067FFFF8
06003000
0E003000
0C003000
0C1FFFE0
1C1FFFE0
1C180060
3C180060
7C1FFFE0
6C1FFFE0
EC180060
4C180060
0C180060
0C1FFFE0
0C1FFFE0
0C180060
0C180060
0C1FFFE0
0C1FFFE0
0C180060
0C180060
0C180060
0CFFFFFC
0CFFFFFC
0C000000
ENDCHAR
STARTCHAR  503E
ENCODING  20542
SWIDTH  1000 0
DWIDTH  30 0
BBX  30 29 0 -2
BITMAP
02000000
07600000
0663FFF8
0663FFF8
06600E00
0C600C00
0C600C00
0C60FFF0
1C60FFF0
1C7CC030
3C7CC030
3C60C630
7C60C630
6C60C630
EC60C630
4C60C630
0C60C630
0C60C630
0C60C630
0C60CE30
0C66CC30
0C7ECE30
0CF81F80
0C6039C0
0C4070E0
0C00F070
0C03E038
0C038018
0C010010
ENDCHAR
STARTCHAR  5043
ENCODING  20547
SWIDTH  1000 0
DWIDTH  30 0
BBX  30 29 0 -2
BITMAP
00000000
03000000
033FFFF8
073FFFF8
06300000
0633FFE0
0C33FFE0
0C330060
1C33FFE0
1C33FFE0
1C330060
3C330060
7C33FFE0
6C33FFE0
EC332060
4C307000
0C3FFFF8
0C3FFFF8
0C31C180
0C31C380
0C30FF00
0C303E00
0C307FC0
0C37F1F0
0C378020
0C300000
0C3FFFFC
0C3FFFFC
0C000000
ENDCHAR
STARTCHAR  5047
ENCODING  20551
SWIDTH  1000 0
DWIDTH  30 0
BBX  31 30 0 -3
BITMAP
02000000
07000000
067FDFF0
067FDFF0
0660C030
0C60C030
0C60C030
0C60C030
1C60C030
1C7FDFF0
3C7FDFF0
3C60C030
7C600000
6C603FF0
6C7FBFF0
4C7F9830
0C601830
0C601860
0C600C60
0C600C60
0C7FCCC0
0C7FC7C0
0C600780
0C600380
0C6007C0
0C601EE0
0C607878
0C61F03C
0C60C018
00000000
ENDCHAR
STARTCHAR  5048
ENCODING  20552
SWIDTH  1000 0
DWIDTH  30 0
BBX  29 30 0 -2
BITMAP
00000000
03000000
031FFFC0
031FFFC0
061800C0
061800C0
061FFFC0
0C1FFFC0
0C1800C0
1C1800C0
1C1800C0
3C1FFFC0
3C1FFFC0
7C0E0000
6C0C0000
EC1FFFF0
4C3FFFF0
0C602030
0CE06030
0DB0F030
0C30FC30
0C318E30
0C330630
0C300230
0C3FFE30
0C3FFE70
0C000060
0C001FE0
0C001FC0
00000000
ENDCHAR
STARTCHAR  504C
ENCODING  20556
SWIDTH  1000 0
DWIDTH  30 0
BBX  30 29 0 -2
BITMAP
02060300
03060300
03060300
07060300
06FFFFF8
06FFFFF8
0E060300
0C064300
0C066300
1C06E300
1C00C000
3CFFFFFC
7CFFFFFC
6C030000
EC070000
4C060000
0C0C0000
0C1FFFE0
0C3FFFE0
0C7C0060
0CEC0060
0DCC0060
0C8C0060
0C0C0060
0C0C0060
0C0FFFE0
0C0FFFE0
0C0C0060
0C0C0060
ENDCHAR
STARTCHAR  504E
ENCODING  20558
SWIDTH  1000 0
DWIDTH  30 0
BBX  30 31 0 -3
BITMAP
00000000
03000000
033FFFF0
033FFFF0
06303030
06303030
06303030
0C3FFFF0
0C3FFFF0
1C303030
1C303030
3C303030
3C3FFFF0
7C3FFFF0
6C300030
6C000000
4C000000
4CFFFFF8
0CFFFFF8
0C186000
0C187070
0C1830F0
0C1839E0
0C181F80
0C182E00
0C18E700
0C1BE3C0
0C1F81F8
0C3E0078
0C180018
00000000
ENDCHAR
STARTCHAR  504F
ENCODING  20559
SWIDTH  1000 0
DWIDTH  30 0
BBX  28 31 0 -3
BITMAP
00000000
03002000
03007000
03003800
077FFFF0
067FFFF0
06600030
0E600030
0C600030
1C7FFFF0
1C7FFFF0
1C600030
3C600000
7C600000
6C67FFF0
EC67FFF0
4C666330
0C666330
0C666330
0C666330
0C67FFF0
0C67FFF0
0CC66330
0CC66330
0CC66330
0CC66330
0D866330
0D866330
0D8600F0
0D0600E0
00000000
ENDCHAR
STARTCHAR  5055
ENCODING  20565
SWIDTH  1000 0
DWIDTH  30 0
BBX  29 29 0 -2
BITMAP
03301800
03301800
07301820
063018F0
063FDBE0
0E3FDF80
0C301C20
0C301838
1C305830
1C31D830
3C3FD830
3C7E1FF0
6C78EFE0
EC20C000
CC00C000
4C1FFFC0
0C1FFFC0
0C1800C0
0C1800C0
0C1800C0
0C1FFFC0
0C1FFFC0
0C1800C0
0C1800C0
0C1800C0
0C1800C0
0C1FFFC0
0C1FFFC0
0C1800C0
ENDCHAR
STARTCHAR  505A
ENCODING  20570
SWIDTH  1000 0
DWIDTH  30 0
BBX  30 30 0 -3
BITMAP
020C0200
030C0700
070C0600
060C0600
060C0600
0E0C0600
0CFFEFF8
0CFFEFF8
1C0C0C30
1C0C1C30
3C0C1C30
3C0C3C30
7C0C3C30
6C0C3C70
EC7FC460
4C7FC660
0C60C660
0C60C6E0
0C60C7C0
0C60C3C0
0C60C3C0
0C60C180
0C60C3C0
0C7FC7C0
0C7FCEE0
0C600E70
0C601C38
0C003818
0C003008
00000000
ENDCHAR
STARTCHAR  505C
ENCODING  20572
SWIDTH  1000 0
DWIDTH  30 0
BBX  29 30 0 -2
BITMAP
00000000
0380C000
0300E000
07006000
077FFFF8
067FFFF8
0E000000
0C000000
0C1FFFC0
1C1FFFC0
1C1800C0
3C1800C0
3C1FFFC0
7C1FFFC0
6C1800C0
CCFFFFF8
4CFFFFF8
0CC00018
0CC00018
0CC00018
0C1FFFC0
0C1FFFC0
0C003000
0C003000
0C003000
0C003000
0C003000
0C07F000
0C07E000
00000000
ENDCHAR
STARTCHAR  5065
ENCODING  20581
SWIDTH  1000 0
DWIDTH  30 0
BBX  30 30 0 -3
BITMAP
02000C00
03000C00
06000C00
06FCFFE0
06FCFFE0
0E0C0C60
0C180C60
0C3BFFF8
1C33FFF8
1C700C60
1C600C60
3CC00C60
3CFCFFE0
6CFCFFE0
6C0C0C00
4C0C0C00
0D8DFFE0
0D8DFFE0
0CCC0C00
0CD80C00
0CD9FFF0
0C79FFF0
0C700C00
0C380C00
0C7C0C00
0CEF8000
0DC3FFF8
0D80FFF8
0C800000
00000000
ENDCHAR
STARTCHAR  506C
ENCODING  20588
SWIDTH  1000 0
DWIDTH  30 0
BBX  30 29 0 -2
BITMAP
00000000
03860000
030E0000
030C0000
071FFFF0
063FFFF0
0E30C730
0C70C630
0CED8630
1CDF8C30
1C07FC30
3C0E7C30
7C1C3F30
6C787230
EC70E070
4C03CFE0
0C0387C0
0C000000
0C00E000
0C666060
0C663060
0C663970
0CE611B0
0CC601B8
0DC60198
0D860398
0C07FF00
0C03FE00
00000000
ENDCHAR
STARTCHAR  5076
ENCODING  20598
SWIDTH  1000 0
DWIDTH  30 0
BBX  29 30 0 -3
BITMAP
02000000
03000000
031FFFE0
031FFFE0
06183060
06183060
0E1FFFE0
0C1FFFE0
0C183060
1C183060
1C183060
3C1FFFE0
3C1FFFE0
6C183060
EC003000
4C003000
4C7FFFF0
0C7FFFF0
0C603030
0C603330
0C603330
0C67FFB0
0C67FFB0
0C6601B0
0C6000B0
0C600030
0C600030
0C6007F0
0C6003E0
00000000
ENDCHAR
STARTCHAR  5077
ENCODING  20599
SWIDTH  1000 0
DWIDTH  30 0
BBX  30 29 0 -2
BITMAP
03007000
0300F000
0300F800
0701DC00
06038E00
06070700
0E1E0380
0C3FFFE0
1CF7FEF8
1DE00038
1C800010
3C7FC060
7C7FCC60
6C60CC60
EC60CC60
4C60CC60
0C7FCC60
0C7FCC60
0C60CC60
0C60CC60
0C7FCC60
0C7FCC60
0C60CC60
0C60C060
0C60C060
0C60C060
0C60C0E0
0C6FCFE0
0C678F80
ENDCHAR
STARTCHAR  507B
ENCODING  20603
SWIDTH  1000 0
DWIDTH  30 0
BBX  30 30 0 -3
BITMAP
02006000
03106040
033860E0
071C60C0
060C61C0
06046380
0E006100
0C7FFFF8
1C7FFFF8
1C01F800
1C036E00
3C0E6780
7C3C61F0
6DF06078
ECE16018
4C038000
4C030000
0CFFFFF8
0CFFFFF8
0C0C0380
0C1C0700
0C1C0E00
0C1F1E00
0C03FC00
0C00FC00
0C03FF00
0C1F87E0
0CFE01F0
0CF00060
00000000
ENDCHAR
STARTCHAR  507E
ENCODING  20606
SWIDTH  1000 0
DWIDTH  30 0
BBX  30 29 0 -2
BITMAP
03006000
03006000
07006000
067FFFE0
067FFFE0
0E006000
0C0C6180
0C0C6180
1C0C0180
1CFFFFF8
3CFFFFF8
3C0C0180
7C0C0180
6C0C0180
4C3FFFE0
4C3FFFE0
0C300060
0C306060
0C306060
0C306060
0C306060
0C30E060
0C30F860
0C01DE00
0C038780
0C1F03E0
0CFC00F0
0CF00070
0C800010
ENDCHAR
STARTCHAR  507F
ENCODING  20607
SWIDTH  1000 0
DWIDTH  30 0
BBX  29 30 0 -2
BITMAP
00000000
03803000
03803040
031830E0
071C30C0
070E31C0
06063180
0E003000
0C7FFFF8
1C7FFFF8
1C600018
1C600018
3C600018
7C000000
6C0FFF80
EC0FFF80
4C000000
4C000000
0C000000
0C7FFFF8
0C7FFFF8
0C01C000
0C038200
0C070300
0C0E0180
0C1C00C0
0C7FFFE0
0C3FFFF8
0C200030
00000000
ENDCHAR
STARTCHAR  5080
ENCODING  20608
SWIDTH  1000 0
DWIDTH  30 0
BBX  30 30 0 -2
BITMAP
00000000
0380C000
0300C000
0301C000
073FFFE0
063FFFE0
06306060
0E306060
0C306060
1C306060
1C3FFFE0
3C3FFFE0
3C306060
7C306060
6C306060
CC3FFFE0
4C3FFFE0
0C30C060
0C01F200
0C01F300
0C03B200
0C03B6C0
0C073450
0C0E3FF8
0C1E3E78
0C3C3018
0C783038
0CF03FF0
0CE01FE0
0C000000
ENDCHAR
STARTCHAR  5085
ENCODING  20613
SWIDTH  1000 0
DWIDTH  30 0
BBX  29 29 0 -2
BITMAP
03006300
030063C0
070060C0
06FFFFF0
06FFFFF0
06006000
0C006000
0C3FFFE0
1C3FFFE0
1C306060
3C306060
3C3FFFE0
7C3FFFE0
6C306060
EC306060
4C3FFFE0
0C3FFFE0
0C306060
0C300000
0C000180
0DFFFFF8
0DFFFFF8
0C080180
0C1C0180
0C0E0180
0C070180
0C000380
0C007F00
0C007E00
ENDCHAR
STARTCHAR  5088
ENCODING  20616
SWIDTH  1000 0
DWIDTH  30 0
BBX  30 30 0 -2
BITMAP
00000000
03000000
03FFFFF0
06FFFFF0
06018C00
06018C00
0E018C00
0C7FFFF0
0C7FFFF0
1C618C30
1C618C30
3C618C30
3C618C30
7C7FFFF0
6C7FFFF0
EC600030
4C003000
0C003000
0C003000
0CFFFFFC
0CFFFFFC
0C01BC00
0C03B600
0C073300
0C0E31C0
0C1C30F0
0C78307C
0DE03038
0CC03000
0C003000
ENDCHAR
STARTCHAR  508D
ENCODING  20621
SWIDTH  1000 0
DWIDTH  30 0
BBX  29 29 0 -2
BITMAP
00000000
03006000
06007000
06003000
067FFFF0
067FFFF0
0C020300
0C070300
1C038600
1C7FFFF0
1C7FFFF0
3C602030
7C607030
6C603030
EC003000
4CFFFFF8
4CFFFFF8
0C030000
0C030000
0C03FFC0
0C07FFC0
0C0600C0
0C0600C0
0C0E00C0
0C1C01C0
0C380180
0CF07F80
0CE07F00
0C400000
ENDCHAR
STARTCHAR  50A3
ENCODING  20643
SWIDTH  1000 0
DWIDTH  30 0
BBX  30 30 0 -3
BITMAP
02006000
03006000
03006000
077FFFF0
067FFFF0
0600C000
0C00C000
0C3FFFE0
0C3FFFE0
1C018000
1C018000
3C038000
3CFFFFF8
6CFFFFF8
EC0E0600
4C1C0300
4C3C6380
0C7861E0
0CFC63F8
0DCE6F38
0C876E00
0C006000
0C016C00
0C0F6F00
0CFE67E0
0CF060F0
0C806030
0C07E000
0C07C000
00000000
ENDCHAR
STARTCHAR  50A5
ENCODING  20645
SWIDTH  1000 0
DWIDTH  30 0
BBX  30 30 0 -2
BITMAP
00000000
03003000
03103060
033830F0
071C31C0
060E3380
06043100
0EFFFFF8
0CFFFFF8
1CC00018
1CC00018
3CC00018
3C1FFFC0
7C1FFFC0
6C1800C0
EC1800C0
4C1800C0
4C1800C0
0C1800C0
0C1FFFC0
0C1FFFC0
0C198CC0
0C018C18
0C038C18
0C070C18
0C0E0C18
0C1C0C38
0CF80FF8
0CF007F0
00000000
ENDCHAR
STARTCHAR  50A7
ENCODING  20647
SWIDTH  1000 0
DWIDTH  30 0
BBX  29 30 0 -2
BITMAP
00000000
03006000
07006000
06007000
067FFFF0
067FFFF0
0C600030
0C600030
0C6003B0
1C1FFF80
1C1FFC00
3C180000
3C180000
7C180000
6C180000
EC1FFFF0
CC1FFFF0
0C180C00
0C180C00
0C180C00
0C180C00
0DFFFFF8
0DFFFFF8
0C000000
0C030600
0C0F0F80
0C3E03E0
0CF800F0
0CE00030
0C400010
ENDCHAR
STARTCHAR  50A8
ENCODING  20648
SWIDTH  1000 0
DWIDTH  30 0
BBX  30 29 0 -2
BITMAP
03001800
07201800
07601820
06301838
0E39FFF0
0C19FFF0
0C1818E0
1C1018C0
1C0019C0
1C001B80
3DF3FFFC
3DF3FFFC
7C301C00
6C303800
6C30FFE0
4C31FFE0
0C37E060
0C366060
0C306060
0C307FE0
0C307FE0
0C326060
0C366060
0C3E6060
0C786060
0C707FE0
0C207FE0
0C006060
0C000000
ENDCHAR
STARTCHAR  50A9
ENCODING  20649
SWIDTH  1000 0
DWIDTH  30 0
BBX  31 29 0 -2
BITMAP
03001100
07001B00
06003980
060031C0
06FE3080
0CFE7FFC
0C067FFC
0C06E180
1C86E180
1DC7E180
3CC7E180
3CCD7FF8
6C6C7FF8
6C6C6180
6C7C6180
4C3C6180
0C386180
0C186180
0C187FF8
0C3C7FF8
0C3C6180
0C6E6180
0CE66180
0CC76180
0DC37FFC
0F827FFC
0D006000
0C006000
0C006000
ENDCHAR
STARTCHAR  50AC
ENCODING  20652
SWIDTH  1000 0
DWIDTH  30 0
BBX  30 30 0 -2
BITMAP
00000000
03803000
03183030
07183030
07183030
06183030
0E1FFFF0
0C1FFFF0
0C001030
1C0E3800
1C0C1C00
3C1C0C00
3C1FFFF8
7C3FFFF8
EC381800
CC781800
4CF81800
0DDFFFF0
0DDFFFF0
0C981800
0C181800
0C1FFFF0
0C1FFFF0
0C181800
0C181800
0C181800
0C1FFFF8
0C1FFFF8
0C180000
0C180000
ENDCHAR
STARTCHAR  50B2
ENCODING  20658
SWIDTH  1000 0
DWIDTH  30 0
BBX  31 30 0 -3
BITMAP
00000000
03060300
07060300
06060700
06FFE600
0EFFE600
0C0607FC
0C060FFC
1CFFCC30
1CFFDC30
3C061C30
3C063E30
7C063630
6DFFF630
EDFFE630
4C300660
0C300660
0C3FC360
0C3FC360
0C30C3C0
0C30C1C0
0C60C180
0C60C1C0
0C60C3E0
0CE0C770
0CC1CE38
0DCF9C3C
0F8F381C
0D001008
00000000
ENDCHAR
STARTCHAR  50BA
ENCODING  20666
SWIDTH  1000 0
DWIDTH  30 0
BBX  30 30 0 -2
BITMAP
00000000
030C1800
03181800
071FF800
063FFFF0
06305FF0
0660D830
0C6CCC60
0CCF8CC0
1DC78780
1FA30780
3D770300
3C3E0380
7C0C01C0
6C1FFEF0
EC7BFE78
4CF00038
4CC00000
0C000000
0C7FFFF0
0C7FFFF0
0C003000
0C083000
0C0C3380
0C1C33C0
0C3830E0
0C703070
0CE47030
0C43F010
0C03E000
ENDCHAR
STARTCHAR  50BB
ENCODING  20667
SWIDTH  1000 0
DWIDTH  30 0
BBX  29 29 0 -2
BITMAP
00008000
0180C000
0381C000
033FFFE0
033FFFE0
06330460
06338E60
0E30F860
0C30F860
1C33CE60
1C330660
3C3FFFE0
7C3FFFE0
6C300060
EC360260
4C0E0780
0C3C01E0
0CF18078
0C63FFD0
0C07FFC0
0C1E0380
0C3F0700
0C738E00
0C01FC00
0C00F800
0C03FE00
0C7F8FE0
0CFC03F0
00400010
ENDCHAR
STARTCHAR  50CF
ENCODING  20687
SWIDTH  1000 0
DWIDTH  30 0
BBX  30 31 0 -3
BITMAP
00000000
03838000
03030000
0307FF00
070FFF00
061C0700
06380E00
0E700C00
0CFFFFF0
0CFFFFF0
1CB03030
1C303030
3C3FFFF0
3C3FFFF0
6C31C000
EC03C000
4C0F6070
4C3E70F0
0CF8F3C0
0CE1DF80
0C079F80
0C1E3D80
0C7C7CC0
0CF0ECE0
0CC3CC70
0C0F0C38
0C3C0C3C
0CF81C18
0CE3F800
0C03F000
00000000
ENDCHAR
STARTCHAR  50D6
ENCODING  20694
SWIDTH  1000 0
DWIDTH  30 0
BBX  30 31 0 -3
BITMAP
00000000
01C01800
01C01800
01801800
03BFFFFC
033FFFFC
03001800
061FFFF8
061FFFF8
0E000000
0E000000
1E1FFFF0
3E1FFFF0
3E180030
76180030
661FFFF0
661FFFF0
060300C0
06018180
067FFFFC
067FFFFC
06000000
06000000
061FFFF0
061FFFF0
06180030
06180030
061FFFF0
061FFFF0
06180030
00000000
ENDCHAR
STARTCHAR  50DA
ENCODING  20698
SWIDTH  1000 0
DWIDTH  30 0
BBX  31 30 -1 -3
BITMAP
00003000
01C03000
01803000
01BFFFF8
033FFFF8
03006C00
0718CC30
061DC670
0E0F87E0
0E0703C0
1E0E01C0
1E3FFFF0
3EFFFFFC
76780068
66180060
661FFFE0
061FFFE0
06180060
06180060
061FFFE0
061FFFE0
06183060
060C3080
061C31C0
063830E0
06703078
06F0303C
0663F018
0603E000
00000000
ENDCHAR
STARTCHAR  50E6
ENCODING  20710
SWIDTH  1000 0
DWIDTH  30 0
BBX  30 29 0 -2
BITMAP
00000000
030C0600
070C0640
06040660
07FFE630
0FFFE618
0C000600
0C000600
1C000600
1C7FDFF8
3C7FDFF8
3C60C600
7C60C6C0
6C60C6C0
EC60C6C0
4C7FC6C0
0C7FC6C0
0C6CCCC0
0C0C8CC0
0C6D8CC0
0C6CCCC8
0CCCFCCC
0CCC78CC
0DCC18CC
0F8C30CC
0C0C30C8
0C7C70F8
0C386078
0C000000
ENDCHAR
STARTCHAR  50E7
ENCODING  20711
SWIDTH  1000 0
DWIDTH  30 0
BBX  28 30 0 -2
BITMAP
00000000
038C0180
038E0380
03070700
07030E00
067FFFF0
067FFFF0
0E606030
0C646130
1C6E6330
1C666730
3C626630
3C606030
7C7FFFF0
6C7FFFF0
4C600030
0C000000
0C1FFFC0
0C1FFFC0
0C1800C0
0C1800C0
0C1800C0
0C1FFFC0
0C1FFFC0
0C1800C0
0C1800C0
0C1FFFC0
0C1FFFC0
0C1800C0
0C1800C0
ENDCHAR
STARTCHAR  50EC
ENCODING  20716
SWIDTH  1000 0
DWIDTH  30 0
BBX  30 30 -1 -2
BITMAP
00000000
01830800
01870C00
01860E00
038C0400
031FFFF8
031FFFF8
06380C00
06380C00
0E780C00
0EFFFFF0
1EDFFFF0
3E180C00
36180C00
76180C00
661FFFF0
661FFFF0
06180C00
06180C00
06180C00
061FFFF8
061FFFF8
06180000
06000010
0618C630
0618C738
0630E318
0630631C
0660630C
06200000
ENDCHAR
STARTCHAR  50ED
ENCODING  20717
SWIDTH  1000 0
DWIDTH  30 0
BBX  31 30 -1 -3
BITMAP
00000000
01C00000
01BFEFF8
01BFEFF8
03B30CC0
03330CC0
07330CC0
063FFFF8
0E7FFFF8
0E060180
1E0F83C0
1E0D93C4
3E1DF6CC
7639EECC
66719CFC
66601878
06000000
061FFFF0
061FFFF0
06180030
06180030
061FFFF0
061FFFF0
06180030
06180030
06180030
061FFFF0
061FFFF0
06180030
00000000
ENDCHAR
STARTCHAR  50EE
ENCODING  20718
SWIDTH  1000 0
DWIDTH  30 0
BBX  30 29 0 -2
BITMAP
00002000
03007000
07003000
077FFFF0
067FFFF0
0E060300
0C070300
0C030600
1CFFFFF8
1CFFFFF8
3C000000
3C3FFFE0
7C3FFFE0
6C303060
CC303060
4C3FFFE0
0C3FFFE0
0C303060
0C3FFFE0
0C3FFFE0
0C303060
0C003000
0C3FFFF0
0C3FFFF0
0C003000
0C003000
0CFFFFFC
0CFFFFFC
0C000000
ENDCHAR
STARTCHAR  50F3
ENCODING  20723
SWIDTH  1000 0
DWIDTH  30 0
BBX  30 30 0 -2
BITMAP
00000000
03000000
03FFFFF0
06FFFFF0
06018C00
06018C00
0E018C00
0C7FFFF0
0C7FFFF0
1C618C30
1C618C30
3C618C30
3C618C30
7C7FFFF0
6C7FFFF0
EC106000
4C3861E0
0C0E6380
0C066700
0C006200
0DFFFFF8
0DFFFFF8
0C00F800
0C01FC00
0C076F00
0C1C6380
0C7861F0
0DE06078
0C806010
0C006000
ENDCHAR
STARTCHAR  50F5
ENCODING  20725
SWIDTH  1000 0
DWIDTH  30 0
BBX  30 29 0 -2
BITMAP
03000000
03FFFFF8
07FFFFF8
06000000
06000000
063FFFE0
0C303060
0C303060
1C3FFFE0
1C303060
1C303060
3C3FFFE0
3C300060
6C000000
6DFFFFF8
4DFFFFF8
0C000000
0C3FFFE0
0C303060
0C303060
0C3FFFE0
0C303060
0C303060
0C3FFFE0
0C300060
0C000000
0DFFFFF8
0DFFFFF8
0C000000
ENDCHAR
STARTCHAR  50FB
ENCODING  20731
SWIDTH  1000 0
DWIDTH  30 0
BBX  30 30 0 -3
BITMAP
02000100
03000300
037FC180
067FC180
0660DFF8
0660DFF8
0C60C000
0C60DC38
1C60CC30
1C7FCE30
1C7FC660
3CE0C660
3CE000C0
6CE03FFC
6CE03FFC
4CE00180
4CFFC180
0CFFC180
0CF8C180
0DF8DFF8
0DB8DFF8
0DB8C180
0FB8C180
0F38C180
0D3FC180
0C3FC180
0C38C180
0C38C180
0C000180
00000000
ENDCHAR
STARTCHAR  5106
ENCODING  20742
SWIDTH  1000 0
DWIDTH  30 0
BBX  31 31 -1 -3
BITMAP
00000000
07318300
06318300
06318300
07FFF300
0FFFF200
0C3187FC
0C3187FC
0C400618
1C600C18
1C600C18
3CFFEE18
3CFFFE18
3CC06E18
6D806630
6DFE6630
4D7E6630
0C666330
0C666360
0C666360
0C6661E0
0C6661C0
0C7E61C0
0C7E61E0
0C606360
0C606770
0C006E38
0C00FC1C
0C1FF80C
0C0F9008
00000000
ENDCHAR
STARTCHAR  5107
ENCODING  20743
SWIDTH  1000 0
DWIDTH  30 0
BBX  31 30 0 -3
BITMAP
01800000
019FFFF0
039FFFF0
0318C630
0318C630
0718C630
061FFFF0
0E1FFFF0
0E180030
1E000000
1E7FFFFC
3E7FFFFC
36000000
761FFFF0
661FFFF0
46180030
06180030
061FFFF0
061FFFF0
06187800
0600F818
0603CC78
060F0EE0
063F07C0
06FB03C0
06E319F0
0603F87C
0607E018
06030000
00000000
ENDCHAR
STARTCHAR  510B
ENCODING  20747
SWIDTH  1000 0
DWIDTH  30 0
BBX  29 29 0 -2
BITMAP
00070000
03860000
030FFE00
031FFE00
07380600
06700C00
0EFFFFF8
0CFFFFF8
1C608300
1C6393C0
3C6F18F0
3C641800
7C7FFFF8
EC7FFFF8
4C600000
4C67FFE0
0C67FFE0
0C600000
0C67FFE0
0C67FFE0
0C600000
0CCFFFE0
0CCFFFE0
0CCC0060
0CCC0060
0D8C0060
0D8FFFE0
0D0FFFE0
0D0C0060
ENDCHAR
STARTCHAR  5112
ENCODING  20754
SWIDTH  1000 0
DWIDTH  30 0
BBX  29 31 0 -3
BITMAP
00000000
03000000
037FFFE0
037FFFE0
06006000
06006000
06FFFFF8
0EFFFFF8
0CC06018
1CDF67D8
1CDF67D8
3C006000
3C3F6FE0
7C3F6FE0
6C000000
EC000000
4C7FFFF8
4C7FFFF8
0C00C000
0C00C000
0C7FFFF0
0C7FFFF0
0C618C30
0C618C30
0C618C30
0C618C30
0C618C30
0C618C30
0C618DF0
0C6001E0
00000000
ENDCHAR
STARTCHAR  5121
ENCODING  20769
SWIDTH  1000 0
DWIDTH  30 0
BBX  29 29 0 -2
BITMAP
00000000
03800000
033FFFE0
033FFFE0
07306060
06306060
063FFFE0
0C3FFFE0
0C306060
1C306060
1C3FFFE0
3C3FFFE0
3C300060
7C000000
6C000000
6CFFDFF8
0CFFDFF8
0CCCD998
0CCCD998
0CCCD998
0CFFDFF8
0CFFDFF8
0CCCD998
0CCCD998
0CCCD998
0CFFDFF8
0CFFDFF8
0CC0D818
0CC0D818
ENDCHAR
STARTCHAR  513F
ENCODING  20799
SWIDTH  1000 0
DWIDTH  30 0
BBX  28 27 1 -1
BITMAP
0180C000
0180C000
0180C000
0180C000
0180C000
0180C000
0180C000
0180C000
0180C000
0180C000
0180C000
0180C000
0180C000
0180C000
0180C000
0180C000
0180C000
0380C030
0380C030
0700C030
0700C030
0E00C030
1C00C030
3800C030
7000E070
E0007FE0
C0003FC0
ENDCHAR
STARTCHAR  5140
ENCODING  20800
SWIDTH  1000 0
DWIDTH  30 0
BBX  30 27 0 -2
BITMAP
00000000
7FFFFFF8
7FFFFFF8
00E07000
00E07000
00E07000
00E07000
00E07000
00E07000
00E07000
00E07000
00E07000
00E07000
00E07000
00E07000
00E07000
00C07000
01C07018
01C0701C
03807018
03807018
07007018
0E003038
1E003878
7C003FF0
70001FE0
20000000
ENDCHAR
STARTCHAR  5141
ENCODING  20801
SWIDTH  1000 0
DWIDTH  30 0
BBX  28 29 1 -2
BITMAP
001C0000
001C0000
00380000
00700000
00E01000
01C03800
03801C00
07000E00
0E000700
1C000380
3FFFFFC0
7FFFFFE0
00E0C0F0
0060C060
0060C000
0060C000
0060C000
00E0C000
00C0C000
00C0C000
01C0C030
01C0C030
0380C030
0700C030
0F00C030
3E00E070
FC00FFF0
F0007FE0
40000000
ENDCHAR
STARTCHAR  5143
ENCODING  20803
SWIDTH  1000 0
DWIDTH  30 0
BBX  30 27 0 -2
BITMAP
0FFFFFE0
0FFFFFE0
00000000
00000000
00000000
00000000
00000000
00000000
00000000
7FFFFFF8
7FFFFFF8
00603000
00603000
00603000
00603000
00603000
00603000
00E03000
00E03018
01C03018
01C03018
03803018
07803018
1F003038
7C003FF0
78001FE0
20000000
ENDCHAR
STARTCHAR  5144
ENCODING  20804
SWIDTH  1000 0
DWIDTH  30 0
BBX  30 29 0 -3
BITMAP
0FFFFFC0
0FFFFFC0
0C0000C0
0C0000C0
0C0000C0
0C0000C0
0C0000C0
0C0000C0
0C0000C0
0C0000C0
0C0000C0
0C0000C0
0FFFFFC0
0FFFFFC0
0C3060C0
00306000
00306000
00306000
00706000
00606018
0060601C
00E06018
01C06018
03806018
0F007038
3E007FF8
7C003FF0
60000000
00000000
ENDCHAR
STARTCHAR  5145
ENCODING  20805
SWIDTH  1000 0
DWIDTH  30 0
BBX  29 28 0 -1
BITMAP
00030000
00070000
00038000
00018000
7FFFFFF8
7FFFFFF8
001C0000
00380000
00700800
00E01C00
01C00E00
03800700
07000380
1FFFFFC0
1FFFFFE0
003030F0
00303060
00303000
00303000
00703000
00603000
00E03018
00C03018
03C03018
07803018
1F003038
FE003FF8
78001FF0
ENDCHAR
STARTCHAR  5146
ENCODING  20806
SWIDTH  1000 0
DWIDTH  30 0
BBX  30 30 0 -3
BITMAP
00000000
00306000
00306000
00306000
00306000
00306040
383060E0
3C3061C0
1E306380
07306700
03306E00
00306400
00306000
00306000
00F07800
03F07E00
0FF06F00
3F7067C0
7C7061E0
30606040
00E0601C
00E0601C
01C0601C
03C06018
07806018
0F007038
3E007FF0
78003FE0
30000000
00000000
ENDCHAR
STARTCHAR  5148
ENCODING  20808
SWIDTH  1000 0
DWIDTH  30 0
BBX  30 29 0 -2
BITMAP
00030000
01030000
03830000
03030000
03030000
07FFFFE0
07FFFFE0
0E030000
0C030000
1C030000
38030000
30030000
00030000
00030000
7FFFFFF8
7FFFFFF8
00606000
00606000
00606000
00606000
00E06000
00C0601C
01C06018
03806018
07806018
1F007038
7C007FF8
78003FF0
60000000
ENDCHAR
STARTCHAR  5149
ENCODING  20809
SWIDTH  1000 0
DWIDTH  30 0
BBX  30 30 0 -2
BITMAP
00000000
00030000
00030000
08030040
1C0300F0
0E0301E0
070301C0
03830380
01C30700
01E30E00
00830C00
00030000
00030000
7FFFFFFC
7FFFFFFC
00303000
00303000
00303000
00703000
00703000
00603000
00603010
00E0301C
01C0301C
03C0301C
0780301C
1F003018
7E003FF8
78001FF0
20000000
ENDCHAR
STARTCHAR  514B
ENCODING  20811
SWIDTH  1000 0
DWIDTH  30 0
BBX  30 29 0 -2
BITMAP
00030000
00030000
00030000
7FFFFFF8
7FFFFFF8
00030000
00030000
00030000
00030000
07FFFFC0
07FFFFC0
060000C0
060000C0
060000C0
060000C0
060000C0
07FFFFC0
07FFFFC0
063860C0
063860C0
00306000
00306010
00706018
00E06018
01E06018
07807038
7F007FF8
7C003FF0
20000000
ENDCHAR
STARTCHAR  514D
ENCODING  20813
SWIDTH  1000 0
DWIDTH  30 0
BBX  30 31 0 -3
BITMAP
00000000
00300000
00700000
00E00000
00FFFC00
01FFFC00
03801C00
07003800
0E007000
1C00E000
3FFFFFC0
FFFFFFC0
6C0300C0
0C0300C0
0C0300C0
0C0700C0
0C0600C0
0FFFFFC0
0FFFFFC0
0C0C00C0
0C1D80C0
00198018
0039801C
00718018
00E18018
03C18018
0F818038
3F01FFF8
7C00FFF0
30000000
00000000
ENDCHAR
STARTCHAR  5151
ENCODING  20817
SWIDTH  1000 0
DWIDTH  30 0
BBX  30 30 0 -2
BITMAP
00000000
00C00C00
00E01C00
00601C00
00703800
00207000
0FFFFFC0
0FFFFFC0
0C0000C0
0C0000C0
0C0000C0
0C0000C0
0C0000C0
0C0000C0
0C0000C0
0C0000C0
0FFFFFC0
0FFFFFC0
0C3060C0
00306000
00306000
00706000
0060601C
00E06018
01C06018
03C06018
0F807038
7E007FF0
78003FE0
20000000
ENDCHAR
STARTCHAR  5154
ENCODING  20820
SWIDTH  1000 0
DWIDTH  30 0
BBX  30 30 0 -3
BITMAP
00200000
00700000
00E00000
01FFFC00
01FFFC00
03801C00
07003800
1E007000
3FFFFFC0
7FFFFFC0
7C0300C0
0C0300C0
0C0300C0
0C0300C0
0C0700C0
0C0600C0
0FFFFFC0
0FFFFFC0
0C0C00C0
000D8600
001D8618
0039871C
00718398
00E18118
03C18018
0781C038
3F01FFF8
7C00FFE0
30000000
00000000
ENDCHAR
STARTCHAR  5155
ENCODING  20821
SWIDTH  1000 0
DWIDTH  30 0
BBX  29 28 0 -2
BITMAP
1FF07FC0
1FF07FC0
183060C0
183060C0
183060C0
183060C0
183060C0
183FE0C0
183FE0C0
180000C0
180000C0
180000C0
180000C0
1FFFFFC0
1FFFFFC0
183060C0
00306000
00306000
00606000
00606000
00E06038
00C06038
01C06038
07806038
1F007030
7E007FF0
78003FE0
00000000
ENDCHAR
STARTCHAR  5156
ENCODING  20822
SWIDTH  1000 0
DWIDTH  30 0
BBX  31 30 -1 -2
BITMAP
00000000
00070000
00030000
00038000
3FFFFFF8
3FFFFFF8
00000000
00200800
00E01E00
01E00F80
078403E0
1F0E00F8
3C1C0038
10381810
00701E00
00E00F00
03C00780
0FFFFFC0
07FFFFE0
06303060
00303000
00303000
00303000
0070300C
00E0300C
01E0301C
07C03018
7F003FF8
3C001FF0
20000000
ENDCHAR
STARTCHAR  515A
ENCODING  20826
SWIDTH  1000 0
DWIDTH  30 0
BBX  29 29 1 -2
BITMAP
00060100
0C060300
0F060700
07861E00
01860C00
00060000
7FFFFFE0
7FFFFFE0
60000060
60000060
60000060
67FFFE60
07FFFE00
06000600
06000600
06000600
06000600
07FFFE00
07FFFE00
0630C600
0070C000
0070C020
00E0C030
00E0C030
03C0C070
0F80C070
7F00FFE0
7C007FC0
60000000
ENDCHAR
STARTCHAR  515C
ENCODING  20828
SWIDTH  1000 0
DWIDTH  30 0
BBX  30 29 0 -2
BITMAP
00070000
00070000
03060000
1F7FF7E0
3E7FF7E0
30603060
30603060
30603060
30603060
307FF060
307FF060
30603060
30603060
30603060
37603060
3F7FF3E0
7C7FF3E0
38603060
00000060
00606000
00606000
00606010
00E06018
00C06018
03C06038
0F807030
FE007FF0
78003FE0
40000000
ENDCHAR
STARTCHAR  5162
ENCODING  20834
SWIDTH  1000 0
DWIDTH  30 0
BBX  30 29 0 -2
BITMAP
01800600
01800600
01800600
01800600
7FFDFFF8
7FFDFFF8
01800600
01800600
01800600
3FF9FFF0
3FF9FFF0
30198030
30198030
30198030
30198030
3FF9FFF0
3FF9FFF0
36D9B330
06C03300
06C03300
06C03300
0CC07300
0CC4630C
1CDCE30C
18F8C31C
39F3C318
70E783F8
600701F0
40000000
ENDCHAR
STARTCHAR  5165
ENCODING  20837
SWIDTH  1000 0
DWIDTH  30 0
BBX  30 29 0 -2
BITMAP
00200000
00700000
00380000
001C0000
001C0000
000E0000
00060000
00070000
00078000
000F8000
000FC000
000DC000
001CC000
001CE000
00187000
00387000
00703800
00703800
00E01C00
01E00E00
01C00E00
03800700
07000380
0F0003C0
1E0001F0
7C0000FC
70000078
20000010
00000000
ENDCHAR
STARTCHAR  5168
ENCODING  20840
SWIDTH  1000 0
DWIDTH  30 0
BBX  30 28 0 -1
BITMAP
00000000
00038000
0007C000
000FC000
001CE000
00387000
00703C00
01E01E00
03C00F80
078003C0
1F0001F0
7C00007C
7BFFFFB8
23FFFF80
00030000
00030000
00030000
00030000
07FFFFC0
07FFFFC0
00030000
00030000
00030000
00030000
00030000
00030000
3FFFFFF8
3FFFFFF8
ENDCHAR
STARTCHAR  516B
ENCODING  20843
SWIDTH  1000 0
DWIDTH  30 0
BBX  30 28 0 -2
BITMAP
00007000
00707000
00707000
00703000
00703000
00603000
00603000
00603800
00E03800
00E03800
00E03800
00C01800
00C01C00
01C01C00
01C01C00
01800E00
03800E00
03800E00
07000700
07000780
0E000380
0E0003C0
1C0001E0
3C0000F0
78000078
F0000078
60000010
00000000
ENDCHAR
STARTCHAR  516C
ENCODING  20844
SWIDTH  1000 0
DWIDTH  30 0
BBX  30 29 0 -2
BITMAP
00000000
00206000
00707000
00703000
00E03800
00E01C00
01C01C00
03800E00
07800700
07000380
0E0001C0
1C0001F0
380E0078
F00E0038
601C0010
001C0000
00380000
00701000
00703000
00E03800
01C01C00
01C00E00
03800E00
07000700
1FFFFF80
1FFFFF80
0FE001C0
000000C0
00000000
ENDCHAR
STARTCHAR  516D
ENCODING  20845
SWIDTH  1000 0
DWIDTH  30 0
BBX  30 29 0 -2
BITMAP
00000000
000E0000
00070000
00070000
00038000
0003C000
00010000
00000000
7FFFFFF8
7FFFFFF8
00000000
00000000
00000000
00000000
00703000
00703800
00E01C00
01E01E00
01C00E00
03800700
03800380
070003C0
0E0001C0
1E0000E0
1C0000F0
38000070
70000038
30000020
00000000
ENDCHAR
STARTCHAR  516E
ENCODING  20846
SWIDTH  1000 0
DWIDTH  30 0
BBX  30 29 0 -2
BITMAP
00002000
00306000
00707000
00703000
00E01800
01C01C00
03800E00
07000700
0E000380
1C0001E0
7BFFFEF8
F3FFFE78
60E00010
00E00000
01C00000
01C00000
01800000
03FFFF00
03FFFF00
00000600
00000600
00000600
00000600
00000600
00000E00
00001C00
001FFC00
001FF800
00000000
ENDCHAR
STARTCHAR  5170
ENCODING  20848
SWIDTH  1000 0
DWIDTH  30 0
BBX  29 27 1 0
BITMAP
01000800
07800E00
03801C00
01C03C00
00E03800
00407000
0000E000
7FFFFFF0
7FFFFFF0
00000000
00000000
00000000
00000000
00000000
00000000
1FFFFF80
1FFFFF80
00000000
00000000
00000000
00000000
00000000
00000000
00000000
FFFFFFF8
FFFFFFF8
00000000
ENDCHAR
STARTCHAR  5171
ENCODING  20849
SWIDTH  1000 0
DWIDTH  30 0
BBX  30 29 0 -2
BITMAP
00600C00
00600C00
00600C00
00600C00
00600C00
00600C00
3FFFFFF0
3FFFFFF0
00600C00
00600C00
00600C00
00600C00
00600C00
00600C00
00600C00
00600C00
7FFFFFFC
7FFFFFFC
00000000
00000000
00301800
00F83C00
01E01F00
07C00780
0F0003E0
3E0000F0
78000078
20000030
00000000
ENDCHAR
STARTCHAR  5173
ENCODING  20851
SWIDTH  1000 0
DWIDTH  30 0
BBX  30 30 0 -2
BITMAP
00000000
01000400
03800E00
01C00E00
00E01C00
00703800
00207000
1FFFFFE0
1FFFFFE0
00030000
00030000
00030000
00030000
00030000
00030000
7FFFFFF8
7FFFFFF8
00078000
00078000
000FC000
000CE000
001CE000
00387800
00703C00
01E01E00
03C00F80
0F8007E0
3E0001F8
7C000070
20000000
ENDCHAR
STARTCHAR  5174
ENCODING  20852
SWIDTH  1000 0
DWIDTH  30 0
BBX  29 29 1 -2
BITMAP
00180000
001C0040
301C00E0
380C00E0
380E01C0
1C0E01C0
0C060380
0E070380
06070700
07030E00
03030E00
03000C00
00000000
00000000
FFFFFFF8
FFFFFFF8
00000000
00000000
00403000
00E07800
01C03C00
03C01E00
07800F00
0F000780
1E0003C0
3C0001E0
780000F0
70000070
00000000
ENDCHAR
STARTCHAR  5175
ENCODING  20853
SWIDTH  1000 0
DWIDTH  30 0
BBX  29 29 1 -2
BITMAP
00000000
00007F00
07FFFF80
07FFF000
06000000
06000000
06000000
06000000
06000000
07FFFFE0
07FFFFE0
06003000
06003000
06003000
06003000
06003000
06003000
06003000
FFFFFFF8
FFFFFFF8
00000000
00C03000
01E07800
03C01E00
0F000F00
1E0003C0
780001E0
F0000070
40000020
ENDCHAR
STARTCHAR  5176
ENCODING  20854
SWIDTH  1000 0
DWIDTH  30 0
BBX  30 30 0 -3
BITMAP
00000000
03000180
03000180
03000180
7FFFFFF8
7FFFFFF8
03000180
03000180
03000180
03FFFF80
03FFFF80
03000180
03000180
03000180
03FFFF80
03FFFF80
03000180
03000180
03000180
03000180
7FFFFFFC
7FFFFFFC
00000000
00701C00
01F03F80
07E007E0
1F0001F8
7C00007C
70000018
00000000
ENDCHAR
STARTCHAR  5177
ENCODING  20855
SWIDTH  1000 0
DWIDTH  30 0
BBX  30 28 0 -2
BITMAP
0FFFFF80
0FFFFF80
0C000180
0C000180
0C000180
0FFFFF80
0FFFFF80
0C000180
0C000180
0C000180
0FFFFF80
0FFFFF80
0C000180
0C000180
0FFFFF80
0FFFFF80
0C000180
0C000180
0C000180
FFFFFFF8
FFFFFFF8
00000000
00603000
03F07E00
0FC01FC0
7F0003F8
780000F0
60000010
ENDCHAR
STARTCHAR  5178
ENCODING  20856
SWIDTH  1000 0
DWIDTH  30 0
BBX  30 29 0 -2
BITMAP
00186000
00186000
00186000
00186000
0FFFFFC0
0FFFFFC0
0C1860C0
0C1860C0
0C1860C0
0C1860C0
0C1860C0
0FFFFFC0
0FFFFFC0
0C1860C0
0C1860C0
0C1860C0
0C1860C0
0C1860C0
0C1860C0
7FFFFFF8
7FFFFFF8
00000000
00102000
00F03800
03F03F00
0FC00FC0
3F0003F0
78000070
20000010
ENDCHAR
STARTCHAR  5179
ENCODING  20857
SWIDTH  1000 0
DWIDTH  30 0
BBX  29 30 1 -3
BITMAP
01000C00
03800E00
01C01C00
00E03800
00607000
FFFFFFF8
FFFFFFF8
03801800
07003800
06003000
0E007000
0C1061C0
1C38C180
3871C380
30718300
7FE3FF00
7FC3FE00
01C00C00
01801C00
03001800
07203100
0E607180
0C306180
1C30C0C0
3819C0E0
7FFBFFE0
7FFFFFF0
000C0030
00000030
00000000
ENDCHAR
STARTCHAR  517B
ENCODING  20859
SWIDTH  1000 0
DWIDTH  30 0
BBX  30 30 0 -3
BITMAP
00400800
00E01C00
00701C00
00603800
3FFFFFE0
3FFFFFE0
00060000
00060000
00060000
1FFFFFC0
1FFFFFC0
000E0000
000C0000
7FFFFFF8
7FFFFFF8
00383800
00F03C00
01E01F00
07C007C0
3F601BF8
7C6018F8
60601810
00E01800
00C01800
01C01800
03801800
0F001800
3E001800
18001800
00000000
ENDCHAR
STARTCHAR  517C
ENCODING  20860
SWIDTH  1000 0
DWIDTH  30 0
BBX  30 30 0 -2
BITMAP
00000000
00C01800
00E01C00
00703800
7FFFFFFC
7FFFFFFC
00306000
00306000
00306000
1FFFFFC0
1FFFFFC0
003060C0
003060C0
003060C0
7FFFFFFC
7FFFFFFC
003060C0
003060C0
1FFFFFC0
1FFFFFC0
007070C0
00F07800
01F06C00
03B06700
07306380
1C3061E0
7830607C
70306038
00306000
00306000
ENDCHAR
STARTCHAR  517D
ENCODING  20861
SWIDTH  1000 0
DWIDTH  30 0
BBX  30 29 0 -2
BITMAP
00400800
00E01C00
00701800
00303800
1FFFFFE0
1FFFFFE0
18030060
18030060
1FFFFFE0
1FFFFFE0
18030060
18030060
1FFFFFE0
1FFFFFE0
18000060
18000060
7FFFFFF8
7FFFFFF8
00000000
00000000
07FFFF80
07FFFF80
06000180
06000180
06000180
06000180
07FFFF80
07FFFF80
06000180
ENDCHAR
STARTCHAR  5180
ENCODING  20864
SWIDTH  1000 0
DWIDTH  30 0
BBX  30 29 0 -2
BITMAP
00306000
00306070
7FF067F8
7FF07F00
0030601C
01F06018
7FF07FF8
70303FF0
00000000
0FFFFFC0
0C0300C0
0C0300C0
0FFFFFC0
0C0300C0
0C0300C0
0C0300C0
0FFFFFC0
0C6018C0
00601800
3FFFFFF0
3FFFFFF0
00601800
7FFFFFFC
7FFFFFFC
00000000
00F03E00
0FE00FE0
7F0000F8
30000018
ENDCHAR
STARTCHAR  5181
ENCODING  20865
SWIDTH  1000 0
DWIDTH  30 0
BBX  30 29 0 -2
BITMAP
00000000
30600000
1867FFF8
1CC7FFF8
08C60018
7FF60018
7FF7FFF8
6337FFF8
63360018
633630C0
7FF630C0
7FF6FFF8
6336FFF8
633630C0
633630C0
633630C0
7FF630C0
7FF7FFF8
6337FFF8
03066C00
03066618
03066730
7FFC63E0
7FFC61C0
030C60E0
030C6670
03187E3C
03187808
03004000
ENDCHAR
STARTCHAR  5182
ENCODING  20866
SWIDTH  1000 0
DWIDTH  30 0
BBX  25 27 2 -2
BITMAP
00000000
7FFFFF80
7FFFFF80
60000180
60000180
60000180
60000180
60000180
60000180
60000180
60000180
60000180
60000180
60000180
60000180
60000180
60000180
60000180
60000180
60000180
60000180
60000180
60000380
60000380
6001FF80
6000FF00
60000000
ENDCHAR
STARTCHAR  5185
ENCODING  20869
SWIDTH  1000 0
DWIDTH  30 0
BBX  25 30 2 -3
BITMAP
00000000
000C0000
000C0000
000C0000
000C0000
000C0000
7FFFFF80
7FFFFF80
600C0180
600C0180
601C0180
601C0180
601C0180
601E0180
603F0180
60738180
6071C180
61E0E180
63C07980
6F803D80
6F001980
64000180
60000180
60000180
60000180
60000380
6000FF80
6000FF00
60000000
00000000
ENDCHAR
STARTCHAR  5188
ENCODING  20872
SWIDTH  1000 0
DWIDTH  30 0
BBX  26 27 2 -2
BITMAP
00000000
FFFFFF80
FFFFFF80
C0000180
C0000180
C2006180
C7007180
C380E180
C1C1C180
C1E38180
C0F30180
C07F0180
C03E0180
C01C0180
C03E0180
C0770180
C0E38180
C1C1C180
C380E180
CF007180
CE002180
C4000180
C0000180
C0000380
C000FF80
C000FF00
C0000000
ENDCHAR
STARTCHAR  5189
ENCODING  20873
SWIDTH  1000 0
DWIDTH  30 0
BBX  29 29 1 -2
BITMAP
00000000
00060000
00060000
00060000
0FFFFF80
0FFFFF80
0C060180
0C060180
0C060180
0C060180
0C060180
0FFFFF80
0FFFFF80
0C060180
0C060180
0C060180
0C060180
0C060180
FFFFFFF8
FFFFFFF8
0C000180
0C000180
0C000180
0C000180
0C000180
0C000180
0C007F80
0C007F00
0C000000
ENDCHAR
STARTCHAR  518C
ENCODING  20876
SWIDTH  1000 0
DWIDTH  30 0
BBX  29 28 1 -2
BITMAP
00000000
1FF0FFC0
1FF0FFC0
1830C0C0
1830C0C0
1830C0C0
1830C0C0
1830C0C0
1830C0C0
1830C0C0
1830C0C0
FFFFFFF8
FFFFFFF8
1830C0C0
1830C0C0
1830C0C0
1830C0C0
1830C0C0
1830C0C0
1830C0C0
3831C0C0
303180C0
303180C0
703380C0
63F300C0
E3E71FC0
40031F80
00000000
ENDCHAR
STARTCHAR  518D
ENCODING  20877
SWIDTH  1000 0
DWIDTH  30 0
BBX  29 28 1 -2
BITMAP
00000000
7FFFFFF0
7FFFFFF0
00060000
00060000
00060000
0FFFFF80
0FFFFF80
0C060180
0C060180
0C060180
0C060180
0FFFFF80
0FFFFF80
0C060180
0C060180
0C060180
0C060180
FFFFFFF8
FFFFFFF8
0C000180
0C000180
0C000180
0C000180
0C000380
0C007F80
0C007F00
0C000000
ENDCHAR
STARTCHAR  5192
ENCODING  20882
SWIDTH  1000 0
DWIDTH  30 0
BBX  26 28 2 -2
BITMAP
7FFFFFC0
7FFFFFC0
600000C0
600000C0
6FFFFCC0
6FFFFCC0
600000C0
600000C0
6FFFFCC0
6FFFFCC0
600000C0
00000000
1FFFFF00
1FFFFF00
18000300
18000300
1FFFFF00
1FFFFF00
18000300
18000300
1FFFFF00
1FFFFF00
18000300
18000300
18000300
1FFFFF00
1FFFFF00
18000300
ENDCHAR
STARTCHAR  5195
ENCODING  20885
SWIDTH  1000 0
DWIDTH  30 0
BBX  30 28 0 -2
BITMAP
3FFFFFE0
3FFFFFE0
30000060
30000060
33FFFE60
33FFFE60
30000060
33FFFE60
33FFFE60
00E00000
01FFFE00
03FFFE00
07001C00
0E003800
1FFFFFC0
3FFFFFC0
2C0700C0
0C0600C0
0C0600C0
0FFFFFC0
0FFFFFC0
0C1D80D0
00398018
00F18018
07C18038
3F01FFF0
7C00FFE0
20000000
ENDCHAR
STARTCHAR  5196
ENCODING  20886
SWIDTH  1000 0
DWIDTH  30 0
BBX  27 8 2 16
BITMAP
FFFFFFE0
FFFFFFE0
E00000E0
E00000E0
E00000E0
E00000E0
E00000E0
00000000
ENDCHAR
STARTCHAR  5197
ENCODING  20887
SWIDTH  1000 0
DWIDTH  30 0
BBX  30 27 0 -2
BITMAP
00000000
1FFFFFF0
1FFFFFF0
18000030
18000030
18000030
18000030
18000030
007FF800
007FF800
00601800
00601800
00601800
00601800
00601800
00601800
00E01800
00E01800
00C01800
00C0181C
01C0181C
0380181C
07801818
0F001C38
3E001FF8
78000FF0
30000000
ENDCHAR
STARTCHAR  5199
ENCODING  20889
SWIDTH  1000 0
DWIDTH  30 0
BBX  29 28 0 -2
BITMAP
00000000
3FFFFFF0
3FFFFFF0
30000030
31800030
31800030
03800000
03FFFFC0
03FFFFC0
03000000
07000000
07000000
07000000
07FFFFE0
07FFFFE0
000000E0
000000C0
000000C0
000000C0
FFFFFCC0
FFFFFCC0
000000C0
000000C0
000001C0
000003C0
0003FF80
0001FF00
00000000
ENDCHAR
STARTCHAR  519B
ENCODING  20891
SWIDTH  1000 0
DWIDTH  30 0
BBX  30 28 0 -2
BITMAP
00000000
3FFFFFF0
3FFFFFF0
30000030
30380030
30380030
00700000
7FFFFFF0
7FFFFFF0
00C00000
01C18000
01818000
03818000
07018000
06018000
0FFFFFE0
0FFFFFE0
00018000
00018000
00018000
00018000
7FFFFFF8
7FFFFFF8
00018000
00018000
00018000
00018000
00018000
ENDCHAR
STARTCHAR  519C
ENCODING  20892
SWIDTH  1000 0
DWIDTH  30 0
BBX  31 29 -1 -2
BITMAP
0001C000
0001C000
00018000
00038000
1FFFFFF8
1FFFFFF8
18070018
18070018
180F0018
180F8018
001D8000
0039C020
0038C0E0
0070C1E0
00E0E7C0
01E07F00
03E07C00
07E03800
0F601C00
3E600E00
78600F00
70602780
2060E3E0
0063E0F0
006F807C
00FE0038
00F80008
00E00000
00000000
ENDCHAR
STARTCHAR  51A0
ENCODING  20896
SWIDTH  1000 0
DWIDTH  30 0
BBX  29 28 0 -2
BITMAP
00000000
7FFFFFF0
7FFFFFF0
60000030
60000030
600001B0
00000180
1FFC0180
1FFC0180
0003FFF0
0003FFF0
00000180
00000180
7FFE4180
7FFEE180
06306180
06307180
06303980
06300180
06300198
06300390
0E307F90
0C307F10
1C300030
38380070
783FFFE0
601FFFC0
40000000
ENDCHAR
STARTCHAR  51A2
ENCODING  20898
SWIDTH  1000 0
DWIDTH  30 0
BBX  29 29 1 -3
BITMAP
00000000
7FFFFFE0
7FFFFFE0
60000060
60000060
60000060
6FFFFFE0
0FFFFF80
001C0000
00380000
00F00180
03F80380
1F180F00
FC1C1E00
723E7800
4377F000
03C3F800
07871800
1FC79C00
FCDD8E00
70398E00
40718780
01E183C0
03C181F0
0F0180F0
7C038020
70FF0000
407E0000
00000000
ENDCHAR
STARTCHAR  51A4
ENCODING  20900
SWIDTH  1000 0
DWIDTH  30 0
BBX  30 28 0 -2
BITMAP
00000000
3FFFFFF0
3FFFFFF0
30400030
30700030
30E00030
31FFFC30
03FFFC00
07001C00
0E001800
1C003000
3FFFFFE0
7FFFFFE0
2C030060
0C030060
0C030060
0C060060
0FFFFFE0
0FFFFFE0
0C0C0060
001D8C00
00398708
00718398
01E18118
07C18018
3F01FFF8
7C00FFF0
30000000
ENDCHAR
STARTCHAR  51A5
ENCODING  20901
SWIDTH  1000 0
DWIDTH  30 0
BBX  29 28 1 -2
BITMAP
00000000
7FFFFFF0
7FFFFFF0
60000030
60000030
67FFFF30
67FFFF30
06000300
06000300
06000300
07FFFF00
07FFFF00
06000300
06000300
07FFFF00
07FFFF00
06060300
00070000
00030000
FFFFFFF8
FFFFFFF8
00000000
00603000
03F07E00
0FC01FC0
7F0003F8
780000F0
40000010
ENDCHAR
STARTCHAR  51AB
ENCODING  20907
SWIDTH  1000 0
DWIDTH  30 0
BBX  8 25 4 0
BITMAP
60
70
38
1C
0E
07
03
00
00
00
00
00
00
03
03
06
06
0C
0C
18
18
30
30
60
E0
ENDCHAR
STARTCHAR  51AC
ENCODING  20908
SWIDTH  1000 0
DWIDTH  30 0
BBX  30 30 0 -3
BITMAP
00200000
00700000
00600000
00FFFF80
01FFFF80
03C00380
07C00700
0E600E00
1C701C00
38387800
301CF000
000FE000
000FC000
003FF000
01F87F00
1FE01FFC
7F0003F8
78600038
007F0000
003FF000
0003F800
00003800
00000000
03000000
03F80000
03FF8000
001FFC00
0001FE00
00001C00
00000000
ENDCHAR
STARTCHAR  51AF
ENCODING  20911
SWIDTH  1000 0
DWIDTH  30 0
BBX  29 28 0 -2
BITMAP
00FFFF80
20FFFF80
70000180
38000180
3C380180
1E380180
0E380180
04300180
00300380
00300380
00300380
00300380
003FFFF0
0E3FFFF0
0E000030
0C000030
0C000030
1C000030
18000030
19FFFF30
39FFFF30
30000030
70000030
70000070
60000060
20007FE0
00007FC0
00000000
ENDCHAR
STARTCHAR  51B0
ENCODING  20912
SWIDTH  1000 0
DWIDTH  30 0
BBX  29 29 1 -2
BITMAP
0000C000
2000C000
6000C000
7000C000
3800C000
3800C000
1C00E040
0E00E0E0
0CFEE1E0
00FEE3C0
0006F780
000EFE00
000EFC00
000CD800
0C0CD800
0E1CCC00
0C18CC00
1C38CE00
1C38C700
1870C380
3860C3C0
38E0C1E0
31C0C0F0
7380C070
7700C020
6200C000
E01FC000
201F8000
00000000
ENDCHAR
STARTCHAR  51B1
ENCODING  20913
SWIDTH  1000 0
DWIDTH  30 0
BBX  30 27 0 -1
BITMAP
20000000
60FFFFF8
70FFFFF8
380C0000
1C1C0000
1C1C0000
0E180000
0C180000
001FFFC0
001FFFC0
001800C0
003800C0
003800C0
043800C0
0E3000C0
0E3000C0
0C3000C0
1C3FFFC0
1C3FFFC0
180001C0
380001C0
30000180
70000180
70000180
61FFFFF8
E1FFFFF8
20000000
ENDCHAR
STARTCHAR  51B2
ENCODING  20914
SWIDTH  1000 0
DWIDTH  30 0
BBX  28 29 0 -2
BITMAP
00003000
00003000
70003000
38003000
38003000
1C003000
0E3FFFE0
0E3FFFE0
06303060
00303060
00303060
00303060
00303060
00303060
06303060
06303060
0E303060
0E3FFFE0
0C3FFFE0
1C303060
1C003000
18003000
38003000
38003000
30003000
70003000
70003000
00003000
00003000
ENDCHAR
STARTCHAR  51B3
ENCODING  20915
SWIDTH  1000 0
DWIDTH  30 0
BBX  30 29 0 -2
BITMAP
00000000
0000C000
0000C000
7000C000
3800C000
1C00C000
0E3FFFC0
0F3FFFC0
0600C0C0
0000C0C0
0000C0C0
0000C0C0
0000C0C0
0400C0C0
0EFFFFFC
0EFFFFFC
0C01E000
1C01E000
1C01F000
1803B000
38033800
30071C00
300E0E00
701C0780
607803C0
20F001F8
03E000F0
01C00030
00000000
ENDCHAR
STARTCHAR  51B5
ENCODING  20917
SWIDTH  1000 0
DWIDTH  30 0
BBX  30 28 0 -2
BITMAP
00000000
003FFFE0
703FFFE0
78300060
3C300060
1E300060
0F300060
06300060
00300060
00300060
00300060
003FFFE0
003FFFE0
06318C60
07318C60
06018C00
0E018C00
0E038C00
1C030C00
1C030C00
18070C10
380E0C1C
300E0C18
703C0C18
70780C18
21F00FF8
01C007F0
00800000
ENDCHAR
STARTCHAR  51B6
ENCODING  20918
SWIDTH  1000 0
DWIDTH  30 0
BBX  30 29 0 -2
BITMAP
00004000
0000E000
3000C000
7801C000
3C038100
1E030380
0E0701C0
070E00C0
020C00E0
001C0070
003FFFF0
007FFFF8
003C0018
0400001C
06000000
0E000000
0E1FFFE0
0C1FFFE0
1C180060
1C180060
18180060
38180060
38180060
30180060
70180060
701FFFE0
001FFFE0
00180060
00180060
ENDCHAR
STARTCHAR  51B7
ENCODING  20919
SWIDTH  1000 0
DWIDTH  30 0
BBX  30 31 0 -3
BITMAP
00000000
00006000
0000F000
6000F800
7001D800
38039C00
1C070E00
0E0E0700
041C0380
003DC1E0
00F0E0F0
01E0607C
01C07018
00003000
00000000
0C000000
0E7FFFE0
0C7FFFE0
0C0000E0
1C0001C0
1C000380
18100700
181C0E00
381F1C00
3807F800
3003F000
7000F800
70003E00
00000F00
00000200
00000000
ENDCHAR
STARTCHAR  51BB
ENCODING  20923
SWIDTH  1000 0
DWIDTH  30 0
BBX  30 29 0 -2
BITMAP
0001C000
00038000
70038000
70030000
38FFFFF8
1CFFFFF8
1C0E0000
0E0C0000
041C0000
001C3000
00383000
00383000
00303000
00703000
047FFFF8
067FFFF8
0E003000
0E003000
0C0C3180
1C1C3180
181C31C0
183830E0
38703060
30703070
70E03038
71C03038
6187F018
0087E000
00000000
ENDCHAR
STARTCHAR  51BC
ENCODING  20924
SWIDTH  1000 0
DWIDTH  30 0
BBX  30 30 1 -3
BITMAP
00000000
00006000
601C6000
60186000
70186000
38386000
383FFFE0
1C7FFFE0
1C706000
08E06000
00E06000
00C06000
00006000
00006000
01FFFFF8
09FFFFF8
1C060C00
1C060C00
18060C00
180E0C00
380E0C00
300C0C10
301C0C18
70180C18
70380C18
60F00C38
E1E00FF0
63C007E0
03000000
00000000
ENDCHAR
STARTCHAR  51BD
ENCODING  20925
SWIDTH  1000 0
DWIDTH  30 0
BBX  29 30 0 -2
BITMAP
00000000
00000030
00000030
30FFF030
38FFF030
38180030
1C180630
0E180630
0E180630
043FE630
003FE630
00306630
00606630
0060E630
0CE0C630
0EC0C630
0DD8C630
1D9FC630
1D8F8630
18038630
18030630
38070630
38060630
300E0030
301C0030
70380030
70780030
00F007F0
006007E0
00400000
ENDCHAR
STARTCHAR  51C0
ENCODING  20928
SWIDTH  1000 0
DWIDTH  30 0
BBX  30 30 0 -3
BITMAP
00020000
00030000
00070000
700FFF00
300FFF00
381C0700
18380E00
1C701C00
0CF03800
09FFFFE0
007FFFE0
00006060
00006060
00006060
08FFFFF8
0CFFFFF8
0C006060
1C006060
1C006060
183FFFE0
183FFFE0
38006060
30006060
30006000
70006000
70006000
0000E000
000FE000
000FC000
00000000
ENDCHAR
STARTCHAR  51C4
ENCODING  20932
SWIDTH  1000 0
DWIDTH  30 0
BBX  29 30 0 -3
BITMAP
00006000
00006000
30006000
70FFFFF0
38FFFFF0
1C006000
1E3FFFE0
0E3FFFE0
00006060
00006060
01FFFFF8
01FFFFF8
00006060
08006060
0C3FFFE0
0C3FFFE0
1C018000
1C038000
18030000
19FFFFF8
39FFFFF8
380C0300
301C0700
701F8E00
7003FC00
6000FE00
200FEFC0
01FF03F0
00F80060
00000000
ENDCHAR
STARTCHAR  51C6
ENCODING  20934
SWIDTH  1000 0
DWIDTH  30 0
BBX  30 31 0 -3
BITMAP
00000000
00061800
00061C00
600E0C00
700C0E00
381C0000
1C1FFFF8
0E3FFFF8
0F380C00
04780C00
00F80C00
00F80C00
01DFFFF0
009FFFF0
04180C00
06180C00
06180C00
0E180C00
0C180C00
0C1FFFF0
1C1FFFF0
18180C00
18180C00
38180C00
30180C00
30180C00
701FFFF8
301FFFF8
00180000
00180000
00000000
ENDCHAR
STARTCHAR  51C7
ENCODING  20935
SWIDTH  1000 0
DWIDTH  30 0
BBX  30 29 0 -2
BITMAP
00300000
00300180
C0303980
60303180
60303180
703030C0
33FE60C0
3BFE60E0
1030E060
0070C070
0071C030
00718438
00FF8E18
00FE0C10
10F60C00
19B70C00
19B21800
3BB01800
33301980
373031C0
363030C0
763070C0
60306060
60306060
6030C070
E031FFF0
2031FFF0
0030C038
00300000
ENDCHAR
STARTCHAR  51C9
ENCODING  20937
SWIDTH  1000 0
DWIDTH  30 0
BBX  30 30 0 -3
BITMAP
00004000
0000C000
3000E000
70006000
38FFFFF8
1CFFFFF8
1C000000
0E000000
0E000000
003FFFE0
003FFFE0
00300060
00300060
00300060
04300060
06300060
0E3FFFE0
0E3FFFE0
0C306060
1C006000
1C106080
183863C0
383861E0
307060E0
70E06070
71C06038
6380E01C
210FE000
0007C000
00000000
ENDCHAR
STARTCHAR  51CB
ENCODING  20939
SWIDTH  1000 0
DWIDTH  30 0
BBX  28 27 1 -2
BITMAP
40FFFFE0
E0FFFFE0
70C00060
30C0C060
38C0C060
1CCFFE60
1CCFFE60
00C0C060
00C0C060
00C0C060
00DFFF60
00DFFF60
10C00060
1CC00060
18CFFC60
18CFFC60
38CC0C60
31CC0C60
318C0C60
718C0C60
718FFC60
638FFC60
E30C0060
67000060
0E001FE0
0E001FC0
04000000
ENDCHAR
STARTCHAR  51CC
ENCODING  20940
SWIDTH  1000 0
DWIDTH  30 0
BBX  30 31 0 -3
BITMAP
00000000
00003000
00003000
70003000
70003000
383FFFF0
1C3FFFF0
1C003000
0E003000
04FFFFF8
00FFFFF8
00000000
00060300
001E03C0
003C00F0
00F98078
0CE30018
0E47FFC0
0C0FFFC0
1C1E01C0
1C3F0380
18738700
18E1CE00
3840FC00
38007800
3001FE00
7007CF80
707F03F8
21FC00F8
00E00010
00000000
ENDCHAR
STARTCHAR  51CF
ENCODING  20943
SWIDTH  1000 0
DWIDTH  30 0
BBX  29 29 1 -2
BITMAP
00000C80
00000DC0
00000CE0
60000C60
70000C00
38FFFFF8
1CFFFFF8
1CC00C00
08C00C00
00DFCC00
00DFCC30
00C00C70
00C00C60
18C00C60
1CCFCCE0
18CFCCC0
18C8CEC0
38C8C780
30C8C780
31C8C780
7188C600
718FC618
618FCF18
E3881F18
E3003B98
070071B0
0600F1F0
0E01E0F0
04000060
ENDCHAR
STARTCHAR  51D1
ENCODING  20945
SWIDTH  1000 0
DWIDTH  30 0
BBX  30 31 0 -3
BITMAP
00000000
0000E000
0000C000
7000C000
30FFFFF0
38FFFFF0
1C00C000
1C01C000
0E7FFFE0
047FFFE0
00018000
00030000
01FFFFF8
01FFFFF8
080E0E00
0C0C0700
0C1C0380
1C3FFFC0
1C77FEF0
19E0C07C
1BC0C038
3980C000
387FFFC0
307FFFC0
7001C000
7003F800
70073E00
601E0F80
00FC03F0
00F00070
00800000
ENDCHAR
STARTCHAR  51DB
ENCODING  20955
SWIDTH  1000 0
DWIDTH  30 0
BBX  30 29 0 -2
BITMAP
00004000
0000E000
20006000
61FFFFF8
71FFFFF8
38000000
18FFFFF0
1CC00030
0CC00030
08C7FE30
00C60630
00C60630
00C7FE30
00C00030
0CC00030
1CFFFFF0
18C00030
183FFFC0
183FFFC0
38000000
30000000
31FFFFF8
31FFFFF8
70106000
603863C0
60F061F0
27C0607C
030FE018
000FC000
ENDCHAR
STARTCHAR  51DD
ENCODING  20957
SWIDTH  1000 0
DWIDTH  30 0
BBX  30 30 0 -3
BITMAP
00000000
01800000
21827FF0
619F7FF0
71FC0030
31E00060
398318E0
19831DC0
1D830F80
19FF0780
00FE0380
00C07FF8
00807FF8
01FF0338
19FF0330
1B306330
1B306300
38306300
33FF63F0
33FF63F0
30206300
30706300
70787300
60FCF300
60CEFF00
6184DF00
63818FF8
070383F8
02010000
00000000
ENDCHAR
STARTCHAR  51E0
ENCODING  20960
SWIDTH  1000 0
DWIDTH  30 0
BBX  28 27 1 -2
BITMAP
03FFF000
03FFF000
03003000
03003000
03003000
03003000
03003000
03003000
03003000
03003000
03003000
03003000
03003000
03003000
03003000
03003000
03003000
03003020
07003030
06003030
0E003030
0C003030
18003030
380038F0
70001FE0
E0000FC0
40000000
ENDCHAR
STARTCHAR  51E1
ENCODING  20961
SWIDTH  1000 0
DWIDTH  30 0
BBX  27 27 1 -2
BITMAP
0FFFF000
0FFFF000
0C003000
0C003000
0C003000
0C003000
0C003000
0C003000
0C203000
0CF03000
0C783000
0C383000
0C1C3000
0C0E3000
0C073000
0C043000
0C003000
0C003040
0C003060
0C003060
1C003060
18003060
38003060
700039E0
F0003FE0
E0001FC0
40000000
ENDCHAR
STARTCHAR  51E4
ENCODING  20964
SWIDTH  1000 0
DWIDTH  30 0
BBX  30 29 0 -3
BITMAP
00000000
1FFFFF80
1FFFFF80
18000180
18000180
18000180
19FFF180
19FFF180
18007180
18006180
18406180
18E0E180
1870C180
1838C180
181DC180
180F8180
180F0180
18070180
180F8180
181DC198
3838E19C
38707198
39E07998
37C03998
738011D8
720000F8
600000F8
60000070
00000000
ENDCHAR
STARTCHAR  51EB
ENCODING  20971
SWIDTH  1000 0
DWIDTH  30 0
BBX  30 31 0 -3
BITMAP
00000000
001C0000
001C0000
00180000
0FFFFF80
0FFFFF80
0C000180
0C200180
0C380180
0C3C0300
0C0F7F00
0C067E00
0C000000
0FFFFFE0
0FFFFFE0
00000060
00000060
00000060
01FFC060
01FFC0E0
0180CFC0
0180CF80
0180C018
0180C018
0380C018
0700C018
0F00E038
3E00FFF0
78007FE0
60000000
00000000
ENDCHAR
STARTCHAR  51ED
ENCODING  20973
SWIDTH  1000 0
DWIDTH  30 0
BBX  30 30 0 -3
BITMAP
01800000
01C003C0
03BFFFE0
073FFE00
07006000
0E006000
1E006000
3E006000
3EFFFFF8
76FFFFF8
66006000
06006000
06006000
06006000
063FFFF0
063FFFF0
06000000
00000000
00FFF800
00FFF800
00C01810
00C01818
00C01818
01C01818
01801818
07801838
3F001FF0
7C000FE0
30000000
00000000
ENDCHAR
STARTCHAR  51EF
ENCODING  20975
SWIDTH  1000 0
DWIDTH  30 0
BBX  30 31 1 -3
BITMAP
00000000
03000000
03000000
6318FF80
6318FF80
6318C180
6318C180
6318C180
7FF8C180
7FF8C180
0018C180
0000C180
0000C180
7FF8C180
7FF8C180
0018C180
0018C180
0018C180
3FF8C180
3FF8C180
3019C190
30018198
30018198
30018198
303B8198
33FB0198
7FE701B8
7E0E01F0
201C00F0
000C0000
00000000
ENDCHAR
STARTCHAR  51F0
ENCODING  20976
SWIDTH  1000 0
DWIDTH  30 0
BBX  30 28 0 -3
BITMAP
1FFFFF80
1FFFFF80
180C0180
180C0180
19FFF980
19FFF980
19801980
19801980
19FFF980
19FFF980
19801980
19FFF980
19FFF980
19801980
1BFFFD80
1BFFFD80
18060180
18060180
19FFF998
39FFF998
30060198
30060198
30060198
77FFFFD8
67FFFEF0
600000F0
40000060
00000000
ENDCHAR
STARTCHAR  51F3
ENCODING  20979
SWIDTH  1000 0
DWIDTH  30 0
BBX  30 30 0 -3
BITMAP
00000180
3FF9C780
3FF8DE00
00387830
387070F0
1EE03BC0
07FFFE00
077FF780
1E0003F8
F80000F8
63FFFF10
03FFFF00
03000300
03000300
03FFFF00
03FFFF00
00C00C00
00603800
00303000
7FFFFFF8
7FFFFFF8
00000000
00FFF800
00FFF800
00C01838
01801838
07801830
3E001FF0
380007C0
00000000
ENDCHAR
STARTCHAR  51F5
ENCODING  20981
SWIDTH  1000 0
DWIDTH  30 0
BBX  26 27 2 -2
BITMAP
60000180
60000180
60000180
60000180
60000180
60000180
60000180
60000180
60000180
60000180
60000180
60000180
60000180
60000180
60000180
60000180
60000180
60000180
60000180
60000180
60000180
60000180
60000180
7FFFFF80
7FFFFF80
00000180
00000180
ENDCHAR
STARTCHAR  51F6
ENCODING  20982
SWIDTH  1000 0
DWIDTH  30 0
BBX  26 29 2 -2
BITMAP
00000000
00001800
06003800
07003000
03807000
01C06000
60C0E180
60E1C180
6071C180
603B8180
601F0180
601F0180
600E0180
601F0180
603F8180
603B8180
6071C180
60E0E180
61C07180
63807180
67003980
6E001D80
64001180
60000180
60000180
7FFFFF80
7FFFFF80
00000180
00000180
ENDCHAR
STARTCHAR  51F8
ENCODING  20984
SWIDTH  1000 0
DWIDTH  30 0
BBX  26 28 2 -2
BITMAP
00000000
01FFF000
01FFF000
01803000
01803000
01803000
01803000
01803000
01803000
01803000
7F803FC0
7F803FC0
600000C0
600000C0
600000C0
600000C0
600000C0
600000C0
600000C0
600000C0
600000C0
600000C0
600000C0
600000C0
7FFFFFC0
7FFFFFC0
600000C0
600000C0
ENDCHAR
STARTCHAR  51F9
ENCODING  20985
SWIDTH  1000 0
DWIDTH  30 0
BBX  26 28 2 -2
BITMAP
00000000
7FC0FF80
7FC0FF80
60C0C180
60C0C180
60C0C180
60C0C180
60C0C180
60C0C180
60C0C180
60C0C180
60C0C180
60C0C180
60FFC180
60FFC180
60000180
60000180
60000180
60000180
60000180
60000180
60000180
60000180
7FFFFF80
7FFFFF80
60000180
60000180
60000180
ENDCHAR
STARTCHAR  51FA
ENCODING  20986
SWIDTH  1000 0
DWIDTH  30 0
BBX  24 29 3 -2
BITMAP
001800
001800
001800
601806
601806
601806
601806
601806
601806
601806
601806
601806
7FFFFE
7FFFFE
001806
001800
001800
C01803
C01803
C01803
C01803
C01803
C01803
C01803
C01803
FFFFFF
FFFFFF
000003
000003
ENDCHAR
STARTCHAR  51FB
ENCODING  20987
SWIDTH  1000 0
DWIDTH  30 0
BBX  29 29 0 -2
BITMAP
00030000
00030000
00030000
00030000
00030000
3FFFFFE0
3FFFFFE0
00030000
00030000
00030000
00030000
00030000
00030000
FFFFFFF8
FFFFFFF8
00030000
00030000
00030000
18030060
18030060
18030060
18030060
18030060
18030060
18030060
1FFFFFE0
1FFFFFE0
00000060
00000060
ENDCHAR
STARTCHAR  51FC
ENCODING  20988
SWIDTH  1000 0
DWIDTH  30 0
BBX  26 29 2 -2
BITMAP
000C0000
000C0000
000C0000
C00C0180
C00C1980
C00C3D80
DFCC7180
DFCCE180
C0CDC180
C0CF8180
C0CF0180
C1CE0180
C18F0180
C38F8180
C30DC180
C70CE180
C60C7180
CE0C3980
DC0C1D80
F80C0980
D00C0980
C1FC0180
C1F80180
C0000180
C0000180
FFFFFF80
FFFFFF80
00000180
00000180
ENDCHAR
STARTCHAR  51FD
ENCODING  20989
SWIDTH  1000 0
DWIDTH  30 0
BBX  26 28 2 -2
BITMAP
00000000
1FFFFE00
1FFFFE00
00003E00
0000F800
0003E000
000F8000
CE0E0D80
C70C1D80
C38C7980
C1CCF180
C0CCC180
C00C0180
C02C8180
C0EDC180
C3ECF180
C78C7980
DE0C1F80
CC0C0D80
C00C0180
C01C0180
C1FC0180
C1F80180
C0000180
FFFFFF80
FFFFFF80
00000180
00000180
ENDCHAR
STARTCHAR  51FF
ENCODING  20991
SWIDTH  1000 0
DWIDTH  30 0
BBX  29 30 1 -2
BITMAP
00000000
0060C000
1860C180
1C60C1C0
0C60C380
0E60C700
0660CE00
0060C000
FFFFFFF0
FFFFFFF0
00000000
00C06000
00E06000
3070E0C0
3021C0C0
33FFFCC0
33FFFCC0
300600C0
300600C0
300600C0
31FFF8C0
31FFF8C0
300600C0
300600C0
300600C0
300600C0
300000C0
3FFFFFC0
3FFFFFC0
000000C0
ENDCHAR
STARTCHAR  5200
ENCODING  20992
SWIDTH  1000 0
DWIDTH  30 0
BBX  25 25 1 -1
BITMAP
FFFFFF80
FFFFFF80
00600180
00600180
00600180
00600180
00600180
00600180
00600180
00600180
00600180
00600180
00E00180
00E00180
00C00180
01C00180
01800180
03800180
07000180
0E000180
1C000180
38000380
70000780
E003FF00
C003FC00
ENDCHAR
STARTCHAR  5201
ENCODING  20993
SWIDTH  1000 0
DWIDTH  30 0
BBX  26 27 1 -2
BITMAP
00000000
3FFFFFC0
3FFFFFC0
000001C0
000001C0
000001C0
000001C0
000001C0
000031C0
0000F1C0
0001F1C0
0007C1C0
001F01C0
007E01C0
01F801C0
07E00180
1F800180
7E000180
78000180
60000180
00000180
00000380
00000380
0007DF00
0007FF00
0007FC00
00000000
ENDCHAR
STARTCHAR  5202
ENCODING  20994
SWIDTH  1000 0
DWIDTH  30 0
BBX  12 29 15 -2
BITMAP
0030
0030
0030
6030
6030
6030
6030
6030
6030
6030
6030
6030
6030
6030
6030
6030
6030
6030
6030
6030
6030
6030
0030
0070
0070
0070
3FE0
3FE0
0000
ENDCHAR
STARTCHAR  5203
ENCODING  20995
SWIDTH  1000 0
DWIDTH  30 0
BBX  26 28 1 -3
BITMAP
00000000
7FFFFFC0
7FFFFFC0
001C01C0
001C01C0
001C01C0
081801C0
0E1801C0
0C180180
1C180180
1C380180
18380180
38380180
30380180
70300180
20700180
00700180
00E00180
00E00180
01C00180
03800380
07800380
0F000380
1E03FF00
7C03FF00
7803FC00
20000000
00000000
ENDCHAR
STARTCHAR  5206
ENCODING  20998
SWIDTH  1000 0
DWIDTH  30 0
BBX  30 31 0 -3
BITMAP
00000000
00204000
0030E000
00706000
00E07000
00E03800
01C01C00
03801C00
07000E00
0F000780
1E0003C0
3C0001E0
780000F8
F0000078
4FFFFE10
0FFFFE00
00300600
00700600
00700600
00700600
00600600
00600600
00E00600
01C00600
01C00600
03800E00
0F001C00
3E07FC00
7C07F800
30000000
00000000
ENDCHAR
STARTCHAR  5207
ENCODING  20999
SWIDTH  1000 0
DWIDTH  30 0
BBX  27 29 0 -2
BITMAP
0C000000
0C000000
0C1FFFE0
0C1FFFE0
0C00C060
0C00C060
0C00C060
0C00C060
0FF0C060
FFF0C060
FC00C060
0C00C060
0C00C060
0C00C060
0C00C060
0C00C060
0C00C060
0C10C060
0C30C060
0C70C060
0CE1C060
0FC18060
1F038060
1E070060
080E0060
001C0060
00387FE0
00F07FC0
00600000
ENDCHAR
STARTCHAR  5208
ENCODING  21000
SWIDTH  1000 0
DWIDTH  30 0
BBX  28 29 0 -2
BITMAP
00000030
00040030
10070030
30061830
380E1830
180E1830
1C0C1830
0E1C1830
0E181830
07381830
03301830
03F01830
01E01830
01E01830
00E01830
01E01830
01F01830
03F01830
07381830
07181830
0E1C1830
0C0E1830
1C0E0030
38070030
30070070
70020070
60000FF0
00000FE0
00000000
ENDCHAR
STARTCHAR  520A
ENCODING  21002
SWIDTH  1000 0
DWIDTH  30 0
BBX  28 29 0 -2
BITMAP
00000030
00000030
7FFE0030
7FFE3030
01803030
01803030
01803030
01803030
01803030
01803030
01803030
01803030
01803030
FFFF3030
FFFF3030
01803030
01803030
01803030
01803030
01803030
01803030
01803030
01800030
01800030
01800030
01800070
01800FF0
01800FE0
00000000
ENDCHAR
STARTCHAR  520D
ENCODING  21005
SWIDTH  1000 0
DWIDTH  30 0
BBX  27 29 0 -2
BITMAP
00700000
00600000
00E00000
01FFFC00
03FFFC00
07001C00
0E003800
1C007000
3800E000
7001C000
7FFFFFC0
1FFFFFC0
000000C0
000000C0
000000C0
000000C0
000000C0
000000C0
0FFFFFC0
0FFFFFC0
000000C0
000000C0
000000C0
000000C0
000000C0
3FFFFFC0
3FFFFFC0
000000C0
000000C0
ENDCHAR
STARTCHAR  520E
ENCODING  21006
SWIDTH  1000 0
DWIDTH  30 0
BBX  29 29 0 -2
BITMAP
00000000
03000030
06000030
06000630
0E000630
0FFFC630
0FFFC630
19CCC630
198CC630
318CC630
718CC630
618CC630
238CC630
0318C630
0318C630
0618C630
0618C630
0E30C630
1C30C630
3870C630
3860C630
70E0C630
21C0C030
0181C030
03018030
07038030
1E7F8470
187F07F0
000007E0
ENDCHAR
STARTCHAR  5211
ENCODING  21009
SWIDTH  1000 0
DWIDTH  30 0
BBX  28 29 0 -2
BITMAP
00000060
00000060
7FFF8060
7FFF9860
060C1860
060C1860
060C1860
060C1860
060C1860
060C1860
060C1860
060C1860
060C1860
FFFFD860
FFFFD860
060C1860
060C1860
060C1860
060C1860
0E0C1860
0E0C1860
0C0C1860
0C0C0060
1C0C0060
380C0060
380C00E0
700C1FE0
600C0FC0
00000000
ENDCHAR
STARTCHAR  5212
ENCODING  21010
SWIDTH  1000 0
DWIDTH  30 0
BBX  29 29 0 -2
BITMAP
03000030
03300030
03380030
031C0C30
030E0C30
03040C30
03000C30
030FCC30
03FFCC30
7FF80C30
3F000C30
03000C30
03038C30
03038C30
03070C30
030E0C30
039C0C30
01B80C30
01F80C30
01F00C30
01E00C30
03C0E030
07E0E030
1E60C030
3C70C030
7838C070
201FCFF0
000F8FE0
00000000
ENDCHAR
STARTCHAR  5216
ENCODING  21014
SWIDTH  1000 0
DWIDTH  30 0
BBX  29 29 0 -2
BITMAP
00000030
00000030
0FFE0030
0FFE0C30
0C060C30
0C060C30
0C060C30
0C060C30
0C060C30
0FFE0C30
0FFE0C30
0C060C30
0C060C30
0C060C30
0C060C30
0C060C30
0FFE0C30
0FFE0C30
0C060C30
0C060C30
1C060C30
1C060030
18060030
18060030
38060030
300E0070
70FE0FF0
60FC0FE0
20000000
ENDCHAR
STARTCHAR  5217
ENCODING  21015
SWIDTH  1000 0
DWIDTH  30 0
BBX  28 29 0 -2
BITMAP
00000060
00000060
7FFF8060
7FFF8060
01801860
03801860
03001860
03001860
07FF1860
07FF1860
0E071860
0C071860
1C061860
18061860
3A0E1860
770C1860
739C1860
E1D81860
C0F81860
40701860
00701860
00E01860
01C00060
03C00060
07800060
0F000060
3E001FE0
38001FC0
10000000
ENDCHAR
STARTCHAR  5218
ENCODING  21016
SWIDTH  1000 0
DWIDTH  30 0
BBX  28 30 0 -2
BITMAP
00000000
01800000
01800030
01C00030
00C01830
00C01830
FFFF9830
FFFF9830
00061830
100E1830
300C1830
380C1830
1C1C1830
0E181830
0E381830
07381830
03B01830
01F01830
01E01830
00E01830
01F01830
03B81830
03B81830
071C0030
0E0E0030
1C0E0030
38070070
F0021FF0
60000FE0
00000000
ENDCHAR
STARTCHAR  5219
ENCODING  21017
SWIDTH  1000 0
DWIDTH  30 0
BBX  29 29 0 -2
BITMAP
00000030
00000030
1FFF0030
1FFF0C30
18030C30
18030C30
18C30C30
18C30C30
18C30C30
18C30C30
18C30C30
18C30C30
18C30C30
18C30C30
18C30C30
18C30C30
18C30C30
18C30C30
19C30C30
19830C30
19C30C30
03F00030
03380030
071C0030
0E0F0030
1C078070
38038FF0
70010FE0
20000000
ENDCHAR
STARTCHAR  521A
ENCODING  21018
SWIDTH  1000 0
DWIDTH  30 0
BBX  28 29 1 -2
BITMAP
00000060
00000060
7FFF8060
7FFF8C60
60018C60
60018C60
60018C60
6C1D8C60
6C198C60
66398C60
67318C60
63318C60
63E18C60
61E18C60
61C18C60
61E18C60
61E18C60
63F18C60
63318C60
66398C60
6E198C60
6C1D8C60
68098060
60018060
60018060
60018060
607F8FE0
607F0FC0
00000000
ENDCHAR
STARTCHAR  521B
ENCODING  21019
SWIDTH  1000 0
DWIDTH  30 0
BBX  28 29 0 -2
BITMAP
00000000
00600030
00F80030
01DC0C30
018E0C30
03070C30
07038C30
0E01CC30
1C01CC30
3800CC30
78000C30
7FFF0C30
2FFF0C30
0C030C30
0C030C30
0C030C30
0C030C30
0C030C30
0C070C30
0CFE0C30
0CFC0C30
0C00C030
0C00C030
0C00C030
0C01C030
0C01C070
0FFF8FF0
07FF0FE0
00000000
ENDCHAR
STARTCHAR  521D
ENCODING  21021
SWIDTH  1000 0
DWIDTH  30 0
BBX  29 30 0 -3
BITMAP
04000000
0E000000
06000000
070FFFF0
020FFFF0
00006030
7FE06030
7FE06030
00C06030
01C06030
03806030
0310E030
0738E030
0E30E030
1F70E030
3FE0E030
77E0C030
66F0C070
4639C070
0611C070
06018070
06038070
06070070
06070070
060E0070
061E38E0
063C3FE0
06781F80
06300000
00000000
ENDCHAR
STARTCHAR  5220
ENCODING  21024
SWIDTH  1000 0
DWIDTH  30 0
BBX  29 30 0 -2
BITMAP
00000000
00000030
1FCFE030
1FCFE330
18CC6330
18CC6330
18CC6330
18CC6330
18CC6330
18CC6330
18CC6330
18CC6330
18CC6330
18CC6330
7FFFFB30
7FFFFB30
18CC6330
18CC6330
18CC6330
18CC6330
18CC6330
18CC6330
18CC6330
18CC6030
30C86030
30D86030
30D86030
67DBE7F0
67B3C3E0
00100000
ENDCHAR
STARTCHAR  5224
ENCODING  21028
SWIDTH  1000 0
DWIDTH  30 0
BBX  28 30 0 -2
BITMAP
00000000
00C00030
00C00030
30C18030
30C18C30
38C38C30
1CC70C30
0CCE0C30
0CCE0C30
00C00C30
00C00C30
3FFF8C30
3FFF8C30
00C00C30
00C00C30
00C00C30
00C00C30
00C00C30
7FFF8C30
7FFF8C30
01800C30
01800C30
03800030
03000030
07000030
0E000030
1E000070
3C000FF0
38000FE0
10000000
ENDCHAR
STARTCHAR  5228
ENCODING  21032
SWIDTH  1000 0
DWIDTH  30 0
BBX  28 29 0 -2
BITMAP
04000000
07000030
06000030
0E000C30
0FFF0C30
1FFF0C30
18030C30
38030C30
70030C30
7FF30C30
7FF30C30
18330C30
18330C30
18330C30
18330C30
18330C30
1FF30C30
1FF30C30
18030C30
18060C30
18FE0C30
187CCC30
1800E030
1800C030
1800C030
1C01C030
1FFF8870
0FFF0FF0
00000FC0
ENDCHAR
STARTCHAR  5229
ENCODING  21033
SWIDTH  1000 0
DWIDTH  30 0
BBX  27 28 0 -2
BITMAP
00000060
01FE0060
7FFE3060
7D803060
01803060
01803060
01803060
01803060
FFFF3060
FFFF3060
03803060
03803060
07803060
07E03060
0DF03060
0DB83060
199C3060
398E3060
31863060
71803060
E1803060
C1800060
41800060
01800060
01800060
01800060
01801FE0
01801F80
ENDCHAR
STARTCHAR  522B
ENCODING  21035
SWIDTH  1000 0
DWIDTH  30 0
BBX  29 29 0 -2
BITMAP
00000030
00000030
1FFF0030
1FFF0C30
18030C30
18030C30
18030C30
18030C30
18030C30
1FFF0C30
1FFF0C30
18030C30
01800C30
01800C30
01800C30
3FFF0C30
3FFF0C30
03030C30
03030C30
03030C30
03030C30
07030C30
06030030
0E030030
1C030030
3C070070
79FE1FF0
70FC0FE0
20000000
ENDCHAR
STARTCHAR  522D
ENCODING  21037
SWIDTH  1000 0
DWIDTH  30 0
BBX  28 29 0 -2
BITMAP
00000060
00000060
3FFC0060
3FFC0060
001C1860
00181860
00381860
00701860
00E01860
01F01860
07BC1860
0F1E1860
3E079860
F8039860
60011860
00001860
3FFE1860
3FFE1860
00C01860
00C01860
00C01860
00C01860
00C00060
00C10060
01FF0060
7FFF00E0
7F001FE0
00001FC0
00000000
ENDCHAR
STARTCHAR  522E
ENCODING  21038
SWIDTH  1000 0
DWIDTH  30 0
BBX  28 29 0 -2
BITMAP
00000030
001F8030
3FFF8030
3FF80030
00C00C30
00C00C30
00C00C30
00C00C30
00C00C30
7FFFCC30
7FFFCC30
00C00C30
00C00C30
00C00C30
00C00C30
00C00C30
1FFF0C30
1FFF0C30
18030C30
18030C30
18030C30
18030030
18030030
18030030
18030030
1FFF0070
1FFF0FF0
18030FE0
00000000
ENDCHAR
STARTCHAR  5230
ENCODING  21040
SWIDTH  1000 0
DWIDTH  30 0
BBX  27 28 1 -1
BITMAP
00000060
00000060
FFFF8060
FFFF9860
07001860
06001860
0E181860
1C181860
181C1860
380E1860
71FE1860
7FFF1860
7F071860
01821860
01801860
01801860
01801860
FFFF1860
FFFF1860
01801860
01801860
01801860
01800060
01800060
01FF0060
FFFF80E0
FF801FE0
00001FC0
ENDCHAR
STARTCHAR  5233
ENCODING  21043
SWIDTH  1000 0
DWIDTH  30 0
BBX  29 30 -1 -2
BITMAP
00000000
00300018
00700018
00700018
00600318
3FFFE318
3FFFE318
01CC0318
01870318
07038318
0E01E318
3FFEF318
7BFE7318
20000318
00000318
00000318
3FFFE318
3FFFE318
06000318
06000318
0FFF8318
0FFF8318
00018018
00018018
00018018
00038018
00030038
01FF07F8
01FE03F0
00000000
ENDCHAR
STARTCHAR  5236
ENCODING  21046
SWIDTH  1000 0
DWIDTH  30 0
BBX  29 29 0 -2
BITMAP
00600030
08600030
0C600030
0C600C30
1C600C30
1FFFCC30
3FFFCC30
30600C30
70600C30
20600C30
00600C30
7FFFEC30
7FFFEC30
00600C30
00600C30
00600C30
1FFFCC30
1FFFCC30
1860CC30
1860CC30
1860CC30
1860C030
1860C030
1860C030
186FC030
186F8070
18600FF0
00600FE0
00600000
ENDCHAR
STARTCHAR  5237
ENCODING  21047
SWIDTH  1000 0
DWIDTH  30 0
BBX  28 29 0 -2
BITMAP
00000030
00000030
1FFFC030
1FFFC630
1800C630
1800C630
1800C630
1FFFC630
1FFFC630
1800C630
1800C630
18180630
18180630
19FFE630
19FFE630
19986630
19986630
19986630
19986630
19986630
39986630
31986030
31986030
31986030
619BE030
619BC070
60180FF0
401807E0
00180000
ENDCHAR
STARTCHAR  5238
ENCODING  21048
SWIDTH  1000 0
DWIDTH  30 0
BBX  30 30 0 -2
BITMAP
00000000
00030000
0E030380
07070300
03860700
01860E00
000E0400
3FFFFFF0
3FFFFFF0
001C0000
00180000
00380000
00300000
7FFFFFF8
7FFFFFF8
01C01C00
03800E00
07000700
1E0003C0
3FFFFFF8
73FFFE78
60300610
00700600
00700600
00E00E00
01E00E00
03C01C00
1F87FC00
3E07F800
30000000
ENDCHAR
STARTCHAR  5239
ENCODING  21049
SWIDTH  1000 0
DWIDTH  30 0
BBX  28 29 0 -2
BITMAP
00000030
30030030
3C070030
0F1E0C30
03FC0C30
01F00C30
01F80C30
079E0C30
1F0F8C30
7C03CC30
7061CC30
00600C30
00600C30
00600C30
00600C30
7FFFCC30
7FFFCC30
00600C30
00600C30
0C670C30
1C630C30
18638C30
38618030
7061C030
6060E030
60E08070
0FE00FF0
0FC00FE0
00000000
ENDCHAR
STARTCHAR  523A
ENCODING  21050
SWIDTH  1000 0
DWIDTH  30 0
BBX  28 30 0 -3
BITMAP
00600000
00600030
00600030
7FFFCC30
7FFFCC30
00600C30
00600C30
00600C30
00600C30
3FFF8C30
3FFF8C30
30618C30
30618C30
30618C30
30618C30
30E18C30
30EF8C30
31EF0C30
03E00C30
03780C30
067C0C30
0E6E0C30
1C670030
38638030
70618030
60600030
40600070
00600FF0
00600FE0
00000000
ENDCHAR
STARTCHAR  523B
ENCODING  21051
SWIDTH  1000 0
DWIDTH  30 0
BBX  28 30 0 -2
BITMAP
00000000
00C00030
00C00030
00E00030
00600C30
7FFFCC30
7FFFCC30
03000C30
07000C30
060C0C30
0E0C0C30
1C1C0C30
18380C30
3FF80C30
3FF18C30
00E38C30
01C30C30
03C70C30
078E0C30
0F0E0C30
1E1C0C30
3C380C30
70780C30
60FE0030
01EF0030
03878030
0F03C070
3E01CFF0
38008FE0
10000000
ENDCHAR
STARTCHAR  523D
ENCODING  21053
SWIDTH  1000 0
DWIDTH  30 0
BBX  29 29 0 -2
BITMAP
00000000
00600030
00F00030
00F80C30
019C0C30
030E0C30
07060C30
06070C30
0C038C30
1801CC30
3801CC30
7FFE8C30
6FFE0C30
00000C30
00000C30
00000C30
7FFFCC30
7FFFCC30
03800C30
03080C30
071C0C30
060E0C30
0C070030
0C070030
18038030
7FFFC070
3FFFCFF0
200087E0
00000000
ENDCHAR
STARTCHAR  523F
ENCODING  21055
SWIDTH  1000 0
DWIDTH  30 0
BBX  29 29 0 -2
BITMAP
00000000
00600030
30618030
30618630
30618630
30618630
30618630
30618630
3FFF8630
3FFF8630
01818630
03800630
03800630
07000630
07FF8630
0FFF8630
0C038630
1C030630
3A070630
77860630
63CE0630
00FC0630
00780030
00700030
01E00030
0F800070
7E0007F0
780007E0
00000000
ENDCHAR
STARTCHAR  5240
ENCODING  21056
SWIDTH  1000 0
DWIDTH  30 0
BBX  28 29 1 -2
BITMAP
00000000
01800060
61830060
61831860
61831860
61831860
61831860
7FFF1860
7FFF1860
00031860
00001860
00001860
FFFE1860
FFFE1860
00061860
00061860
00061860
00061860
3FFE1860
3FFE1860
30061860
30001860
30000060
300E0060
31FE0060
7FF800E0
7F001FE0
30001FC0
00000000
ENDCHAR
STARTCHAR  5241
ENCODING  21057
SWIDTH  1000 0
DWIDTH  30 0
BBX  28 30 0 -3
BITMAP
00000000
00000030
0FFE0030
0FFE0C30
0C060C30
0C060C30
0C060C30
0C060C30
1C060C30
18060C30
3807CC30
70C3CC30
60C00C30
00C00C30
00C00C30
7FFFCC30
7FFFCC30
01C00C30
03D00C30
03F80C30
06DC0C30
0ECE0C30
1CC70030
38C3C030
70C18030
E0C00030
40C00CF0
00C00FF0
00C00FE0
00000000
ENDCHAR
STARTCHAR  5242
ENCODING  21058
SWIDTH  1000 0
DWIDTH  30 0
BBX  28 31 0 -3
BITMAP
00000000
01C00030
00C00030
00600030
00400C30
7FFFCC30
7FFFCC30
00060C30
180E0C30
1E0C0C30
0F1C0C30
03F80C30
01F00C30
00F80C30
03FE0C30
0F8F0C30
3E07CC30
F801CC30
660C8C30
060C0C30
060C0C30
060C0C30
060C0C30
0E0C0030
0C0C0030
1C0C0030
3C0C0070
780C0FF0
700C0FE0
200C0000
00000000
ENDCHAR
STARTCHAR  5243
ENCODING  21059
SWIDTH  1000 0
DWIDTH  30 0
BBX  28 29 0 -2
BITMAP
00000000
0C0E0030
0E0C0030
071C0C30
06380C30
3FFF8C30
3FFF8C30
00C18C30
00C18C30
00C18C30
3FFF8C30
3FFF8C30
30C18C30
30C00C30
30C00C30
30C00C30
7FFFCC30
7FFFCC30
01C0CC30
03C0CC30
07C0CC30
0EC0CC30
0CC18030
1CDF8030
78DF0030
70C00030
20C00070
00C00FE0
00C00FC0
ENDCHAR
STARTCHAR  524A
ENCODING  21066
SWIDTH  1000 0
DWIDTH  30 0
BBX  27 30 1 -3
BITMAP
01800000
018000C0
618300C0
618718C0
318E18C0
398C18C0
199C18C0
018818C0
018018C0
7FFE18C0
7FFE18C0
600618C0
600618C0
600618C0
7FFE18C0
7FFE18C0
600618C0
600618C0
600618C0
600618C0
7FFE18C0
7FFE00C0
600600C0
600600C0
600600C0
600600C0
600631C0
60FE3FC0
60FC1F80
00000000
ENDCHAR
STARTCHAR  524C
ENCODING  21068
SWIDTH  1000 0
DWIDTH  30 0
BBX  28 29 0 -2
BITMAP
00600030
00600030
00600030
7FFFCC30
7FFFCC30
00600C30
00600C30
00600C30
3FFF8C30
3FFF8C30
30618C30
30618C30
30618C30
30618C30
30618C30
3FFF8C30
3FFF8C30
31E18C30
01F80C30
037C0C30
066E0C30
0E670C30
1C638030
3861C030
70608030
60600070
00600FF0
00600FE0
00600000
ENDCHAR
STARTCHAR  524D
ENCODING  21069
SWIDTH  1000 0
DWIDTH  30 0
BBX  29 30 1 -3
BITMAP
00001000
01C01C00
00E03800
00703000
00606000
FFFFFFF8
FFFFFFF8
00000000
000000C0
3FFE00C0
3FFE30C0
300630C0
300630C0
300630C0
300630C0
3FFE30C0
3FFE30C0
300630C0
300630C0
300630C0
3FFE30C0
3FFE30C0
300630C0
300600C0
300600C0
300600C0
30861FC0
30FE1F80
30FC0000
00000000
ENDCHAR
STARTCHAR  5250
ENCODING  21072
SWIDTH  1000 0
DWIDTH  30 0
BBX  26 30 2 -3
BITMAP
000000C0
3FFC00C0
3FFC00C0
300C00C0
300C18C0
300C18C0
300C18C0
300C18C0
3FFC18C0
3FFC18C0
318C18C0
018018C0
018018C0
018018C0
FFFF18C0
FFFF18C0
C18318C0
C30318C0
C38318C0
C7E318C0
C67318C0
CC3B18C0
FC1F00C0
F80B00C0
D00300C0
C00301C0
C0031FC0
C07F1F80
C07E0000
00000000
ENDCHAR
STARTCHAR  5251
ENCODING  21073
SWIDTH  1000 0
DWIDTH  30 0
BBX  28 30 0 -3
BITMAP
00000000
00E00030
00F00030
01DC0C30
038E0C30
07060C30
0E070C30
1C038C30
3C01CC30
7800CC30
FFFF0C30
6FFF0C30
00000C30
00400C30
10C18C30
38C18C30
18E38C30
18630C30
1C630C30
0C630C30
0C760C30
0C760C30
0E060030
040C0030
000DE030
0FFFE030
7FFFCCF0
3F000FF0
00000FE0
00000000
ENDCHAR
STARTCHAR  5254
ENCODING  21076
SWIDTH  1000 0
DWIDTH  30 0
BBX  29 30 -1 -3
BITMAP
00000000
0FFFC018
0FFFC018
0C00C318
0C00C318
0C00C318
0FFFC318
0FFFC318
0C00C318
0C00C318
0FFFC318
0FFFC318
0000C318
03000318
06000318
07FFE318
0FFFE318
1CE66318
18C66318
39CE6318
718C6318
239C6318
07186318
0E386018
1C306018
3870E018
10E0E238
01CFC3F8
018F81F0
00000000
ENDCHAR
STARTCHAR  5256
ENCODING  21078
SWIDTH  1000 0
DWIDTH  30 0
BBX  27 30 1 -2
BITMAP
00000000
01800060
01800060
01C00060
00C01860
7FFF9860
7FFF9860
00081860
180E1860
1C1C1860
0C181860
0E381860
00301860
FFFFD860
FFFFD860
00001860
00001860
00001860
3FFE1860
3FFE1860
30061860
30061860
30061860
30060060
30060060
3FFE0060
3FFE00E0
30061FE0
30061FC0
30000000
ENDCHAR
STARTCHAR  525C
ENCODING  21084
SWIDTH  1000 0
DWIDTH  30 0
BBX  29 30 -1 -2
BITMAP
00000000
00E00018
00600018
00200018
3FFFE318
3FFFE318
30006318
30006318
36006318
0C000318
0FDFE318
0FDFE318
0CD86318
18D86318
18D86318
18D86318
30D86318
31986318
6D986318
279BC318
079BC318
03180318
07182318
0618E018
0E19E018
1C1F8018
381E0038
701807F8
200007F0
00000000
ENDCHAR
STARTCHAR  525E
ENCODING  21086
SWIDTH  1000 0
DWIDTH  30 0
BBX  27 31 1 -3
BITMAP
00000000
00C00000
00C00060
00C00060
7FFF8C60
7FFF8C60
01800C60
03E00C60
07F80C60
0E3E0C60
3C0F8C60
38030C60
00000C60
FFFFCC60
FFFFCC60
00030C60
00030C60
3FC30C60
3FC30C60
30C30C60
30C30C60
30C30C60
30C30C60
3FC30060
3FC30060
30030060
00030060
000700E0
00FF0FE0
007E0FC0
00000000
ENDCHAR
STARTCHAR  5261
ENCODING  21089
SWIDTH  1000 0
DWIDTH  30 0
BBX  28 29 0 -2
BITMAP
00600030
00600030
30608030
3061CC30
38638C30
1C670C30
0CE60C30
00E00C30
01F80C30
039C0C30
078F0C30
1F078C30
7C03CC30
78608C30
20600C30
00608C30
3061CC30
38638C30
1CE70C30
0CE60C30
08E00C30
01F00C30
03BC0030
078E0030
0F070030
3E038070
F801CFF0
70008FE0
00000000
ENDCHAR
STARTCHAR  5265
ENCODING  21093
SWIDTH  1000 0
DWIDTH  30 0
BBX  28 29 0 -3
BITMAP
00000030
3FFF0030
3FFF0C30
00030C30
00030C30
00030C30
1FFF0C30
1FFF0C30
00030C30
00030C30
7FFFEC30
7FFFEC30
00600C30
30608C30
3861CC30
1E678C30
066F0C30
00640C30
00600C30
036C0C30
0F6F0C30
3E678030
7863C030
6060E030
40604030
00600070
0FE00FF0
07C00FE0
00000000
ENDCHAR
STARTCHAR  5267
ENCODING  21095
SWIDTH  1000 0
DWIDTH  30 0
BBX  28 29 0 -2
BITMAP
00000030
00000030
1FFFC030
1FFFC030
1800CC30
1800CC30
1800CC30
1800CC30
1FFFCC30
1FFFCC30
1818CC30
18180C30
18180C30
1FFFEC30
1FFFEC30
18180C30
18180C30
18180C30
1BFFCC30
1BFFCC30
3B00CC30
3300CC30
3300C030
3300C030
7300C030
63FFC070
63FFCFF0
0300CFE0
00000000
ENDCHAR
STARTCHAR  5269
ENCODING  21097
SWIDTH  1000 0
DWIDTH  30 0
BBX  29 31 0 -3
BITMAP
00000000
00000018
00000018
3FFFE018
3FFFE318
00600318
00600318
00600318
7FFFF318
7FFFF318
00600318
06631318
7E63F318
7E63E318
06631318
06633B18
3E633318
7EE3F318
46F1E318
07F80318
03FE0318
036F0318
07678318
0E61C018
1C60E018
38606018
70600038
206003F8
006003F0
00600000
00000000
ENDCHAR
STARTCHAR  526A
ENCODING  21098
SWIDTH  1000 0
DWIDTH  30 0
BBX  29 30 1 -2
BITMAP
00000000
00C01000
00E03800
00707000
FFFFFFF8
FFFFFFF8
00000000
00000000
1FFE30C0
1FFE30C0
180630C0
1FFE30C0
1FFE30C0
180630C0
1FFE30C0
1FFE00C0
180600C0
180600C0
187E3FC0
187C1F80
00000000
7FFFFFC0
7FFFFFC0
003000C0
007000C0
00E001C0
03C001C0
3F81FF80
7E01FF00
30000000
ENDCHAR
STARTCHAR  526F
ENCODING  21103
SWIDTH  1000 0
DWIDTH  30 0
BBX  28 29 1 -2
BITMAP
00000060
00000060
FFFFC060
FFFFD860
00001860
00001860
1FFE1860
1FFE1860
18061860
18061860
18061860
1FFE1860
1FFE1860
18061860
00001860
7FFF9860
7FFF9860
60C19860
60C19860
60C19860
7FFF9860
7FFF8060
60C18060
60C18060
60C18060
7FFF80E0
7FFF9FE0
60019FC0
60018000
ENDCHAR
STARTCHAR  5272
ENCODING  21106
SWIDTH  1000 0
DWIDTH  30 0
BBX  28 30 1 -2
BITMAP
00000000
01800060
01800060
00C00060
FFFF8C60
FFFF8C60
C0018C60
C0C18C60
7FFF8C60
7FFF8C60
00C00C60
00C00C60
3FFF0C60
3FFF0C60
00C00C60
00C00C60
FFFF8C60
FFFF8C60
00C00C60
00C00C60
3FFF0C60
3FFF0C60
30030C60
30030060
30030060
30030060
3FFF0060
3FFF0FE0
30030FC0
00000000
ENDCHAR
STARTCHAR  527D
ENCODING  21117
SWIDTH  1000 0
DWIDTH  30 0
BBX  29 29 0 -2
BITMAP
00000030
00000030
7FFFE030
7FFFE630
018C0630
018C0630
3FFFE630
3FFFE630
318C6630
318C6630
318C6630
3FFFE630
3FFFE630
30006630
00000630
1FFF8630
1FFF8630
00000630
00000630
7FFFE630
7FFFE630
00600030
06620030
0E678030
3C61C030
F060E070
67E067F0
03C007E0
00000000
ENDCHAR
STARTCHAR  527F
ENCODING  21119
SWIDTH  1000 0
DWIDTH  30 0
BBX  28 29 0 -2
BITMAP
04108000
0C31C030
38638030
71C70630
38E70630
1C738630
0C31C630
00000630
3FFF8630
30618630
30618630
30618630
3FFF8630
30618630
30618630
30618630
3FFF8630
30618630
00600630
00600630
7FFFE630
7FFFE630
01F80030
036E0030
0E678030
3C63C030
70608CF0
40600FE0
00600FC0
ENDCHAR
STARTCHAR  5281
ENCODING  21121
SWIDTH  1000 0
DWIDTH  30 0
BBX  29 30 0 -2
BITMAP
00000000
06300030
06300030
0E380630
0C180630
1FFFE630
1FFFE630
38300630
38300630
78300630
FFFFC630
5FFFC630
18300630
18300630
18300630
1FFFC630
1FFFC630
18300630
18300630
18300630
1FFFE630
1FFFE630
18000630
00004030
3B18C030
319CE030
318C6030
618E73F0
618433E0
20000000
ENDCHAR
STARTCHAR  5282
ENCODING  21122
SWIDTH  1000 0
DWIDTH  30 0
BBX  29 30 0 -2
BITMAP
00000000
00000018
00000018
1FFFF818
1FFFFB18
18000318
1B0CC318
1B0CC318
19998318
19198318
1FFDFB18
1FFFFB18
18631B18
1B6E1B18
1B6CF318
1B6CC318
1B6CC318
1B6CC318
1B6CC318
1BFCC318
1BFCC318
184DE318
30C1E318
30C1B018
30C31818
31871C18
63860C38
670C03F8
660C03F0
00000000
ENDCHAR
STARTCHAR  5288
ENCODING  21128
SWIDTH  1000 0
DWIDTH  30 0
BBX  29 30 0 -2
BITMAP
00000000
00000C00
1FFC0600
1FFDFFF0
180DFFF0
180C2040
180C60C0
1FFC30C0
1FFC3180
180FFFF8
1003FFF8
3FFC0600
3FFC0600
2C0C0600
6C0DFFF0
EFFDFFF0
4FFC0600
0C0C0600
0C000600
00000000
3FFFFFC0
3FFFFFC0
003000C0
007000C0
007000C0
01E001C0
07C00380
3F83FF80
7E01FF00
30000000
ENDCHAR
STARTCHAR  5290
ENCODING  21136
SWIDTH  1000 0
DWIDTH  30 0
BBX  29 30 0 -2
BITMAP
00000000
03030030
03030030
7FFFF630
7FFFF630
03130630
04330630
04180630
0C100630
1FFFF630
1C180630
3C180630
7FFFE630
6C180630
0C180630
0FFFE630
0C180630
0C180630
0FFFF630
0C000630
00000630
3FFFC630
3FFFC630
0C018030
0F870030
01FE0030
01FF0070
1FC7C7F0
7E00F7E0
20002000
ENDCHAR
STARTCHAR  5293
ENCODING  21139
SWIDTH  1000 0
DWIDTH  30 0
BBX  29 31 0 -3
BITMAP
00000000
00C00030
01800030
1FFFC630
1800C630
1800C630
1FFFC630
1800C630
1800C630
1FFFC630
1800C630
1800C630
1FFFC630
00000630
3FFFE630
30606630
30606630
3FFFE630
30606630
30606630
3FFFE630
30006630
00000630
7FFFF030
7FFFF030
06060030
0E060030
1C0607F0
780607E0
70060000
00000000
ENDCHAR
STARTCHAR  529B
ENCODING  21147
SWIDTH  1000 0
DWIDTH  30 0
BBX  26 29 1 -2
BITMAP
00300000
00300000
00300000
00300000
00300000
00300000
00300000
7FFFFFC0
7FFFFFC0
003000C0
003000C0
003000C0
003000C0
003000C0
003000C0
003000C0
007000C0
007000C0
00E000C0
00E000C0
01C000C0
038000C0
070000C0
0E0000C0
1C0000C0
380001C0
7003FF80
E003FF00
40000000
ENDCHAR
STARTCHAR  529D
ENCODING  21149
SWIDTH  1000 0
DWIDTH  30 0
BBX  29 29 0 -2
BITMAP
00000000
00006000
00006000
00006000
7FF06000
7FF06000
00706000
0067FFF0
2067FFF0
70606030
38606030
18E06030
1CC06030
0EC06030
07C06030
0780E030
0380E030
0380C030
03C0C030
07E1C030
0E618030
0E738030
1C338030
38270030
700E0070
E01C0060
60783FE0
00703FC0
00200000
ENDCHAR
STARTCHAR  529E
ENCODING  21150
SWIDTH  1000 0
DWIDTH  30 0
BBX  30 29 1 -2
BITMAP
00380000
00300000
00300000
00300000
00300000
00300000
3FFFFE00
3FFFFE00
00300600
00300600
00300600
0C3006C0
1C7006E0
18700660
38700660
38600670
70600630
70600638
E0E00638
60C00600
01C00600
01C00600
03800600
07000E00
0E000E00
3C0FFC00
780FFC00
700FF000
20000000
ENDCHAR
STARTCHAR  529F
ENCODING  21151
SWIDTH  1000 0
DWIDTH  30 0
BBX  29 30 0 -2
BITMAP
00000000
00006000
00006000
00006000
7FF86000
7FF86000
03006000
030FFFF0
030FFFF0
0300C030
0300C030
0300C030
0300C030
0300C030
0300C030
0300C030
0300C030
0301C030
0301C030
03198030
03FB8030
1FFB8030
7F870030
78070030
400E0030
001C0070
003C0070
00787FE0
00F03FC0
00400000
ENDCHAR
STARTCHAR  52A0
ENCODING  21152
SWIDTH  1000 0
DWIDTH  30 0
BBX  28 30 0 -3
BITMAP
06000000
06000000
06000000
06000000
06007FF0
06007FF0
7FFC6030
7FFC6030
060C6030
060C6030
060C6030
060C6030
060C6030
060C6030
060C6030
060C6030
0E0C6030
0E0C6030
0C0C6030
0C0C6030
0C0C6030
1C0C6030
180C6030
381C7FF0
381C7FF0
701C6030
73F86030
E3F06030
40000000
00000000
ENDCHAR
ENDFONT
